<svg width="512" height="435" viewBox="0 0 512 435" fill="none" xmlns="http://www.w3.org/2000/svg">
<path fill-rule="evenodd" clip-rule="evenodd" d="M250.735 0.403778C244.331 1.39678 236.524 5.60578 232.751 10.0998C230.992 12.1948 178.528 98.4918 116.166 201.87C39.6045 328.786 2.2565 391.592 1.1695 395.255C-3.0695 409.533 4.5415 425.563 18.7165 432.21L24.3025 434.83H255.803H487.302L492.888 432.21C507.063 425.563 514.674 409.533 510.435 395.255C509.348 391.592 472 328.786 395.439 201.87C333.077 98.4918 280.572 12.1458 278.762 9.98978C275.058 5.57778 265.582 0.768778 259.302 0.112778C257.102 -0.116222 253.247 0.0147783 250.735 0.403778ZM264.188 129.746C270.725 131.713 275.679 135.799 278.064 141.189C279.971 145.501 280.049 147.032 279.413 167.797C279.041 179.915 278.297 198.83 277.759 209.83C277.22 220.83 276.368 242.725 275.865 258.486C274.804 291.723 274.719 292.064 266.487 295.896C259.532 299.134 250.944 299.207 244.823 296.08C236.698 291.928 236.833 292.476 235.768 259.281C235.248 243.083 234.385 220.83 233.849 209.83C231.808 167.93 231.461 146.896 232.748 142.997C236.526 131.549 250.546 125.64 264.188 129.746ZM264.007 322.884C281.227 328.752 286.8 350.762 274.46 364.175C270.551 368.425 264.112 371.492 257.922 372.053C253.047 372.495 251.124 372.162 246.673 370.107C224.905 360.056 226.048 330.784 248.521 322.767C253.572 320.965 258.484 321.002 264.007 322.884Z" fill="black"/>
</svg>
