<?xml version="1.0" encoding="UTF-8"?>
<svg xmlns="http://www.w3.org/2000/svg" viewBox="0 0 42 48"><g fill="#418fde" data-name="Layer 2"><path d="M5 21h1v-3a5 5 0 0 0-5-5H0v3a5 5 0 0 0 5 5zM5 30h1v-3a5 5 0 0 0-5-5H0v3a5 5 0 0 0 5 5zM6 36a5 5 0 0 0-5-5H0v3a5 5 0 0 0 5 5h1zM9 18v3h1a5 5 0 0 0 5-5v-3h-1a5 5 0 0 0-5 5zM9 27v3h1a5 5 0 0 0 5-5v-3h-1a5 5 0 0 0-5 5zM9 36v3h1a5 5 0 0 0 5-5v-3h-1a5 5 0 0 0-5 5zM6 46.5a1.5 1.5 0 0 0 3 0V41H6zM1.5 11A1.5 1.5 0 0 0 3 9.5v-4a1.5 1.5 0 0 0-3 0v4A1.5 1.5 0 0 0 1.5 11zM13.5 4A1.5 1.5 0 0 0 12 5.5v4a1.5 1.5 0 0 0 3 0v-4A1.5 1.5 0 0 0 13.5 4zM7.5 14A1.5 1.5 0 0 0 9 12.5v-11a1.5 1.5 0 0 0-3 0v11A1.5 1.5 0 0 0 7.5 14zM28.278 21.221l.965.26.777-2.898a5 5 0 0 0-3.536-6.124l-.966-.259-.776 2.898a5 5 0 0 0 3.536 6.123zM25.948 29.915l.966.259.777-2.898a5 5 0 0 0-3.536-6.124l-.966-.259-.776 2.898a5 5 0 0 0 3.535 6.124zM24.585 38.867l.776-2.898a5 5 0 0 0-3.535-6.124l-.966-.258-.777 2.897a5 5 0 0 0 3.536 6.124zM32.918 19.359l-.777 2.898.966.259a5 5 0 0 0 6.124-3.536l.776-2.898-.966-.258a5 5 0 0 0-6.123 3.535zM30.588 28.052l-.776 2.898.966.259a5 5 0 0 0 6.124-3.536l.776-2.897-.966-.26a5 5 0 0 0-6.124 3.536zM28.259 36.746l-.776 2.897.965.26a5 5 0 0 0 6.124-3.536l.777-2.898-.966-.259a5 5 0 0 0-6.124 3.536zM22.644 46.111a1.5 1.5 0 0 0 2.897.777l1.424-5.313-2.898-.776zM27.485 10.656a1.5 1.5 0 0 0 1.837-1.06l1.035-3.864a1.5 1.5 0 1 0-2.897-.776l-1.036 3.863a1.5 1.5 0 0 0 1.061 1.837zM40.888 7a1.5 1.5 0 0 0-1.837 1.061l-1.036 3.864a1.5 1.5 0 0 0 2.898.777l1.035-3.864A1.5 1.5 0 0 0 40.888 7zM32.504 15.107a1.5 1.5 0 0 0 1.837-1.06L37.188 3.42a1.5 1.5 0 1 0-2.898-.776L31.443 13.27a1.5 1.5 0 0 0 1.061 1.837z" style="fill: #000000;"/></g></svg>
