<?xml version="1.0" encoding="UTF-8"?>
<svg xmlns="http://www.w3.org/2000/svg" viewBox="0 0 48 48"><path fill="#418fde" d="M46.4 24.35C46.39 24.34 28 14 28 14V4a4 4 0 0 0-8 0v10L1.28 24.57A2.948 2.948 0 0 0 0 27a2.996 2.996 0 0 0 3 3 2.813 2.813 0 0 0 .92-.15L20 25v15l-6.06 4.31a1.857 1.857 0 0 0-.45.39A1.938 1.938 0 0 0 13 46a2.006 2.006 0 0 0 2 2 1.49 1.49 0 0 0 .3-.03l8.7-2.86 8.28 2.75A1.917 1.917 0 0 0 33 48a2.006 2.006 0 0 0 2-2 1.957 1.957 0 0 0-.41-1.2 1.778 1.778 0 0 0-.53-.49L28 40V25l15.97 4.81A2.94 2.94 0 0 0 45 30a2.998 2.998 0 0 0 1.4-5.65z" data-name="Layer 2" style="fill: #000000;"/></svg>
