<svg height="512pt" viewBox="-31 0 512 512" width="512pt" xmlns="http://www.w3.org/2000/svg"><path d="m14.253906 293.164062-.234375.394532c-9.171875 15.863281-14.019531 34-14.019531 52.441406 0 57.890625 47.109375 105 105 105s105-47.109375 105-105c0-18.441406-4.847656-36.578125-14.253906-52.835938l-90.746094-146.675781zm0 0"/><path d="m435.746094 353.164062-90.746094-146.675781-90.980469 147.070313c-9.171875 15.863281-14.019531 34-14.019531 52.441406 0 57.890625 47.109375 106 105 106s105-48.109375 105-106c0-18.441406-4.847656-36.578125-14.253906-52.835938zm0 0"/><path d="m255 0-64.996094 107.554688c-6.546875 11.304687-10.003906 24.257812-10.003906 37.4375 0 41.355468 33.648438 75 75 75s75-33.644532 75-75c0-13.195313-3.472656-26.144532-10.003906-37.4375zm0 0"/></svg>