<?xml version="1.0" encoding="UTF-8"?>
<svg xmlns="http://www.w3.org/2000/svg" viewBox="0 0 48 48"><g fill="#418fde" data-name="Layer 2"><path d="M6.62 31.24a4.684 4.684 0 0 0 2.71.76 4.684 4.684 0 0 0 2.71-.76A8.603 8.603 0 0 1 16.66 30a9.65 9.65 0 0 1 2.34.27V16H2a2.006 2.006 0 0 0-2 2v12.2a9.43 9.43 0 0 1 2-.2 8.602 8.602 0 0 1 4.62 1.24zM46 16H29v14.27a9.5 9.5 0 0 1 2.33-.27 8.603 8.603 0 0 1 4.62 1.24 5.23 5.23 0 0 0 5.43 0A8.602 8.602 0 0 1 46 30a9.43 9.43 0 0 1 2 .2V18a2.006 2.006 0 0 0-2-2zM46 42a8.585 8.585 0 0 0-4.625 1.244 5.241 5.241 0 0 1-5.423 0A8.586 8.586 0 0 0 31.326 42a8.577 8.577 0 0 0-4.623 1.244 4.692 4.692 0 0 1-2.708.756 4.696 4.696 0 0 1-2.709-.756A8.585 8.585 0 0 0 16.661 42a8.584 8.584 0 0 0-4.624 1.244A4.692 4.692 0 0 1 9.33 44a4.69 4.69 0 0 1-2.706-.756A8.586 8.586 0 0 0 2 42a2 2 0 0 0 0 4 4.691 4.691 0 0 1 2.707.756A8.585 8.585 0 0 0 9.329 48a8.584 8.584 0 0 0 4.624-1.244A4.692 4.692 0 0 1 16.661 46a4.696 4.696 0 0 1 2.71.756A8.585 8.585 0 0 0 23.994 48a8.593 8.593 0 0 0 4.624-1.244 5.234 5.234 0 0 1 5.42 0 9.22 9.22 0 0 0 9.25 0A4.702 4.702 0 0 1 46 46a2 2 0 0 0 0-4zM46 34a8.585 8.585 0 0 0-4.625 1.244 5.241 5.241 0 0 1-5.423 0A8.586 8.586 0 0 0 31.326 34a8.577 8.577 0 0 0-4.623 1.244 4.692 4.692 0 0 1-2.708.756 4.696 4.696 0 0 1-2.709-.756A8.585 8.585 0 0 0 16.661 34a8.584 8.584 0 0 0-4.624 1.244A4.692 4.692 0 0 1 9.33 36a4.69 4.69 0 0 1-2.706-.756A8.586 8.586 0 0 0 2 34a2 2 0 0 0 0 4 4.691 4.691 0 0 1 2.707.756A8.585 8.585 0 0 0 9.329 40a8.584 8.584 0 0 0 4.624-1.244A4.692 4.692 0 0 1 16.661 38a4.696 4.696 0 0 1 2.71.756A8.585 8.585 0 0 0 23.994 40a8.593 8.593 0 0 0 4.624-1.244 5.234 5.234 0 0 1 5.42 0 9.22 9.22 0 0 0 9.25 0A4.702 4.702 0 0 1 46 38a2 2 0 0 0 0-4z" style="fill: #000000;"/><path d="M18.42 10.41l.58-.59 1.5-1.51L22 6.79V27a2 2 0 0 0 4 0V6.87l1.5 1.48L29 9.84l.59.58a2.003 2.003 0 0 0 2.83-.01 2.004 2.004 0 0 0-.01-2.83L29 4.2l-1.52-1.5L25.34.58a1.946 1.946 0 0 0-.72-.45 1.802 1.802 0 0 0-.69-.13h-.01a1.717 1.717 0 0 0-.68.13 1.927 1.927 0 0 0-.73.46l-1.98 2L19 4.14l-3.42 3.45a2.001 2.001 0 1 0 2.84 2.82z" style="fill: #000000;"/></g></svg>
