<?xml version="1.0" encoding="UTF-8"?>
<svg xmlns="http://www.w3.org/2000/svg" viewBox="0 0 48.06 42"><g fill="#418fde" data-name="Layer 2"><path d="M47.12 0H19a.972.972 0 0 0-.94 1v4.53l.94.19a3.793 3.793 0 0 1 3.02 3.71l.04 12.04a14.279 14.279 0 0 1-3.44 9.46c-.18.21-.37.41-.56.6V41a.972.972 0 0 0 .94 1h20.06v-6a3.009 3.009 0 0 1 3-3h6V1a.972.972 0 0 0-.94-1zm-7.1 29H26.1a1 1 0 1 1 0-2h13.92a1 1 0 0 1 0 2zm0-6H26.1a1 1 0 1 1 0-2h13.92a1 1 0 0 1 0 2zm0-6H26.1a1 1 0 1 1 0-2h13.92a1 1 0 0 1 0 2zm0-6H26.1a1 1 0 1 1 0-2h13.92a1 1 0 0 1 0 2z" style="fill: #000000;"/><path d="M42.06 35a1.003 1.003 0 0 0-1 1v6l7-7h-6zM20.06 21.48l-.04-12.05a1.772 1.772 0 0 0-1.41-1.75l-.55-.11-7.72-1.54A1.875 1.875 0 0 0 10 6a2.046 2.046 0 0 0-.34.03L1.4 7.73A1.783 1.783 0 0 0 0 9.49l.03 12.05C.05 27.88 4.62 33 10.05 33h.03a9.685 9.685 0 0 0 7.98-4.65 12.491 12.491 0 0 0 2-6.87z" style="fill: #000000;"/></g></svg>
