<svg clip-rule="evenodd" fill-rule="evenodd" height="512" image-rendering="optimizeQuality" shape-rendering="geometricPrecision" text-rendering="geometricPrecision" viewBox="0 0 43.3492 43.3492" width="512" xmlns="http://www.w3.org/2000/svg"><g id="Layer_x0020_1"><path d="m36.6536 25.3164c3.6979 0 6.6957-2.9978 6.6957-6.6957 0-3.2656-2.338-5.9846-5.4313-6.5758-.3085-2.3908-2.3516-4.2378-4.8264-4.2378-.8065 0-1.5672.1964-2.237.5437-.786-4.0858-4.3797-7.1726-8.6949-7.1726-4.5634 0-8.32 3.452-8.8023 7.8871-.5149-.1854-1.0699-.2866-1.6487-.2866-2.088 0-3.8687 1.315-4.5595 3.162-.15-.01-.3011-.0156-.4536-.0156-3.6979 0-6.6957 2.9977-6.6957 6.6956s2.9978 6.6957 6.6957 6.6957z"/><path d="m8.1429 28.4062c-4.8857 2.2187-4.5173 4.8984-3.1217 5.5988 1.3384.6716 3.6217-.4771 3.1217-5.5988z"/><path d="m15.9 28.4062c-4.9163 2.2327-4.5125 4.9321-3.0952 5.6117 1.3418.6435 3.592-.5236 3.0952-5.6117z"/><path d="m23.6573 28.4062c-4.7948 2.1775-4.5292 4.7988-3.1985 5.5576 1.3256.7559 3.7082-.3366 3.1985-5.5576z"/><path d="m31.4145 28.4062c-4.976 2.2598-4.5019 4.9977-3.0432 5.6356 1.347.589 3.5336-.6127 3.0432-5.6356z"/><path d="m9.762 36.3981c-4.651 2.1121-4.5406 4.642-3.3153 5.4844 1.2963.8911 3.8404-.1062 3.3153-5.4844z"/><path d="m17.7621 36.3981c-4.8275 2.1923-4.5253 4.8346-3.171 5.5729 1.3307.7254 3.6772-.3878 3.171-5.5729z"/><path d="m25.7623 36.3981c-4.7536 2.1587-4.5334 4.7539-3.2325 5.5377 1.3184.7942 3.7466-.2718 3.2325-5.5377z"/><path d="m39.1717 28.4062c-5.1696 2.3477-4.4568 5.2114-2.8688 5.7003 1.352.4163 3.3385-.889 2.8688-5.7003z"/><path d="m33.7624 36.3981c-4.069 1.8478-4.4937 4.0154-3.7157 5.093 1.052 1.4571 4.3029.9213 3.7157-5.093z"/></g></svg>