<?xml version="1.0" encoding="UTF-8"?>
<svg xmlns="http://www.w3.org/2000/svg" viewBox="0 0 48.001 48.038"><g fill="#418fde" data-name="Layer 2"><path d="M9 39.038a14.26 14.26 0 0 0 19.147.785 1.01 1.01 0 0 0 .038-1.522L8.734 20.702a1.013 1.013 0 0 0-1.452.112C2.636 26.246 3.787 33.826 9 39.038zM47.902 19.42A30.57 30.57 0 0 0 28.618.097a2 2 0 0 0-1.236 3.805 26.496 26.496 0 0 1 16.716 16.754 2 2 0 1 0 3.804-1.236zM25.768 7.192a2 2 0 1 0-1.536 3.693 22.543 22.543 0 0 1 12.92 12.918 2 2 0 1 0 3.696-1.53 26.643 26.643 0 0 0-15.08-15.081zM22.98 14.295a2 2 0 0 0-1.96 3.486 23 23 0 0 1 9.238 9.24 2 2 0 1 0 3.484-1.965 27.145 27.145 0 0 0-10.762-10.76zM24.41 23.628a1.974 1.974 0 0 0-2.82 0l-2.88 2.88 2.95 2.69 2.75-2.75a1.974 1.974 0 0 0 0-2.82zM6.787 40.421a1 1 0 0 0-1.574 0l-5 6.004a1 1 0 0 0 .789 1.613H11a1 1 0 0 0 .79-1.613z" style="fill: #000000;"/></g></svg>
