<svg id="Capa_1" enable-background="new 0 0 321.596 321.596" height="512" viewBox="0 0 321.596 321.596" width="512" xmlns="http://www.w3.org/2000/svg"><g><g id="Temperature"><path d="m218.208 184.973v-127.563c0-31.706-25.703-57.41-57.41-57.41s-57.41 25.703-57.41 57.41v127.564c-31.066 31.706-30.547 82.593 1.16 113.659s82.593 30.547 113.659-1.16c30.619-31.25 30.619-81.25.001-112.5zm-57.41 90.593c-18.977.046-34.398-15.301-34.443-34.278-.035-14.613 9.176-27.649 22.961-32.497v-71.008c0-6.341 5.141-11.482 11.482-11.482s11.482 5.141 11.482 11.482v71.008c17.902 6.296 27.311 25.912 21.015 43.814-4.848 13.785-17.884 22.996-32.497 22.961z"/></g></g></svg>