<?xml version="1.0" encoding="UTF-8"?>
<svg xmlns="http://www.w3.org/2000/svg" viewBox="0 0 48 48"><path fill="#418fde" d="M46.93 16H45v-2.94A1.054 1.054 0 0 0 43.94 12H42V1.5a1.5 1.5 0 0 0-3 0V12h-1.94A1.054 1.054 0 0 0 36 13.06V16h-1.93A1.071 1.071 0 0 0 33 17.07V45h-4V3a1.003 1.003 0 0 0-1-1H16a1.003 1.003 0 0 0-1 1v42H8v-6.212a5.5 5.5 0 1 0-3 0V45H0v3h48V17.07A1.071 1.071 0 0 0 46.93 16zM42 31.5a.495.495 0 0 1 .5-.5h2a.495.495 0 0 1 .5.5v2a.495.495 0 0 1-.5.5h-2a.495.495 0 0 1-.5-.5zm2.5-3.5h-2a.495.495 0 0 1-.5-.5v-2a.495.495 0 0 1 .5-.5h2a.495.495 0 0 1 .5.5v2a.495.495 0 0 1-.5.5zm0-6h-2a.495.495 0 0 1-.5-.5v-2a.495.495 0 0 1 .5-.5h2a.495.495 0 0 1 .5.5v2a.495.495 0 0 1-.5.5zM36 19.5a.495.495 0 0 1 .5-.5h2a.495.495 0 0 1 .5.5v2a.495.495 0 0 1-.5.5h-2a.495.495 0 0 1-.5-.5zm0 6a.495.495 0 0 1 .5-.5h2a.495.495 0 0 1 .5.5v2a.495.495 0 0 1-.5.5h-2a.495.495 0 0 1-.5-.5zm0 6a.495.495 0 0 1 .5-.5h2a.495.495 0 0 1 .5.5v2a.495.495 0 0 1-.5.5h-2a.495.495 0 0 1-.5-.5zM19 8a1.003 1.003 0 0 1 1-1h4a1.003 1.003 0 0 1 1 1v1a1.003 1.003 0 0 1-1 1h-4a1.003 1.003 0 0 1-1-1zm0 8a1.003 1.003 0 0 1 1-1h4a1.003 1.003 0 0 1 1 1v1a1.003 1.003 0 0 1-1 1h-4a1.003 1.003 0 0 1-1-1zm0 8a1.003 1.003 0 0 1 1-1h4a1.003 1.003 0 0 1 1 1v1a1.003 1.003 0 0 1-1 1h-4a1.003 1.003 0 0 1-1-1zm0 21v-5a1.003 1.003 0 0 1 1-1h4a1.003 1.003 0 0 1 1 1v5zm23 0v-5a1.003 1.003 0 0 1 1-1h1a1.003 1.003 0 0 1 1 1v5z" data-name="Layer 2" style="fill: #000000;"/></svg>
