<svg id="Capa_1" enable-background="new 0 0 512 512" height="512" viewBox="0 0 512 512" width="512" xmlns="http://www.w3.org/2000/svg"><path d="m512 177.333c0 54.405-44.262 98.667-98.667 98.667h-313.333c-11.046 0-20-8.954-20-20s8.954-20 20-20h313.333c32.349 0 58.667-26.318 58.667-58.667s-26.318-58.667-58.667-58.667-58.667 26.318-58.667 58.667c0 11.046-8.954 20-20 20s-20-8.954-20-20c0-54.405 44.262-98.667 98.667-98.667 54.405.001 98.667 44.262 98.667 98.667zm-492 20h170c54.405 0 98.667-44.262 98.667-98.667 0-54.404-44.262-98.666-98.667-98.666s-98.667 44.262-98.667 98.667c0 11.046 8.954 20 20 20s20-8.954 20-20c0-32.349 26.318-58.667 58.667-58.667s58.667 26.318 58.667 58.667-26.318 58.667-58.667 58.667h-170c-11.046 0-20 8.954-20 20s8.954 19.999 20 19.999zm314.667 117.334h-314.667c-11.046 0-20 8.954-20 20s8.954 20 20 20h314.667c32.349 0 58.667 26.318 58.667 58.667s-26.318 58.667-58.667 58.667c-32.349-.001-58.667-26.319-58.667-58.668 0-11.046-8.954-20-20-20s-20 8.954-20 20c0 54.405 44.262 98.667 98.667 98.667s98.667-44.262 98.667-98.667c-.001-54.405-44.262-98.666-98.667-98.666z"/></svg>