<svg id="Group_2" data-name="Group 2" xmlns="http://www.w3.org/2000/svg" width="22" height="22" viewBox="0 0 22 22">
  <g id="_x31_0_41_">
    <g id="Group_134" data-name="Group 134">
      <path id="Path_147" data-name="Path 147" d="M14.93,7.07a.692.692,0,0,0-.98,0L11,10.024,8.084,7.111a.687.687,0,0,0-.972.972L10.024,11,7.092,13.929a.693.693,0,0,0,.98.98L11,11.976l2.913,2.913a.687.687,0,0,0,.972-.972L11.976,11,14.93,8.049A.692.692,0,0,0,14.93,7.07ZM11,0A11,11,0,1,0,22,11,11,11,0,0,0,11,0Zm0,20.625A9.625,9.625,0,1,1,20.625,11,9.625,9.625,0,0,1,11,20.625Z" fill="#fff"/>
    </g>
  </g>
</svg>
