<svg xmlns="http://www.w3.org/2000/svg" width="10.86" height="11.583" viewBox="0 0 10.86 11.583">
  <g id="download" transform="translate(-16)">
    <g id="Group_1475" data-name="Group 1475" transform="translate(18.534)">
      <g id="Group_1474" data-name="Group 1474">
        <path id="Path_5938" data-name="Path 5938" d="M133.757,5.28a.361.361,0,0,0-.329-.212H131.98V.362A.362.362,0,0,0,131.618,0H130.17a.362.362,0,0,0-.362.362V5.068H128.36a.362.362,0,0,0-.272.6l2.534,2.9a.361.361,0,0,0,.544,0l2.534-2.9A.361.361,0,0,0,133.757,5.28Z" transform="translate(-127.998)" fill="#aaa"/>
      </g>
    </g>
    <g id="Group_1477" data-name="Group 1477" transform="translate(16 7.964)">
      <g id="Group_1476" data-name="Group 1476" transform="translate(0)">
        <path id="Path_5939" data-name="Path 5939" d="M25.412,352v2.172H17.448V352H16v2.9a.724.724,0,0,0,.724.724h9.412a.723.723,0,0,0,.724-.724V352Z" transform="translate(-16 -352)" fill="#aaa"/>
      </g>
    </g>
  </g>
</svg>
