<?xml version="1.0"?>
<svg xmlns="http://www.w3.org/2000/svg" id="Capa_1" enable-background="new 0 0 512 512" height="512px" viewBox="0 0 512 512" width="512px"><g><g><path d="m279.925 201.414c5.523 0 10-4.477 10-10v-39.713c0-5.523-4.477-10-10-10s-10 4.477-10 10v39.713c0 5.523 4.477 10 10 10z" data-original="#000000" class="active-path" data-old_color="#000000" fill="#FFFFFF"/><path d="m279.925 121.563c5.523 0 10-4.477 10-10v-.057c0-5.523-4.477-9.972-10-9.972s-10 4.505-10 10.028 4.477 10.001 10 10.001z" data-original="#000000" class="active-path" data-old_color="#000000" fill="#FFFFFF"/><path d="m455 0h-385.641c-12.329 0-22.359 10.03-22.359 22.359v441.969c0 26.286 21.386 47.672 47.674 47.672h360.326c5.523 0 10-4.477 10-10v-492c0-5.523-4.477-10-10-10zm-388 22.359c0-1.279 1.081-2.359 2.359-2.359h42.103v396.628h-16.788c-10.31 0-19.866 3.292-27.674 8.879zm378 394.269h-153.14c-5.523 0-10 4.477-10 10s4.477 10 10 10h153.14v55.372h-350.326c-15.259 0-27.674-12.414-27.674-27.672 0-15.273 12.415-27.7 27.674-27.7h107.381c5.523 0 10-4.477 10-10s-4.477-10-10-10h-70.592v-396.628h313.537z" data-original="#000000" class="active-path" data-old_color="#000000" fill="#FFFFFF"/><path d="m279.925 246.654c52.485 0 95.185-42.71 95.185-95.208 0-52.482-42.7-95.18-95.185-95.18s-95.185 42.697-95.185 95.18c.001 52.498 42.7 95.208 95.185 95.208zm0-170.387c41.457 0 75.185 33.726 75.185 75.18 0 41.47-33.728 75.208-75.185 75.208s-75.185-33.738-75.185-75.208c.001-41.455 33.728-75.18 75.185-75.18z" data-original="#000000" class="active-path" data-old_color="#000000" fill="#FFFFFF"/><path d="m197.944 371.886h154.891c9.203 0 16.69-7.487 16.69-16.69v-42.264c0-9.187-7.487-16.661-16.69-16.661h-154.891c-9.188 0-16.662 7.474-16.662 16.661v42.264c.001 9.203 7.475 16.69 16.662 16.69zm3.339-55.615h148.243v35.615h-148.243z" data-original="#000000" class="active-path" data-old_color="#000000" fill="#FFFFFF"/><path d="m246.957 416.628c-5.523 0-10 4.477-10 10s4.477 10 10 10h.057c5.523 0 9.972-4.477 9.972-10s-4.506-10-10.029-10z" data-original="#000000" class="active-path" data-old_color="#000000" fill="#FFFFFF"/></g></g> </svg>
