<svg xmlns="http://www.w3.org/2000/svg" width="85.948" height="80.948" viewBox="0 0 85.948 80.948">
  <path id="Path_5084" data-name="Path 5084" d="M897.79,115.366a23.162,23.162,0,0,0-8.5,5.521,22.178,22.178,0,0,0-4.375,8.12c-3.8,11.717-1.63,25.016,4.572,35.6s16.133,18.561,27.143,23.565c5.709,2.594,11.89,4.464,18.122,4.07,10.883-.688,20.31-8.145,27.3-16.727,2.625-3.222,5.057-6.729,6.236-10.75s.946-8.657-1.439-12.07c-1.607-2.3-4.013-3.851-6.316-5.41q-3.645-2.467-7.145-5.152a61.341,61.341,0,0,1-17.824-21.982c-1.979-4.09-6.5-6.57-10.608-7.687C916.04,110.041,906.351,111.814,897.79,115.366Z" transform="translate(-883.033 -111.348)" fill="#eee"/>
</svg>
