<svg xmlns="http://www.w3.org/2000/svg" width="64.668" height="54.006" viewBox="0 0 64.668 54.006">
  <g id="left-quote" transform="translate(0 -7.858)">
    <g id="Group_1038" data-name="Group 1038" transform="translate(0 7.858)">
      <path id="Path_5154" data-name="Path 5154" d="M20.7,32.333a17.135,17.135,0,0,0-4.735-.691,14.879,14.879,0,0,0-5.937,1.216c1.492-5.463,5.077-14.89,12.219-15.952a1.7,1.7,0,0,0,1.384-1.22L25.19,10.1a1.7,1.7,0,0,0-1.4-2.137,11.855,11.855,0,0,0-1.6-.109c-8.572,0-17.062,8.947-20.644,21.758-2.1,7.516-2.719,18.816,2.46,25.928,2.9,3.98,7.127,6.105,12.569,6.317h.066A15.045,15.045,0,0,0,20.7,32.333Z" transform="translate(0 -7.858)" fill="#262c38"/>
      <path id="Path_5155" data-name="Path 5155" d="M78.368,39.438a15.08,15.08,0,0,0-9.045-7.1,17.134,17.134,0,0,0-4.734-.691,14.883,14.883,0,0,0-5.937,1.216c1.492-5.463,5.077-14.89,12.22-15.952a1.7,1.7,0,0,0,1.384-1.22L73.816,10.1a1.7,1.7,0,0,0-1.4-2.137,11.84,11.84,0,0,0-1.6-.109c-8.572,0-17.062,8.947-20.645,21.758-2.1,7.516-2.719,18.816,2.462,25.93,2.9,3.979,7.127,6.105,12.568,6.317h.067a15.045,15.045,0,0,0,13.1-22.426Z" transform="translate(-15.641 -7.858)" fill="#262c38"/>
    </g>
  </g>
</svg>
