<svg id="share" xmlns="http://www.w3.org/2000/svg" width="28.725" height="30.471" viewBox="0 0 28.725 30.471">
  <path id="Path_2282" data-name="Path 2282" d="M37.071,19.576A5.453,5.453,0,0,0,32.756,21.7l-8.371-4.676a5.466,5.466,0,0,0,.3-1.8,5.346,5.346,0,0,0-.31-1.8l8.364-4.669a5.442,5.442,0,1,0-1.126-3.309,5.319,5.319,0,0,0,.31,1.8L23.569,11.92a5.443,5.443,0,1,0,.013,6.612l8.364,4.676a5.445,5.445,0,1,0,5.125-3.632Zm0-17.861a3.739,3.739,0,1,1-3.739,3.739A3.743,3.743,0,0,1,37.071,1.715ZM19.254,18.969a3.739,3.739,0,1,1,3.739-3.739A3.743,3.743,0,0,1,19.254,18.969Zm17.817,9.788a3.739,3.739,0,1,1,3.739-3.739A3.743,3.743,0,0,1,37.071,28.757Z" transform="translate(-13.8)" fill="#f7a600"/>
</svg>
