<svg id="icon-warning-outline" width="30" height="26" viewBox="0 0 30 26" xmlns="http://www.w3.org/2000/svg"
     fill="currentColor">
    <path clip-rule="evenodd"
          d="M14.3038 0.0714362C13.8427 0.20086 13.4475 0.435019 13.1093 0.779073C12.8804 1.01194 11.3862 3.4439 6.65855 11.2785C3.27454 16.8864 0.413788 21.6642 0.301429 21.8958C0.0297977 22.4556 -0.0531812 22.9499 0.0320848 23.5009C0.195814 24.5587 0.978689 25.4254 2.01414 25.6951C2.31902 25.7745 3.83252 25.785 15.0014 25.785C28.8402 25.785 27.9635 25.8067 28.6231 25.4477C29.034 25.2241 29.5121 24.722 29.7239 24.2918C30.0885 23.5512 30.0921 22.716 29.7341 21.9577C29.4938 21.4486 17.257 1.17321 17.0376 0.920636C16.765 0.606723 16.3266 0.297326 15.9537 0.155764C15.5132 -0.0115427 14.74 -0.0510676 14.3038 0.0714362ZM15.2828 1.99995C15.3699 2.04528 15.4967 2.14421 15.5645 2.21986C15.7642 2.44258 27.964 22.7165 28.0239 22.9251C28.0953 23.1743 28.0093 23.43 27.7802 23.6495L27.6018 23.8205H15.0014H2.40094L2.22255 23.6495C1.98757 23.4244 1.89386 23.1413 1.9762 22.9052C2.04123 22.7186 14.2449 2.4407 14.4091 2.24636C14.5488 2.08093 14.8367 1.91802 14.9896 1.91779C15.0638 1.91767 15.1957 1.95462 15.2828 1.99995ZM14.481 8.10421C14.2037 8.1907 13.9257 8.42087 13.794 8.67315C13.6834 8.88479 13.685 9.99595 13.7996 12.5905C13.8488 13.7032 13.909 15.1196 13.9335 15.738C13.9824 16.9705 13.9928 17.0042 14.3855 17.2104C14.641 17.3445 15.2667 17.3386 15.5759 17.1992C16.0064 17.0052 16.0382 16.8983 16.0832 15.4933C16.105 14.8159 16.1605 13.4569 16.2066 12.4732C16.3088 10.2942 16.316 8.87746 16.2258 8.70154C15.936 8.13634 15.1933 7.88207 14.481 8.10421ZM14.7162 18.6353C14.1144 18.7532 13.6565 19.334 13.6539 19.9826C13.649 21.2202 15.171 21.8382 16.0063 20.9377C16.2778 20.6449 16.3755 20.3913 16.3753 19.9794C16.3749 19.0815 15.6084 18.4605 14.7162 18.6353Z"
          fill="currentColor"
    />
</svg>
