<svg xmlns="http://www.w3.org/2000/svg" xmlns:xlink="http://www.w3.org/1999/xlink" width="224" zoomAndPan="magnify" viewBox="0 0 168 83.999999" height="112" preserveAspectRatio="xMidYMid meet" version="1.0"><defs><g/></defs><g fill="#f3f6f9" fill-opacity="1"><g transform="translate(25.254334, 51.376301)"><g><path d="M 18.4375 0 L 13.53125 0 L 5.609375 -13.765625 L 5.5 -13.765625 C 5.65625 -11.335938 5.734375 -9.601562 5.734375 -8.5625 L 5.734375 0 L 2.296875 0 L 2.296875 -18.203125 L 7.15625 -18.203125 L 15.0625 -4.5625 L 15.15625 -4.5625 C 15.03125 -6.9375 14.96875 -8.613281 14.96875 -9.59375 L 14.96875 -18.203125 L 18.4375 -18.203125 Z M 18.4375 0 "/></g></g></g><g fill="#f3f6f9" fill-opacity="1"><g transform="translate(59.041612, 51.376301)"><g><path d="M 10 0 L 5.609375 -14.28125 L 5.5 -14.28125 C 5.65625 -11.375 5.734375 -9.4375 5.734375 -8.46875 L 5.734375 0 L 2.296875 0 L 2.296875 -18.203125 L 7.546875 -18.203125 L 11.859375 -4.28125 L 11.921875 -4.28125 L 16.5 -18.203125 L 21.75 -18.203125 L 21.75 0 L 18.15625 0 L 18.15625 -8.609375 C 18.15625 -9.015625 18.160156 -9.484375 18.171875 -10.015625 C 18.179688 -10.546875 18.238281 -11.957031 18.34375 -14.25 L 18.234375 -14.25 L 13.53125 0 Z M 10 0 "/></g></g></g><g fill="#f3f6f9" fill-opacity="1"><g transform="translate(96.140901, 51.376301)"><g><path d="M 17.203125 0 L 13.359375 0 L 13.359375 -7.859375 L 6.15625 -7.859375 L 6.15625 0 L 2.296875 0 L 2.296875 -18.203125 L 6.15625 -18.203125 L 6.15625 -11.0625 L 13.359375 -11.0625 L 13.359375 -18.203125 L 17.203125 -18.203125 Z M 17.203125 0 "/></g></g></g><g fill="#f3f6f9" fill-opacity="1"><g transform="translate(128.707958, 51.376301)"><g><path d="M 13.03125 -5.0625 C 13.03125 -3.414062 12.4375 -2.117188 11.25 -1.171875 C 10.070312 -0.222656 8.429688 0.25 6.328125 0.25 C 4.378906 0.25 2.660156 -0.113281 1.171875 -0.84375 L 1.171875 -4.4375 C 2.398438 -3.882812 3.4375 -3.492188 4.28125 -3.265625 C 5.132812 -3.046875 5.914062 -2.9375 6.625 -2.9375 C 7.46875 -2.9375 8.113281 -3.097656 8.5625 -3.421875 C 9.019531 -3.742188 9.25 -4.226562 9.25 -4.875 C 9.25 -5.226562 9.148438 -5.539062 8.953125 -5.8125 C 8.753906 -6.09375 8.460938 -6.363281 8.078125 -6.625 C 7.691406 -6.882812 6.90625 -7.296875 5.71875 -7.859375 C 4.601562 -8.378906 3.765625 -8.878906 3.203125 -9.359375 C 2.648438 -9.835938 2.207031 -10.394531 1.875 -11.03125 C 1.539062 -11.675781 1.375 -12.425781 1.375 -13.28125 C 1.375 -14.894531 1.921875 -16.160156 3.015625 -17.078125 C 4.109375 -18.003906 5.617188 -18.46875 7.546875 -18.46875 C 8.492188 -18.46875 9.394531 -18.351562 10.25 -18.125 C 11.113281 -17.90625 12.015625 -17.59375 12.953125 -17.1875 L 11.703125 -14.1875 C 10.734375 -14.582031 9.929688 -14.859375 9.296875 -15.015625 C 8.660156 -15.171875 8.035156 -15.25 7.421875 -15.25 C 6.691406 -15.25 6.128906 -15.078125 5.734375 -14.734375 C 5.347656 -14.398438 5.15625 -13.957031 5.15625 -13.40625 C 5.15625 -13.070312 5.234375 -12.773438 5.390625 -12.515625 C 5.546875 -12.265625 5.796875 -12.019531 6.140625 -11.78125 C 6.484375 -11.550781 7.300781 -11.128906 8.59375 -10.515625 C 10.289062 -9.691406 11.453125 -8.867188 12.078125 -8.046875 C 12.710938 -7.234375 13.03125 -6.238281 13.03125 -5.0625 Z M 13.03125 -5.0625 "/></g></g></g></svg>