<svg width="31" height="31" viewBox="0 0 31 31" fill="none" xmlns="http://www.w3.org/2000/svg">
<path d="M15.5 0C6.94012 0 0 6.94012 0 15.5C0 24.0599 6.94012 31 15.5 31C24.0599 31 31 24.0599 31 15.5C31 6.93821 24.0599 0 15.5 0ZM25.0228 18.97C24.9181 20.2604 23.9378 21.9073 22.568 22.1456C18.1795 22.4866 12.9793 22.444 8.43394 22.1456C7.01571 21.9673 6.08372 20.2585 5.97913 18.97C5.75823 16.2614 5.75823 14.7192 5.97913 12.0105C6.08379 10.7221 7.03898 9.02291 8.43394 8.8679C12.927 8.49009 18.1563 8.57148 22.568 8.8679C24.1451 8.92603 24.9182 10.5516 25.0228 11.842C25.2398 14.5506 25.2398 16.2614 25.0228 18.97Z" fill="white"/>
<path d="M13.5625 19.375L19.375 15.5L13.5625 11.625V19.375Z" fill="white"/>
</svg>
