<svg width="100" height="100" viewBox="0 0 100 100" fill="none" xmlns="http://www.w3.org/2000/svg">
<g clip-path="url(#clip0_2_13)">
<rect width="100" height="100" fill="white"/>
<g clip-path="url(#clip1_2_13)">
<g opacity="0.6" filter="url(#filter0_f_2_13)">
<path d="M50.6017 49.1718L59.9573 44.9599L50.6017 40.7609L56.5994 32.4405L46.4092 33.5274L47.4444 23.2919L39.1563 29.3414L34.9379 19.9858L30.7842 29.3478L22.4573 23.3502L23.5313 33.5339L13.3282 32.5052L19.3517 40.7932L9.99612 44.9987L19.3517 49.1718L13.354 57.4858L23.5443 56.4117L22.5091 66.6408L30.7971 60.5978L35.0091 69.9534L39.1693 60.5914L47.4961 66.589L46.4221 56.4053L56.6253 57.434L50.6017 49.1718Z" fill="#E6E6E6"/>
<path d="M50.6017 49.1718L59.9573 44.9599L50.6017 40.7609L56.5994 32.4405L46.4092 33.5274L47.4444 23.2919L39.1563 29.3414L34.9379 19.9858L30.7842 29.3478L22.4573 23.3502L23.5313 33.5339L13.3282 32.5052L19.3517 40.7932L9.99612 44.9987L19.3517 49.1718L13.354 57.4858L23.5443 56.4117L22.5091 66.6408L30.7971 60.5978L35.0091 69.9534L39.1693 60.5914L47.4961 66.589L46.4221 56.4053L56.6253 57.434L50.6017 49.1718Z" fill="#E6E6E6"/>
</g>
</g>
<path d="M69.7231 55.2769L81.5385 49.9615L69.7231 44.7077L77.2923 34.2L64.4538 35.5538L65.7615 22.6692L55.2769 30.3077L49.9615 18.4615L44.7077 30.3077L34.2 22.7077L35.5538 35.5692L22.6692 34.2615L30.2692 44.7231L18.4615 50.0385L30.2769 55.2923L22.7077 65.8L35.5692 64.4461L34.2615 77.3308L44.7231 69.7231L50.0385 81.5385L55.2923 69.7231L65.8 77.2923L64.4538 64.4308L77.3385 65.7385L69.7231 55.2769Z" fill="url(#paint0_radial_2_13)"/>
<path d="M33.2923 59.6154C35.195 62.9083 38.0312 65.5631 41.4426 67.2443C44.8539 68.9254 48.6871 69.5573 52.4576 69.0601C56.228 68.5629 59.7663 66.9589 62.6253 64.4509C65.4842 61.943 67.5353 58.6436 68.5193 54.9701C69.5033 51.2965 69.376 47.4136 68.1535 43.8124C66.9309 40.2112 64.6681 37.0533 61.651 34.738C58.6339 32.4228 54.998 31.054 51.2031 30.8049C47.4082 30.5558 43.6246 31.4375 40.3308 33.3384C38.1428 34.6012 36.225 36.2827 34.6871 38.2868C33.1491 40.291 32.0211 42.5785 31.3675 45.0187C30.7138 47.4589 30.5474 50.004 30.8777 52.5085C31.208 55.0131 32.0285 57.428 33.2923 59.6154Z" fill="#FFD348"/>
<path d="M35.9923 58.0769C37.5899 60.8436 39.9719 63.0744 42.8372 64.4873C45.7025 65.9002 48.9224 66.4318 52.0898 66.0148C55.2572 65.5979 58.2299 64.2511 60.6319 62.1448C63.0339 60.0384 64.7574 57.2672 65.5846 54.1814C66.4117 51.0956 66.3052 47.8338 65.2787 44.8085C64.2521 41.7832 62.3515 39.1302 59.8173 37.185C57.283 35.2397 54.2289 34.0897 51.041 33.8801C47.8532 33.6706 44.6748 34.411 41.9077 36.0077C40.07 37.0682 38.4592 38.4803 37.1673 40.1633C35.8754 41.8464 34.9277 43.7675 34.3784 45.8169C33.8291 47.8663 33.6889 50.0039 33.9658 52.1075C34.2427 54.2111 34.9313 56.2395 35.9923 58.0769Z" fill="url(#paint1_linear_2_13)"/>
<path d="M69.7231 55.2769L81.5385 49.9615L69.7231 44.7077L77.2923 34.2L64.4538 35.5538L65.7615 22.6692L55.2769 30.3077L49.9615 18.4615L44.7077 30.3077L34.2 22.7077L35.5538 35.5692L22.6692 34.2615L30.2692 44.7231L18.4615 50.0385L30.2769 55.2923L22.7077 65.8L35.5692 64.4461L34.2615 77.3308L44.7231 69.7231L50.0385 81.5385L55.2923 69.7231L65.8 77.2923L64.4538 64.4308L77.3385 65.7385L69.7231 55.2769Z" stroke="#F29B1C" stroke-width="2" stroke-miterlimit="10"/>
</g>
<defs>
<filter id="filter0_f_2_13" x="-10.0039" y="-0.0142365" width="89.9612" height="89.9677" filterUnits="userSpaceOnUse" color-interpolation-filters="sRGB">
<feFlood flood-opacity="0" result="BackgroundImageFix"/>
<feBlend mode="normal" in="SourceGraphic" in2="BackgroundImageFix" result="shape"/>
<feGaussianBlur stdDeviation="10" result="effect1_foregroundBlur_2_13"/>
</filter>
<radialGradient id="paint0_radial_2_13" cx="0" cy="0" r="1" gradientUnits="userSpaceOnUse" gradientTransform="translate(50 50) scale(31.5385)">
<stop offset="0.51" stop-color="#D6B849"/>
<stop offset="0.65" stop-color="#FFCE47"/>
<stop offset="1" stop-color="#FFDB73"/>
</radialGradient>
<linearGradient id="paint1_linear_2_13" x1="39.5616" y1="37.6231" x2="60.3385" y2="62.3769" gradientUnits="userSpaceOnUse">
<stop stop-color="#FFAF22"/>
<stop offset="0.99" stop-color="#F09900"/>
</linearGradient>
<clipPath id="clip0_2_13">
<rect width="100" height="100" fill="white"/>
</clipPath>
<clipPath id="clip1_2_13">
<rect width="100" height="100" fill="white"/>
</clipPath>
</defs>
</svg>
