<svg width="92" height="108" viewBox="0 0 92 108" fill="none" xmlns="http://www.w3.org/2000/svg">
<g clip-path="url(#clip0_0_1)">
<g clip-path="url(#clip1_0_1)">
<g opacity="0.6" filter="url(#filter0_f_0_1)">
<path d="M68.0249 67.4117L81.5864 60.7884L68.0249 54.1855L76.7189 41.1017L61.9475 42.811L63.4481 26.7157L51.434 36.2284L45.3191 21.5168L39.298 36.2385L27.2277 26.8073L28.7846 42.8211L13.9944 41.2035L22.7259 54.2364L9.1644 60.8495L22.7259 67.4117L14.0319 80.4853L28.8033 78.7964L27.3027 94.8815L39.3168 85.379L45.4223 100.091L51.4528 85.3688L63.5231 94.8001L61.9663 78.7862L76.7564 80.4039L68.0249 67.4117Z" fill="#290F0F"/>
<path d="M68.0249 67.4117L81.5864 60.7884L68.0249 54.1855L76.7189 41.1017L61.9475 42.811L63.4481 26.7157L51.434 36.2284L45.3191 21.5168L39.298 36.2385L27.2277 26.8073L28.7846 42.8211L13.9944 41.2035L22.7259 54.2364L9.1644 60.8495L22.7259 67.4117L14.0319 80.4853L28.8033 78.7964L27.3027 94.8815L39.3168 85.379L45.4223 100.091L51.4528 85.3688L63.5231 94.8001L61.9663 78.7862L76.7564 80.4039L68.0249 67.4117Z" fill="#290F0F"/>
</g>
</g>
<path d="M67.0507 59.2549L79.97 53.4429L67.0507 47.6982L75.3271 36.2089L61.2892 37.6892L62.7191 23.6008L51.2549 31.9529L45.4429 19L39.6982 31.9529L28.2088 23.6429L29.6892 37.706L15.6008 36.2761L23.9108 47.7151L11 53.527L23.9193 59.2717L15.6429 70.7611L29.706 69.2808L28.2761 83.3692L39.7151 75.0507L45.527 87.97L51.2717 75.0507L62.7611 83.3271L61.2892 69.264L75.3776 70.6938L67.0507 59.2549Z" fill="url(#paint0_radial_0_1)"/>
<path d="M27.8207 64.5473C29.9011 68.1479 33.0024 71.0507 36.7324 72.8889C40.4625 74.7271 44.6538 75.4181 48.7765 74.8744C52.8992 74.3308 56.7681 72.5769 59.8941 69.8346C63.0202 67.0924 65.2629 63.4848 66.3388 59.468C67.4148 55.4512 67.2755 51.2056 65.9388 47.2679C64.602 43.3303 62.1278 39.8774 58.8288 37.3458C55.5298 34.8142 51.5543 33.3176 47.4048 33.0452C43.2554 32.7728 39.1183 33.7368 35.5167 35.8154C33.1243 37.1961 31.0274 39.0347 29.3458 41.2261C27.6641 43.4175 26.4307 45.9187 25.716 48.5869C25.0013 51.2551 24.8193 54.0379 25.1805 56.7765C25.5416 59.515 26.4388 62.1556 27.8207 64.5473Z" fill="#FFD348"/>
<path d="M30.3669 62.4955C32.1137 65.5206 34.7183 67.9598 37.8513 69.5047C40.9843 71.0497 44.505 71.6309 47.9683 71.175C51.4317 70.7191 54.682 69.2465 57.3085 66.9434C59.9349 64.6403 61.8195 61.6101 62.7239 58.236C63.6282 54.8619 63.5118 51.2954 62.3894 47.9874C61.2669 44.6795 59.1888 41.7786 56.4178 39.6517C53.6468 37.5247 50.3073 36.2672 46.8216 36.038C43.3359 35.8089 39.8606 36.6185 36.835 38.3644C34.8256 39.5239 33.0643 41.068 31.6517 42.9083C30.2391 44.7487 29.2029 46.8492 28.6022 49.0901C28.0016 51.331 27.8483 53.6682 28.1511 55.9684C28.4539 58.2685 29.2068 60.4864 30.3669 62.4955Z" fill="url(#paint1_linear_0_1)"/>
<path d="M67.0507 59.2549L79.97 53.4429L67.0507 47.6982L75.3271 36.2089L61.2892 37.6892L62.7191 23.6008L51.2549 31.9529L45.4429 19L39.6982 31.9529L28.2088 23.6429L29.6892 37.706L15.6008 36.2761L23.9108 47.7151L11 53.527L23.9193 59.2717L15.6429 70.7611L29.706 69.2808L28.2761 83.3692L39.7151 75.0507L45.527 87.97L51.2717 75.0507L62.7611 83.3271L61.2892 69.264L75.3776 70.6938L67.0507 59.2549Z" stroke="#F29B1C" stroke-width="2" stroke-miterlimit="10"/>
</g>
<defs>
<filter id="filter0_f_0_1" x="-10.8356" y="1.51677" width="112.422" height="118.574" filterUnits="userSpaceOnUse" color-interpolation-filters="sRGB">
<feFlood flood-opacity="0" result="BackgroundImageFix"/>
<feBlend mode="normal" in="SourceGraphic" in2="BackgroundImageFix" result="shape"/>
<feGaussianBlur stdDeviation="10" result="effect1_foregroundBlur_0_1"/>
</filter>
<radialGradient id="paint0_radial_0_1" cx="0" cy="0" r="1" gradientUnits="userSpaceOnUse" gradientTransform="translate(45.485 53.485) scale(34.485)">
<stop offset="0.51" stop-color="#D6B849"/>
<stop offset="0.65" stop-color="#FFCE47"/>
<stop offset="1" stop-color="#FFDB73"/>
</radialGradient>
<linearGradient id="paint1_linear_0_1" x1="34.2696" y1="40.1307" x2="56.9877" y2="67.1972" gradientUnits="userSpaceOnUse">
<stop stop-color="#FFAF22"/>
<stop offset="0.99" stop-color="#F09900"/>
</linearGradient>
<clipPath id="clip0_0_1">
<rect width="92" height="108" fill="white"/>
</clipPath>
<clipPath id="clip1_0_1">
<rect width="91.6796" height="107.66" fill="white"/>
</clipPath>
</defs>
</svg>
