<?xml version="1.0"?>
<svg xmlns="http://www.w3.org/2000/svg" height="512px" viewBox="0 0 512 512" width="512px" class=""><g><path d="m155.5 90h71.5c8.285156 0 15-6.714844 15-15s-6.714844-15-15-15h-71.5c-8.285156 0-15 6.714844-15 15s6.714844 15 15 15zm0 0" data-original="#000000" class="active-path" data-old_color="#000000" fill="#808080"/><path d="m155.5 150h71.367188c8.28125 0 15-6.714844 15-15s-6.71875-15-15-15h-71.367188c-8.285156 0-15 6.714844-15 15s6.714844 15 15 15zm0 0" data-original="#000000" class="active-path" data-old_color="#000000" fill="#808080"/><path d="m155.5 210h200.5c8.285156 0 15-6.714844 15-15s-6.714844-15-15-15h-200.5c-8.285156 0-15 6.714844-15 15s6.714844 15 15 15zm0 0" data-original="#000000" class="active-path" data-old_color="#000000" fill="#808080"/><path d="m371 255c0-8.285156-6.714844-15-15-15h-200.5c-8.285156 0-15 6.714844-15 15s6.714844 15 15 15h200.5c8.285156 0 15-6.714844 15-15zm0 0" data-original="#000000" class="active-path" data-old_color="#000000" fill="#808080"/><path d="m497 302h-66v-177c0-.078125-.011719-.152344-.011719-.226562-.003906-.351563-.023437-.703126-.050781-1.054688-.011719-.132812-.023438-.265625-.035156-.398438-.050782-.425781-.109375-.847656-.195313-1.265624-.027343-.136719-.0625-.269532-.09375-.402344-.066406-.289063-.140625-.578125-.222656-.863282-.050781-.179687-.109375-.355468-.167969-.535156-.082031-.25-.175781-.496094-.273437-.746094-.0625-.15625-.121094-.320312-.1875-.476562-.164063-.375-.339844-.742188-.53125-1.101562-.066407-.117188-.136719-.230469-.199219-.347657-.152344-.265625-.3125-.53125-.480469-.789062-.085937-.132813-.171875-.257813-.265625-.386719-.171875-.246094-.351562-.488281-.542968-.726562-.085938-.105469-.167969-.214844-.257813-.324219-.273437-.324219-.558594-.644531-.867187-.953125-.003907-.003906-.007813-.007813-.011719-.011719l-109.996094-109.996094c-.003906-.003906-.011719-.007812-.015625-.011719-.304688-.308593-.625-.59375-.953125-.867187-.105469-.089844-.214844-.171875-.324219-.257813-.238281-.191406-.476562-.371093-.726562-.542968-.125-.089844-.253906-.179688-.382813-.261719-.261719-.171875-.527343-.332031-.796875-.484375-.113281-.066406-.222656-.132812-.335937-.195312-.363281-.195313-.734375-.371094-1.113281-.535157-.148438-.066406-.304688-.121093-.457032-.183593-.253906-.101563-.511718-.195313-.769531-.28125-.171875-.054688-.339844-.109376-.515625-.160157-.300781-.089843-.601562-.164062-.90625-.234375-.121094-.027344-.238281-.0625-.359375-.085937-.425781-.082031-.855469-.148438-1.289063-.1953128-.117187-.0117187-.238281-.0195312-.359374-.03125-.367188-.03125-.734376-.0507812-1.105469-.0546874-.066407-.0039063-.132813-.0117188-.199219-.0117188h-210c-8.285156 0-15 6.714844-15 15v287h-66c-8.285156 0-15 6.71875-15 15v179.253906c0 8.28125 6.714844 15 15 15h482c8.285156 0 15-6.71875 15-15v-179.253906c0-8.285156-6.714844-15-15-15zm-176-250.789062 58.785156 58.789062h-58.785156zm-210-21.210938h180v95c0 8.285156 6.714844 15 15 15h95v162h-54c-8.285156 0-15 6.714844-15 15v44h-152v-44c0-8.285156-6.714844-15-15-15h-54zm371 451.25h-452v-149.25h120v44c0 8.285156 6.714844 15 15 15h182c8.285156 0 15-6.714844 15-15v-44h120zm0 0" data-original="#000000" class="active-path" data-old_color="#000000" fill="#808080"/><path d="m302 421h-92c-8.285156 0-15 6.714844-15 15 0 8.28125 6.714844 15 15 15h92c8.285156 0 15-6.71875 15-15 0-8.285156-6.714844-15-15-15zm0 0" data-original="#000000" class="active-path" data-old_color="#000000" fill="#808080"/></g> </svg>
