<?xml version="1.0" encoding="UTF-8"?>
<svg viewBox="0 0 48 48" xmlns="http://www.w3.org/2000/svg" id="icon-dam">
    <path d="M46 41.1415C44.3737 41.1053 42.7718 41.5966 41.38 42.5586C40.5616 43.1266 39.6225 43.427 38.665 43.427C37.7075 43.427 36.7684 43.1266 35.95 42.5586C34.5582 41.5966 32.9563 41.1053 31.33 41.1415C29.7006 41.1057 28.0956 41.5969 26.7 42.5586C25.9003 43.1604 24.957 43.4639 24 43.4271C23.0397 43.4654 22.0928 43.1619 21.29 42.5586C19.8938 41.5986 18.2892 41.1075 16.66 41.1415C15.0337 41.1053 13.4318 41.5966 12.04 42.5586C11.2359 43.1587 10.2899 43.4619 9.33 43.4271C8.37012 43.4619 7.42406 43.1587 6.62 42.5586C5.22819 41.5966 3.62626 41.1053 2 41.1415C1.46957 41.1415 0.960859 41.3823 0.585786 41.8109C0.210714 42.2396 0 42.8209 0 43.4271C0 44.0332 0.210714 44.6146 0.585786 45.0432C0.960859 45.4718 1.46957 45.7126 2 45.7126C2.95989 45.6777 3.90597 45.9809 4.71 46.5811C6.10183 47.543 7.70375 48.0343 9.33 47.9981C10.9563 48.0344 12.5582 47.5431 13.95 46.5811C14.7541 45.981 15.7001 45.6778 16.66 45.7126C17.6201 45.676 18.5666 45.9793 19.37 46.5811C20.7656 47.5428 22.3706 48.034 24 47.9981C25.6261 48.0326 27.2276 47.5414 28.62 46.5811C29.4366 46.0131 30.3741 45.7127 31.33 45.7127C32.2859 45.7127 33.2235 46.0131 34.04 46.5811C35.446 47.5094 37.0412 47.9982 38.665 47.9982C40.2888 47.9982 41.884 47.5094 43.29 46.5811C44.0934 45.9793 45.0399 45.676 46 45.7126C46.5304 45.7126 47.0391 45.4718 47.4142 45.0432C47.7893 44.6146 48 44.0332 48 43.4271C48 42.8209 47.7893 42.2396 47.4142 41.8109C47.0391 41.3823 46.5304 41.1415 46 41.1415ZM46 31.9994C44.3716 31.9626 42.7676 32.4556 41.375 33.421C40.557 33.9861 39.6194 34.2849 38.6635 34.2849C37.7076 34.2849 36.77 33.9861 35.952 33.421C34.5592 32.4554 32.9548 31.9624 31.326 31.9994C29.6982 31.9625 28.0948 32.4555 26.703 33.421C25.8988 34.0185 24.9537 34.3201 23.995 34.2849C23.036 34.32 22.0906 34.0185 21.286 33.421C19.8934 32.4556 18.2894 31.9626 16.661 31.9994C15.0329 31.9627 13.4292 32.4557 12.037 33.421C11.2331 34.0183 10.2884 34.3198 9.33 34.2849C8.37204 34.3201 7.42766 34.019 6.624 33.4221C5.23213 32.4558 3.62827 31.9624 2 31.9994C1.46957 31.9994 0.960859 32.2402 0.585786 32.6688C0.210714 33.0974 0 33.6788 0 34.2849C0 34.8911 0.210714 35.4724 0.585786 35.9011C0.960859 36.3297 1.46957 36.5705 2 36.5705C2.95839 36.5355 3.90314 36.837 4.707 37.4344C6.09847 38.3997 7.70152 38.8928 9.329 38.856C10.9571 38.8927 12.5608 38.3997 13.953 37.4344C14.7572 36.8369 15.7023 36.5354 16.661 36.5705C17.6204 36.5352 18.5662 36.8367 19.371 37.4344C20.763 38.3993 22.3662 38.8924 23.994 38.856C25.6222 38.8927 27.226 38.3992 28.618 37.4333C29.4355 36.8682 30.3726 36.5695 31.328 36.5695C32.2834 36.5695 33.2205 36.8682 34.038 37.4333C35.4432 38.3644 37.0387 38.8548 38.663 38.8548C40.2873 38.8548 41.8828 38.3644 43.288 37.4333C44.0937 36.8359 45.0401 36.5348 46 36.5705C46.5304 36.5705 47.0391 36.3297 47.4142 35.9011C47.7893 35.4724 48 34.8911 48 34.2849C48 33.6788 47.7893 33.0974 47.4142 32.6688C47.0391 32.2402 46.5304 31.9994 46 31.9994Z"/>
    <path d="M8 5C8 4.44772 8.44772 4 9 4H11.7143C12.2666 4 12.7143 4.44772 12.7143 5V5H22.1429V5C22.1429 4.44772 22.5906 4 23.1429 4H25.8571C26.4094 4 26.8571 4.44772 26.8571 5V5H36.2857V5C36.2857 4.44772 36.7334 4 37.2857 4H40C40.5523 4 41 4.44772 41 5V7H8V5Z"/>
    <path d="M8 7H41L44.7739 26.8129C44.8913 27.4291 44.4189 28 43.7915 28H38.8828C38.3785 28 37.9531 27.6245 37.8905 27.124L36 12H32L30.1095 27.124C30.0469 27.6245 29.6215 28 29.1172 28H19.8828C19.3785 28 18.9531 27.6245 18.8905 27.124L17 12H13L10.9506 27.1342C10.8834 27.6301 10.46 28 9.95962 28H5.20846C4.58115 28 4.10874 27.4291 4.22612 26.8129L8 7Z"/>
    <path d="M13.9414 14.9376C13.9743 14.4106 14.4114 14 14.9395 14H15.0605C15.5886 14 16.0257 14.4106 16.0586 14.9376L16.9336 28.9376C16.9696 29.5133 16.5124 30 15.9355 30H14.0645C13.4876 30 13.0304 29.5133 13.0664 28.9376L13.9414 14.9376Z"/>
    <path d="M32.9414 14.9376C32.9743 14.4106 33.4114 14 33.9395 14H34.0606C34.5886 14 35.0257 14.4106 35.0586 14.9376L35.9336 28.9376C35.9696 29.5133 35.5124 30 34.9356 30H33.0645C32.4876 30 32.0304 29.5133 32.0664 28.9376L32.9414 14.9376Z">
</svg>
