<?xml version="1.0" encoding="UTF-8"?>
<svg viewBox="0 0 48 48" xmlns="http://www.w3.org/2000/svg" id="icon-dust-storm">
    <path d="M37.5 4C34.8007 4.00037 32.205 5.03886 30.2504 6.90041C28.2958 8.76197 27.132 11.304 27 14H27.009C27.009 14.015 27 14.028 27 14.043V15C27 15.5304 27.2107 16.0391 27.5858 16.4142C27.9609 16.7893 28.4696 17 29 17C29.5304 17 30.0391 16.7893 30.4142 16.4142C30.7893 16.0391 31 15.5304 31 15V14C31.0953 12.7373 31.5568 11.5298 32.328 10.5254C33.0992 9.52097 34.1466 8.76329 35.3419 8.34515C36.5372 7.92701 37.8285 7.86655 39.0576 8.17119C40.2868 8.47582 41.4003 9.13232 42.262 10.0603C43.1237 10.9882 43.696 12.1473 43.9089 13.3956C44.1218 14.6439 43.966 15.9272 43.4605 17.0883C42.9551 18.2494 42.122 19.2378 41.0634 19.9326C40.0047 20.6274 38.7663 20.9984 37.5 21H1.974C1.71473 20.9999 1.45798 21.0508 1.21843 21.15C0.978872 21.2492 0.761207 21.3945 0.577878 21.5779C0.394549 21.7612 0.249151 21.9789 0.149994 22.2184C0.0508381 22.458 -0.000131187 22.7147 2.53573e-07 22.974V23.027C2.20283e-07 23.2862 0.0510665 23.5428 0.150282 23.7823C0.249497 24.0217 0.394916 24.2393 0.578232 24.4225C0.761548 24.6057 0.979168 24.751 1.21866 24.8501C1.45815 24.9492 1.71482 25.0001 1.974 25H37.5C40.2848 25 42.9555 23.8938 44.9246 21.9246C46.8938 19.9555 48 17.2848 48 14.5C48 11.7152 46.8938 9.04451 44.9246 7.07538C42.9555 5.10625 40.2848 4 37.5 4Z"/>
    <path d="M1.94 18H16C17.78 18 19.5201 17.4722 21.0001 16.4832C22.4802 15.4943 23.6337 14.0887 24.3149 12.4442C24.9961 10.7996 25.1743 8.99002 24.8271 7.24419C24.4798 5.49836 23.6226 3.89472 22.364 2.63604C21.1053 1.37737 19.5016 0.520203 17.7558 0.172937C16.01 -0.17433 14.2004 0.00389957 12.5558 0.685088C10.9113 1.36628 9.50571 2.51983 8.51677 3.99987C7.52784 5.47991 7 7.21997 7 9H7.009C7.009 9.015 7 9.028 7 9.043V10C7 10.5304 7.21071 11.0391 7.58579 11.4142C7.96086 11.7893 8.46957 12 9 12C9.53043 12 10.0391 11.7893 10.4142 11.4142C10.7893 11.0391 11 10.5304 11 10V9C11 8.0111 11.2932 7.0444 11.8427 6.22215C12.3921 5.39991 13.173 4.75904 14.0866 4.38061C15.0002 4.00217 16.0055 3.90315 16.9755 4.09608C17.9454 4.289 18.8363 4.76521 19.5355 5.46447C20.2348 6.16373 20.711 7.05465 20.9039 8.02455C21.0969 8.99446 20.9978 9.99979 20.6194 10.9134C20.241 11.8271 19.6001 12.6079 18.7779 13.1574C17.9556 13.7068 16.9889 14 16 14H1.94C1.42548 14 0.932034 14.2044 0.568213 14.5682C0.204393 14.932 2.53573e-07 15.4255 2.53573e-07 15.94V16.06C2.53573e-07 16.5745 0.204393 17.068 0.568213 17.4318C0.932034 17.7956 1.42548 18 1.94 18ZM28 28H2C1.46957 28 0.960859 28.2107 0.585787 28.5858C0.210714 28.9609 2.53573e-07 29.4696 2.53573e-07 30C2.53573e-07 30.5304 0.210714 31.0391 0.585787 31.4142C0.960859 31.7893 1.46957 32 2 32H28C29.1867 32 30.3467 32.3519 31.3334 33.0112C32.3201 33.6705 33.0892 34.6075 33.5433 35.7039C33.9974 36.8003 34.1162 38.0067 33.8847 39.1705C33.6532 40.3344 33.0818 41.4035 32.2426 42.2426C31.4035 43.0818 30.3344 43.6532 29.1705 43.8847C28.0067 44.1162 26.8003 43.9974 25.7039 43.5433C24.6075 43.0892 23.6705 42.3201 23.0112 41.3334C22.3519 40.3467 22 39.1867 22 38V37C22 36.4696 21.7893 35.9609 21.4142 35.5858C21.0391 35.2107 20.5304 35 20 35C19.4696 35 18.9609 35.2107 18.5858 35.5858C18.2107 35.9609 18 36.4696 18 37V37.957C18 37.972 18.008 37.985 18.009 38H18C18 39.9778 18.5865 41.9112 19.6853 43.5557C20.7841 45.2002 22.3459 46.4819 24.1732 47.2388C26.0004 47.9957 28.0111 48.1937 29.9509 47.8079C31.8907 47.422 33.6725 46.4696 35.0711 45.0711C36.4696 43.6725 37.422 41.8907 37.8079 39.9509C38.1937 38.0111 37.9957 36.0004 37.2388 34.1732C36.4819 32.3459 35.2002 30.7841 33.5557 29.6853C31.9112 28.5865 29.9778 28 28 28Z"/>
    <path d="M9 37C9 38.6569 7.65685 40 6 40C4.34315 40 3 38.6569 3 37C3 35.3431 4.34315 34 6 34C7.65685 34 9 35.3431 9 37Z"/>
    <path d="M41 14C41 15.6569 39.6569 17 38 17C36.3431 17 35 15.6569 35 14C35 12.3431 36.3431 11 38 11C39.6569 11 41 12.3431 41 14Z"/>
    <path d="M46 30C46 31.6569 44.6569 33 43 33C41.3431 33 40 31.6569 40 30C40 28.3431 41.3431 27 43 27C44.6569 27 46 28.3431 46 30Z"/>
</svg>
