<svg viewBox="0 0 40 37" id="icon-empty-tray" xmlns="http://www.w3.org/2000/svg">
    <path d="M7.08902 12.4558C6.98573 12.4984 6.82085 12.6226 6.72254 12.7319C6.62432 12.8411 5.07155 15.4342 3.2721 18.4942L0.000348842 24.0578L6.69474e-05 29.7198C-0.000214744 35.9317 -0.0137359 35.7783 0.56007 36.075C0.803639 36.2009 3.05351 36.2175 19.9999 36.2175C36.9463 36.2175 39.1961 36.2009 39.4397 36.075C40.0134 35.7783 40 35.9309 40 29.7266V24.0716L36.8779 18.5248C35.1607 15.4741 33.643 12.8512 33.5053 12.6963L33.2548 12.4145L20.2658 12.3965C13.1218 12.3866 7.19231 12.4133 7.08902 12.4558ZM34.5137 18.8934C35.8252 21.2174 36.8989 23.1505 36.8998 23.1892C36.9006 23.2279 34.8719 23.2597 32.3913 23.2597C27.479 23.2597 27.4148 23.266 27.073 23.7873C26.9307 24.0042 26.8958 24.287 26.8692 25.4383L26.8372 26.8277H13.1454L13.1401 25.5836C13.1342 24.1956 13.0389 23.795 12.6457 23.5032C12.3873 23.3115 12.2653 23.3055 7.74001 23.2597L3.09942 23.2127L5.49962 19.1282C6.81982 16.8817 7.96151 14.9484 8.03682 14.832L8.17363 14.6204L32.1294 14.6681L34.5137 18.8934Z"/>
    <path d="M9.1113 5.13103C8.69463 4.63447 8.7594 3.89414 9.25596 3.47747C9.75253 3.0608 10.4929 3.12557 10.9095 3.62214L13.022 6.13966C13.4387 6.63623 13.3739 7.37656 12.8773 7.79323C12.3808 8.2099 11.6404 8.14513 11.2238 7.64856L9.1113 5.13103Z"/>
    <path d="M18.8733 1.17371C18.8733 0.52549 19.3988 0 20.047 0C20.6953 0 21.2208 0.52549 21.2208 1.17371V4.46011C21.2208 5.10834 20.6953 5.63383 20.047 5.63383C19.3988 5.63383 18.8733 5.10834 18.8733 4.46011V1.17371Z"/>
    <path d="M29.1581 3.62213C29.5748 3.12557 30.3151 3.0608 30.8117 3.47747C31.3082 3.89414 31.373 4.63446 30.9563 5.13103L28.8439 7.64856C28.4272 8.14513 27.6869 8.2099 27.1903 7.79323C26.6938 7.37656 26.629 6.63623 27.0457 6.13966L29.1581 3.62213Z"/>
</svg>
