<?xml version="1.0" encoding="UTF-8" standalone="no"?>
<!-- Created with Inkscape (http://www.inkscape.org/) -->

<svg
   version="1.1"
   id="svg2982"
   xml:space="preserve"
   width="682.66669"
   height="682.66669"
   viewBox="0 0 682.66669 682.66669"
   xmlns="http://www.w3.org/2000/svg"
   xmlns:svg="http://www.w3.org/2000/svg"><defs
     id="defs2986"><clipPath
       clipPathUnits="userSpaceOnUse"
       id="clipPath2996"><path
         d="M 0,512 H 512 V 0 H 0 Z"
         id="path2994" /></clipPath></defs><g
     id="g2988"
     transform="matrix(1.3333333,0,0,-1.3333333,0,682.66667)"><g
       id="g2990"><g
         id="g2992"
         clip-path="url(#clipPath2996)"><g
           id="g2998"
           transform="translate(354.1885,7.5)"><path
             d="M 0,0 H 105.312"
             style="fill:none;stroke:currentColor;stroke-width:15;stroke-linecap:round;stroke-linejoin:round;stroke-miterlimit:10;stroke-dasharray:none;stroke-opacity:1"
             id="path3000" /></g><g
           id="g3002"
           transform="translate(52.5,7.5)"><path
             d="M 0,0 H 257.327"
             style="fill:none;stroke:currentColor;stroke-width:15;stroke-linecap:round;stroke-linejoin:round;stroke-miterlimit:10;stroke-dasharray:none;stroke-opacity:1"
             id="path3004" /></g><g
           id="g3006"
           transform="translate(412.9521,7.5)"><path
             d="m 0,0 v 20.729 c 0,20.291 -16.449,36.74 -36.74,36.74 h -19.821 v 11.336 c 0,20.292 -16.449,36.741 -36.741,36.741 h -127.301 c -20.292,0 -36.741,-16.449 -36.741,-36.741 V 57.469 h -19.82 c -20.291,0 -36.74,-16.449 -36.74,-36.74 V 0"
             style="fill:none;stroke:currentColor;stroke-width:15;stroke-linecap:round;stroke-linejoin:round;stroke-miterlimit:10;stroke-dasharray:none;stroke-opacity:1"
             id="path3008" /></g><g
           id="g3010"
           transform="translate(380.9248,228.5991)"><path
             d="m 0,0 c -0.852,-0.502 -1.709,-0.988 -2.572,-1.458 -57.571,-31.396 -107.912,53.41 -52.545,88.518 0.829,0.524 1.668,1.038 2.519,1.539 47.647,28.058 112.571,6.504 112.571,6.504 C 59.973,95.103 47.646,28.058 0,0 Z"
             style="fill:none;stroke:currentColor;stroke-width:15;stroke-linecap:round;stroke-linejoin:round;stroke-miterlimit:10;stroke-dasharray:none;stroke-opacity:1"
             id="path3012" /></g><g
           id="g3014"
           transform="translate(256.8047,113.0815)"><path
             d="M 0,0 C 0,101.234 57.497,147.619 124.182,177.089"
             style="fill:none;stroke:currentColor;stroke-width:15;stroke-linecap:round;stroke-linejoin:round;stroke-miterlimit:10;stroke-dasharray:none;stroke-opacity:1"
             id="path3016" /></g><g
           id="g3018"
           transform="translate(71.6709,418.9346)"><path
             d="m 0,0 c 6.065,-31.938 18.728,-62.302 40.084,-85.969 45.15,-50.036 111.563,-23.736 133.103,22.719"
             style="fill:none;stroke:currentColor;stroke-width:15;stroke-linecap:round;stroke-linejoin:round;stroke-miterlimit:10;stroke-dasharray:none;stroke-opacity:1"
             id="path3020" /></g><g
           id="g3022"
           transform="translate(249.4316,405.2065)"><path
             d="m 0,0 c -18.929,70.356 -115.779,97.592 -179.739,99.293 -1.907,-14.507 -2.755,-29.683 -2.325,-44.987"
             style="fill:none;stroke:currentColor;stroke-width:15;stroke-linecap:round;stroke-linejoin:round;stroke-miterlimit:10;stroke-dasharray:none;stroke-opacity:1"
             id="path3024" /></g><g
           id="g3026"
           transform="translate(256.8047,113.0815)"><path
             d="M 0,0 C 0,174.442 -30.076,226.713 -106.702,303.77"
             style="fill:none;stroke:currentColor;stroke-width:15;stroke-linecap:round;stroke-linejoin:round;stroke-miterlimit:10;stroke-dasharray:none;stroke-opacity:1"
             id="path3028" /></g><g
           id="g3030"
           transform="translate(186.6523,377.2646)"><path
             d="M 0,0 4.348,36.402"
             style="fill:none;stroke:currentColor;stroke-width:15;stroke-linecap:round;stroke-linejoin:round;stroke-miterlimit:10;stroke-dasharray:none;stroke-opacity:1"
             id="path3032" /></g><g
           id="g3034"
           transform="translate(344.0547,271.1816)"><path
             d="M 0,0 19.612,-8.848"
             style="fill:none;stroke:currentColor;stroke-width:15;stroke-linecap:round;stroke-linejoin:round;stroke-miterlimit:10;stroke-dasharray:none;stroke-opacity:1"
             id="path3036" /></g><g
           id="g3038"
           transform="translate(320.9824,365.189)"><path
             d="m 0,0 c -0.209,-0.695 -0.43,-1.385 -0.661,-2.069 -15.476,-45.632 -89.726,-24.264 -77.5,22.303 0.183,0.697 0.379,1.392 0.588,2.087 11.685,38.898 59.946,59.271 59.946,59.271 0,0 29.314,-42.694 17.627,-81.592 z"
             style="fill:none;stroke:currentColor;stroke-width:15;stroke-linecap:round;stroke-linejoin:round;stroke-miterlimit:10;stroke-dasharray:none;stroke-opacity:1"
             id="path3040" /></g><g
           id="g3042"
           transform="translate(282.79,381.4912)"><path
             d="M 0,0 C 0,0 -30.236,-64.939 -32.693,-150.278"
             style="fill:none;stroke:currentColor;stroke-width:15;stroke-linecap:round;stroke-linejoin:round;stroke-miterlimit:10;stroke-dasharray:none;stroke-opacity:1"
             id="path3044" /></g><g
           id="g3046"
           transform="translate(201.5645,70.4043)"><path
             d="M 0,0 C 9.652,0 9.668,15 0,15 -9.651,15 -9.668,0 0,0"
             style="fill:currentColor;fill-opacity:1;fill-rule:nonzero;stroke:none"
             id="path3048" /></g><g
           id="g3050"
           transform="translate(256.8047,45.4287)"><path
             d="M 0,0 C 9.651,0 9.668,15 0,15 -9.652,15 -9.668,0 0,0"
             style="fill:currentColor;fill-opacity:1;fill-rule:nonzero;stroke:none"
             id="path3052" /></g><g
           id="g3054"
           transform="translate(136.4189,26.1948)"><path
             d="M 0,0 C 9.652,0 9.668,15 0,15 -9.651,15 -9.668,0 0,0"
             style="fill:currentColor;fill-opacity:1;fill-rule:nonzero;stroke:none"
             id="path3056" /></g><g
           id="g3058"
           transform="translate(380.9863,26.1948)"><path
             d="M 0,0 C 9.651,0 9.668,15 0,15 -9.652,15 -9.668,0 0,0"
             style="fill:currentColor;fill-opacity:1;fill-rule:nonzero;stroke:none"
             id="path3060" /></g></g></g></g></svg>
