<?xml version="1.0" encoding="UTF-8"?>
<svg xmlns="http://www.w3.org/2000/svg" xmlns:xlink="http://www.w3.org/1999/xlink" version="1.1" id="Capa_1" x="0px" y="0px" viewBox="0 0 512 512" style="enable-background:new 0 0 512 512;" xml:space="preserve" width="512" height="512">
<g>
	<path style="fill:none;stroke:currentColor;stroke-width:15;stroke-linecap:round;stroke-linejoin:round;stroke-miterlimit:10;" d="&#10;&#9;&#9;M504.5,388.622c0-0.984-0.043-1.961-0.124-2.929H7.5"/>
	<path style="fill:none;stroke:currentColor;stroke-width:15;stroke-linecap:round;stroke-linejoin:round;stroke-miterlimit:10;" d="&#10;&#9;&#9;M34.78,423.681h-8.61c-10.31,0-18.67-8.36-18.67-18.68v-114.67c0-4.46,3.62-8.08,8.08-8.08h28.43c3.53,0,6.64,2.28,7.71,5.64&#10;&#9;&#9;l18.41,57.96l23.3-2.65"/>
	
		<line style="fill:none;stroke:currentColor;stroke-width:15;stroke-linecap:round;stroke-linejoin:round;stroke-miterlimit:10;" x1="215.33" y1="423.681" x2="75.78" y2="423.681"/>
	
		<line style="fill:none;stroke:currentColor;stroke-width:15;stroke-linecap:round;stroke-linejoin:round;stroke-miterlimit:10;" x1="372.82" y1="423.681" x2="319.91" y2="423.681"/>
	<path style="fill:none;stroke:currentColor;stroke-width:15;stroke-linecap:round;stroke-linejoin:round;stroke-miterlimit:10;" d="&#10;&#9;&#9;M128.21,339.251l285.23-32.41c23.07-2.63,45.27,9.64,55.33,30.57l8.05,16.76l3.35,1.08c7.25,2.33,13.33,6.87,17.6,12.72&#10;&#9;&#9;c4.27,5.86,6.73,13.03,6.73,20.65c0,19.36-15.69,35.06-35.05,35.06h-61.63"/>
	
		<polyline style="fill:none;stroke:currentColor;stroke-width:15;stroke-linecap:round;stroke-linejoin:round;stroke-miterlimit:10;" points="&#10;&#9;&#9;335.115,410.854 224.119,504.489 163.907,504.489 223.186,411.335 &#9;"/>
	
		<polyline style="fill:none;stroke:currentColor;stroke-width:15;stroke-linecap:round;stroke-linejoin:round;stroke-miterlimit:10;" points="&#10;&#9;&#9;82.734,411.033 60.834,450.867 34.776,450.867 34.776,411.166 &#9;"/>
	
		<line style="fill:none;stroke:currentColor;stroke-width:15;stroke-linecap:round;stroke-linejoin:round;stroke-miterlimit:10;" x1="287.683" y1="450.867" x2="314.997" y2="450.867"/>
	
		<line style="fill:none;stroke:currentColor;stroke-width:15;stroke-linecap:round;stroke-linejoin:round;stroke-miterlimit:10;" x1="250.202" y1="482.494" x2="277.516" y2="482.494"/>
	
		<line style="fill:none;stroke:currentColor;stroke-width:15;stroke-linecap:round;stroke-linejoin:round;stroke-miterlimit:10;" x1="378.432" y1="354.171" x2="378.432" y2="354.171"/>
	
		<line style="fill:none;stroke:currentColor;stroke-width:15;stroke-linecap:round;stroke-linejoin:round;stroke-miterlimit:10;" x1="349.137" y1="354.171" x2="349.137" y2="354.171"/>
	
		<line style="fill:none;stroke:currentColor;stroke-width:15;stroke-linecap:round;stroke-linejoin:round;stroke-miterlimit:10;" x1="319.841" y1="354.171" x2="319.841" y2="354.171"/>
	
		<line style="fill:none;stroke:currentColor;stroke-width:15;stroke-linecap:round;stroke-linejoin:round;stroke-miterlimit:10;" x1="290.546" y1="354.171" x2="290.546" y2="354.171"/>
	
		<line style="fill:none;stroke:currentColor;stroke-width:15;stroke-linecap:round;stroke-linejoin:round;stroke-miterlimit:10;" x1="261.25" y1="354.171" x2="261.25" y2="354.171"/>
	<path style="fill:none;stroke:currentColor;stroke-width:15;stroke-linecap:round;stroke-linejoin:round;stroke-miterlimit:10;" d="&#10;&#9;&#9;M403.675,307.945v22.356c0,13.182,10.686,23.869,23.869,23.869h49.275"/>
	<path style="fill:none;stroke:currentColor;stroke-width:15;stroke-linecap:round;stroke-linejoin:round;stroke-miterlimit:10;" d="&#10;&#9;&#9;M169.85,334.511c-52.95-30.04-88.68-86.93-88.68-152.17c0-96.55,78.27-174.83,174.83-174.83c38.02,0,73.22,12.14,101.9,32.76"/>
	<path style="fill:none;stroke:currentColor;stroke-width:15;stroke-linecap:round;stroke-linejoin:round;stroke-miterlimit:10;" d="&#10;&#9;&#9;M384.11,63.391c28.99,31.2,46.72,73,46.72,118.95c0,51.05-21.88,97.01-56.78,128.97"/>
	<path style="fill:none;stroke:currentColor;stroke-width:15;stroke-linecap:round;stroke-linejoin:round;stroke-miterlimit:10;" d="&#10;&#9;&#9;M199.677,16.785l17.416,35.087c6.019,12.125,21.595,15.764,32.363,7.56l0,0c9.542-7.271,23.185-5.349,30.347,4.275l1.832,2.462&#10;&#9;&#9;c4.711,6.33,12.505,9.579,20.317,8.469l11.409-1.621c7.776-1.105,14.336-6.353,17.12-13.697l11.153-29.422"/>
	<path style="fill:none;stroke:currentColor;stroke-width:15;stroke-linecap:round;stroke-linejoin:round;stroke-miterlimit:10;" d="&#10;&#9;&#9;M146.296,46.221l15.173,50.326c0.899,2.98,2.778,5.586,5.334,7.374l19.668,13.849c3.717,2.616,5.93,6.869,5.93,11.405v17.334&#10;&#9;&#9;c0,3.212-1.111,6.324-3.142,8.809l-17.839,21.89c-1.323,1.626-2.98,2.909-4.829,3.788c-1.849,0.869-3.889,1.344-5.98,1.344&#10;&#9;&#9;c-9.283,0-15.971,8.9-13.405,17.809l0.717,2.495c1.717,5.97,7.182,10.092,13.405,10.092h17.395c3.839,0,7.506,1.576,10.142,4.364&#10;&#9;&#9;l7.96,8.435c3.93,4.152,4.919,10.294,2.505,15.476l-9.768,20.92c-1.01,2.172-1.445,4.566-1.273,6.95l2.616,34.75&#10;&#9;&#9;c0.253,3.455,1.788,6.687,4.293,9.071l14.122,13.405c1.101,1.051,2,2.283,2.637,3.626"/>
	<path style="fill:none;stroke:currentColor;stroke-width:15;stroke-linecap:round;stroke-linejoin:round;stroke-miterlimit:10;" d="&#10;&#9;&#9;M81.167,182.345h9.397c4.549,0,8.843,2.1,11.636,5.69l7.304,9.388c2.547,3.274,3.597,7.47,2.892,11.559l-3.568,20.688&#10;&#9;&#9;c-0.435,2.521-1.518,4.885-3.143,6.861l-10.987,13.355"/>
	<path style="fill:none;stroke:currentColor;stroke-width:15;stroke-linecap:round;stroke-linejoin:round;stroke-miterlimit:10;" d="&#10;&#9;&#9;M395.099,76.435l0.343,13.647c0.192,7.425-3.94,14.284-10.576,17.607l-13.91,6.95c-3.778,1.899-8.091,2.485-12.243,1.667&#10;&#9;&#9;l-21.082-4.121c-11.829-2.313-22.83,6.748-22.83,18.799v5.324c0,6.101,2.899,11.829,7.809,15.435l24.325,17.89&#10;&#9;&#9;c3.283,2.414,7.263,3.717,11.344,3.717h11.95c8.617,0,16.173,5.758,18.466,14.061l3.465,12.566c0.919,3.334,0.919,6.859,0,10.193&#10;&#9;&#9;l-4.94,17.88c-1.525,5.536-5.455,10.102-10.698,12.425l-12.465,5.515c-5.526,2.455-9.576,7.364-10.92,13.263l-10.576,46.427&#10;&#9;&#9;c-0.707,3.081-0.313,6.293,1.061,9.081"/>
</g>















</svg>
