<svg width="100" height="100" viewBox="0 0 100 100" fill="none" xmlns="http://www.w3.org/2000/svg">
<g id="clearsky_day 1" clip-path="url(#clip0_0_1)">
<g id="sun-shadow 3" clip-path="url(#clip1_0_1)">
<g id="Group" opacity="0.6" filter="url(#filter0_f_0_1)">
<g id="Group_2">
<path id="Vector" d="M75.1985 59.3121L89.9908 51.8144L75.1985 44.3397L84.6816 29.5284L68.5696 31.4633L70.2063 13.243L57.1019 24.0116L50.4321 7.35765L43.8645 24.0232L30.6988 13.3466L32.3969 31.4749L16.2645 29.6436L25.7884 44.3972L10.9961 51.8835L25.7884 59.3121L16.3054 74.1118L32.4174 72.2L30.7806 90.4088L43.885 79.6517L50.5446 96.3057L57.1224 79.6401L70.2882 90.3167L68.59 72.1885L84.7225 74.0197L75.1985 59.3121Z" fill="#290F0F"/>
<path id="Vector_2" d="M75.1985 59.3121L89.9908 51.8144L75.1985 44.3397L84.6816 29.5284L68.5696 31.4633L70.2063 13.243L57.1019 24.0116L50.4321 7.35765L43.8645 24.0232L30.6988 13.3466L32.3969 31.4749L16.2645 29.6436L25.7884 44.3972L10.9961 51.8835L25.7884 59.3121L16.3054 74.1118L32.4174 72.2L30.7806 90.4088L43.885 79.6517L50.5446 96.3057L57.1224 79.6401L70.2882 90.3167L68.59 72.1885L84.7225 74.0197L75.1985 59.3121Z" fill="#290F0F"/>
</g>
</g>
</g>
<g id="s01d">
<g id="sun">
<path id="Vector_3" d="M75.64 56.86L91 50L75.64 43.12L85.48 29.46L68.76 31.22L70.46 14.47L56.86 24.36L50 9L43.12 24.36L29.46 14.52L31.22 31.24L14.47 29.54L24.36 43.14L9 50L24.36 56.83L14.52 70.54L31.24 68.78L29.54 85.53L43.14 75.64L50 91L56.83 75.64L70.49 85.48L68.78 68.76L85.53 70.45L75.64 56.86Z" fill="url(#paint0_radial_0_1)"/>
<path id="Vector_4" d="M28.28 62.5C30.7534 66.7808 34.4406 70.2321 38.8754 72.4176C43.3101 74.603 48.2933 75.4245 53.1948 74.7781C58.0964 74.1318 62.6963 72.0466 66.4129 68.7862C70.1295 65.5259 72.7959 61.2368 74.0751 56.4611C75.3543 51.6855 75.1888 46.6378 73.5995 41.9562C72.0102 37.2746 69.0685 33.1693 65.1462 30.1595C61.224 27.1496 56.4974 25.3703 51.5641 25.0464C46.6307 24.7225 41.712 25.8687 37.43 28.34C34.5856 29.9816 32.0925 32.1675 30.0932 34.7729C28.0939 37.3783 26.6274 40.352 25.7777 43.5243C24.928 46.6966 24.7116 50.0052 25.141 53.2611C25.5703 56.517 26.637 59.6564 28.28 62.5Z" fill="#FFD348"/>
<path id="Vector_5" d="M31.74 60.5C33.8168 64.0966 36.9134 66.9967 40.6383 68.8335C44.3632 70.6703 48.5491 71.3613 52.6667 70.8193C56.7844 70.2772 60.6488 68.5264 63.7714 65.7882C66.8941 63.05 69.1347 59.4473 70.2099 55.4358C71.2851 51.4242 71.1468 47.1839 69.8122 43.251C68.4777 39.3181 66.007 35.8692 62.7125 33.3404C59.4179 30.8117 55.4476 29.3165 51.3033 29.0441C47.1591 28.7717 43.0272 29.7342 39.43 31.81C37.041 33.1886 34.9469 35.0243 33.2675 37.2123C31.588 39.4004 30.356 41.8978 29.6419 44.562C28.9278 47.2262 28.7455 50.005 29.1055 52.7397C29.4655 55.4744 30.3607 58.1114 31.74 60.5Z" fill="url(#paint1_linear_0_1)"/>
</g>
</g>
<path id="Vector_6" d="M75.64 56.86L91 49.95L75.64 43.12L85.48 29.46L68.79 31.22L70.49 14.47L56.86 24.4L49.95 9L43.12 24.4L29.46 14.52L31.22 31.24L14.47 29.54L24.35 43.14L9 50.05L24.36 56.88L14.52 70.54L31.24 68.78L29.54 85.53L43.14 75.64L50.05 91L56.88 75.64L70.54 85.48L68.79 68.76L85.54 70.46L75.64 56.86Z" stroke="#F29B1C" stroke-width="2" stroke-miterlimit="10"/>
</g>
<defs>
<filter id="filter0_f_0_1" x="-9.00388" y="-12.6423" width="118.995" height="128.948" filterUnits="userSpaceOnUse" color-interpolation-filters="sRGB">
<feFlood flood-opacity="0" result="BackgroundImageFix"/>
<feBlend mode="normal" in="SourceGraphic" in2="BackgroundImageFix" result="shape"/>
<feGaussianBlur stdDeviation="10" result="effect1_foregroundBlur_0_1"/>
</filter>
<radialGradient id="paint0_radial_0_1" cx="0" cy="0" r="1" gradientUnits="userSpaceOnUse" gradientTransform="translate(50 50) scale(41)">
<stop offset="0.54" stop-color="#D6B849"/>
<stop offset="0.67" stop-color="#FFCE47"/>
<stop offset="1" stop-color="#FFDB73"/>
</radialGradient>
<linearGradient id="paint1_linear_0_1" x1="28.9259" y1="28.9989" x2="4228.93" y2="4229" gradientUnits="userSpaceOnUse">
<stop stop-color="#FFAF22"/>
<stop offset="1" stop-color="#F09900"/>
</linearGradient>
<clipPath id="clip0_0_1">
<rect width="100" height="100" fill="white"/>
</clipPath>
<clipPath id="clip1_0_1">
<rect width="100" height="121.875" fill="white" transform="translate(1 -17)"/>
</clipPath>
</defs>
</svg>
