<svg id="Layer_1" enable-background="new 0 0 512 512" height="512" viewBox="0 0 512 512" width="512" xmlns="http://www.w3.org/2000/svg"><path d="m335.353 389.496c22.179-13.673 22.513-32.565 22.756-46.359.155-8.819.425-14.396 3.869-17.762 3.835-3.751 12.352-5.611 25.354-5.539.758 6.018 1.151 12.148 1.151 18.368v.316c-.006 3.866 3.123 7.005 6.989 7.011h.011c3.861 0 6.994-3.127 7-6.989v-.327c0-88.361-71.887-160.248-160.247-160.248s-160.248 71.887-160.248 160.248c0 88.36 71.887 160.247 160.247 160.247 36.586 0 71.035-12.007 99.621-34.723 3.026-2.405 3.53-6.809 1.125-9.835-1.388-1.747-3.442-2.647-5.512-2.639-.746-1.564-.265-2.822.737-5.408 5.824-15.033 1.178-28.464-2.555-39.256-4.238-12.252-4.28-14.651-.298-17.105zm-93.118-197.529c14.882 0 29.249 2.241 42.789 6.391 5.439 18.683 5.985 32.127 1.61 39.984-3.957 7.104-11.976 9.166-19.73 11.159-1.907.49-3.708.953-5.453 1.492-4.543 1.406-10.06 3.743-12.405 9.392-2.557 6.157.179 12.642 2.459 16.982 3.412 6.496 12.003 12.553 21.098 18.966 4.497 3.171 9.147 6.449 12.591 9.435 2.029 1.76 2.498 2.992 2.517 3.203-.125.304-1.466 1.705-5.306 2.522-1.025.212-5.024.407-8.552.579-10.102.492-25.368 1.237-36.921 4.436-4.031 1.116-16.297 4.513-18.662 14.788-1.693 7.356 2.321 15.196 12.27 23.968 9.399 8.286 22.979 24.031 21.867 33.445-.198 1.674-.975 4.172-5.423 6.53-14.423 7.647-23.274-.574-31.104-9.648-3.284-3.807-7.266-11.523-11.482-19.693-8.616-16.694-18.381-35.616-31.774-40.837-1.174-.458-2.439-.79-3.779-1.141-7.688-2.015-22-5.766-23.844-43.474-.356-7.271-8.975-25.116-15.979-34.704 26.841-32.801 67.622-53.775 113.213-53.775zm-59.95 277.002c1.726.876 2.991 1.532 3.507 4.158-15.354-6.448-29.384-15.442-41.558-26.453 8.815-2.37 21.758-5.755 26.946-1.599 2.936 2.351 3.341 7.782 3.164 11.924-.333 7.771 5.256 10.606 7.941 11.97zm145.721-91.39c-14.184 8.743-9.416 22.525-5.585 33.6 3.295 9.524 6.702 19.373 2.731 29.622-2.082 5.373-3.317 11.181.353 17.662-24.485 17.04-53.078 25.999-83.27 25.999-14.677 0-28.851-2.183-42.227-6.224.451-13.766-5.186-18.605-11.388-21.754-.08-.04-.165-.083-.251-.127.195-10.099-2.641-17.567-8.438-22.21-10.82-8.668-27.58-4.157-39.818-.863-2.368.638-5.381 1.448-7.328 1.816-22.881-25.819-36.798-59.755-36.798-96.885 0-29.767 8.947-57.479 24.282-80.605 4.7 7.683 10.542 19.918 10.748 23.521 2.347 47.964 24.724 53.828 34.279 56.332.896.235 1.823.478 2.243.642 8.463 3.3 17.685 21.168 24.418 34.215 4.807 9.313 8.958 17.357 13.324 22.418 4.676 5.419 15.166 17.579 30.897 17.577 5.218 0 11.015-1.339 17.365-4.705 9.461-5.017 12.166-12.153 12.769-17.258 2.262-19.149-21.688-41.336-26.512-45.589-8.164-7.197-7.892-10.298-7.885-10.326.104-.454 1.896-2.536 8.754-4.436 10.053-2.783 24.384-3.482 33.867-3.945 5.71-.278 8.783-.443 10.782-.868 8.52-1.812 14.331-6.44 15.944-12.698.891-3.455 1.179-10.298-6.897-17.299-3.974-3.444-8.916-6.929-13.694-10.298-6.651-4.689-14.929-10.526-16.771-14.034-1.549-2.949-1.825-4.458-1.868-5.016.375-.263 1.316-.781 3.556-1.474 1.421-.439 3.063-.861 4.802-1.309 9.114-2.343 21.595-5.551 28.476-17.906 5.377-9.656 6.091-23.098 2.142-40.843 41.885 18.455 73.535 55.996 83.862 101.544-15.972.197-26.24 3.213-32.679 9.511-7.727 7.554-7.906 17.706-8.079 27.524-.228 12.873-.442 25.033-16.106 34.689zm91.169-191.302c36.035 41.933 56.024 95.497 56.283 150.825.018 3.866-3.101 7.015-6.967 7.033-.011 0-.022 0-.033 0-3.851 0-6.981-3.112-7-6.967-.243-52.007-19.031-102.354-52.901-141.767-2.52-2.933-2.186-7.352.747-9.871 2.931-2.52 7.351-2.185 9.871.747zm-334.055 304.84c2.696 2.771 2.637 7.202-.134 9.898-1.36 1.324-3.122 1.984-4.882 1.984-1.823 0-3.645-.708-5.017-2.118-42.616-43.783-66.087-101.554-66.087-162.666 0-33.129 6.807-65.14 20.232-95.143 12.966-28.979 31.419-54.637 54.846-76.26 2.841-2.622 7.269-2.443 9.891.396 2.622 2.841 2.445 7.27-.396 9.892-44.85 41.397-70.573 100.122-70.573 161.115 0 57.444 22.061 111.746 62.12 152.902zm70.692-362.145c-1.365-3.616.46-7.655 4.077-9.021 26.32-9.935 54.025-14.973 82.347-14.973 3.932 0 7.934.101 11.894.299 3.861.193 6.834 3.48 6.641 7.341s-3.482 6.845-7.341 6.642c-30.558-1.527-60.425 3.155-88.596 13.789-.814.308-1.649.453-2.471.453-2.829 0-5.493-1.727-6.551-4.53zm272.552 224.757c-41.154 0-74.636 33.481-74.636 74.636s33.482 74.635 74.636 74.635 74.636-33.481 74.636-74.636-33.481-74.635-74.636-74.635zm0 135.271c-33.435 0-60.636-27.201-60.636-60.636s27.201-60.636 60.636-60.636 60.636 27.202 60.636 60.636-27.201 60.636-60.636 60.636zm17.204-86.564v-10.858c0-9.486-7.718-17.204-17.204-17.204s-17.204 7.718-17.204 17.204v10.858 46.595c-2.53 3.551-3.897 7.796-3.897 12.224 0 11.635 9.466 21.101 21.101 21.101s21.102-9.466 21.102-21.101c0-4.428-1.368-8.673-3.898-12.224zm-17.204-14.063c1.737 0 3.204 1.467 3.204 3.204v3.858h-6.408v-3.858c0-1.737 1.467-3.204 3.204-3.204zm0 79.981c-3.916 0-7.101-3.186-7.101-7.101 0-1.835.697-3.575 1.962-4.902 1.242-1.302 1.935-3.031 1.935-4.831v-42.085h6.408v42.085c0 1.8.693 3.53 1.936 4.832 1.266 1.326 1.962 3.067 1.962 4.901 0 3.916-3.186 7.101-7.102 7.101zm-304.367-397.375h15.959c3.866 0 7 3.134 7 7s-3.134 7-7 7h-15.959c-3.866 0-7-3.134-7-7s3.134-7 7-7zm-8.529 34.588 11.285 11.285c2.734 2.734 2.734 7.166 0 9.9-1.367 1.366-3.158 2.05-4.95 2.05s-3.583-.684-4.95-2.05l-11.285-11.285c-2.734-2.734-2.734-7.166 0-9.9 2.734-2.732 7.166-2.732 9.9 0zm-9.9-55.179c-2.734-2.734-2.734-7.166 0-9.9l11.285-11.285c2.733-2.732 7.166-2.732 9.899 0 2.734 2.734 2.734 7.166 0 9.9l-11.285 11.285c-1.367 1.366-3.158 2.05-4.95 2.05s-3.582-.684-4.949-2.05zm-55.18 55.179c2.734 2.734 2.734 7.166 0 9.9l-11.285 11.285c-1.367 1.366-3.158 2.05-4.95 2.05s-3.583-.684-4.95-2.05c-2.734-2.734-2.734-7.166 0-9.9l11.285-11.285c2.734-2.732 7.166-2.732 9.9 0zm-21.185-66.464c-2.734-2.734-2.734-7.166 0-9.9 2.733-2.732 7.166-2.732 9.899 0l11.285 11.285c2.734 2.734 2.734 7.166 0 9.9-1.367 1.366-3.158 2.05-4.95 2.05s-3.583-.684-4.95-2.05zm41.775-7.144v-15.959c0-3.866 3.134-7 7-7s7 3.134 7 7v15.959c0 3.866-3.134 7-7 7s-7-3.134-7-7zm-61.978 46.02c0-3.866 3.134-7 7-7h15.959c3.866 0 7 3.134 7 7s-3.134 7-7 7h-15.959c-3.866 0-7-3.134-7-7zm68.978 39.018c3.866 0 7 3.134 7 7v15.959c0 3.866-3.134 7-7 7s-7-3.134-7-7v-15.959c0-3.866 3.134-7 7-7zm0-4.887c18.821 0 34.133-15.312 34.133-34.133s-15.312-34.133-34.133-34.133-34.133 15.312-34.133 34.134 15.312 34.132 34.133 34.132zm0-54.266c11.102 0 20.133 9.032 20.133 20.134s-9.031 20.132-20.133 20.132-20.133-9.031-20.133-20.133 9.031-20.133 20.133-20.133zm252.774 107.996h120.256c28.668 0 51.991-23.323 51.991-51.991s-23.323-51.991-51.991-51.991h-16.746c-3.844-29.712-29.483-52.858-60.109-52.858-16.204 0-31.427 6.316-42.865 17.785-10.199 10.227-16.313 23.478-17.521 37.762-20.855 7.365-35.006 26.943-35.006 49.302 0 28.668 23.323 51.991 51.991 51.991zm-8.542-89.219c3.132-.767 5.335-3.574 5.335-6.8-.001-12.545 4.849-24.318 13.656-33.149 8.793-8.817 20.495-13.672 32.952-13.672 25.347 0 46.253 20.615 46.602 45.954.053 3.828 3.171 6.903 7 6.903h23.254c20.948 0 37.991 17.043 37.991 37.992s-17.042 37.991-37.991 37.991h-120.257c-20.948 0-37.991-17.043-37.991-37.991 0-17.673 12.11-32.982 29.449-37.228z"/></svg>