<?xml version="1.0" encoding="iso-8859-1"?>
<!-- Generator: Adobe Illustrator 19.0.0, SVG Export Plug-In . SVG Version: 6.00 Build 0)  -->
<svg version="1.1" id="Capa_1" xmlns="http://www.w3.org/2000/svg" xmlns:xlink="http://www.w3.org/1999/xlink" x="0px" y="0px"
	 viewBox="0 0 511.999 511.999" style="enable-background:new 0 0 511.999 511.999;" xml:space="preserve">
<g>
	<g>
		<path d="M410.25,179.331c-16.651,0.001-30.197,13.548-30.197,30.198c0,16.652,13.547,30.198,30.197,30.198
			c16.652,0,30.198-13.547,30.198-30.198C440.449,192.878,426.902,179.331,410.25,179.331z M410.25,224.708
			c-8.369,0-15.178-6.809-15.178-15.179c0-8.37,6.809-15.179,15.178-15.179s15.179,6.809,15.179,15.179
			C425.429,217.9,418.619,224.708,410.25,224.708z"/>
	</g>
</g>
<g>
	<g>
		<path d="M410.25,142.483c-4.148,0-7.51,3.362-7.51,7.51c0,4.147,3.361,7.51,7.51,7.51c28.687,0,52.027,23.339,52.027,52.026
			c0,24.065-16.427,44.359-38.654,50.276c-2.091,0.555-4.212,0.974-6.351,1.264c-0.156,0.021-0.313,0.04-0.471,0.06
			c-0.971,0.122-1.946,0.218-2.922,0.286c-0.108,0.008-0.215,0.018-0.323,0.025c-2.201,0.139-4.411,0.139-6.613,0
			c-0.108-0.007-0.215-0.017-0.323-0.025c-0.976-0.068-1.951-0.164-2.922-0.286c-0.157-0.02-0.314-0.039-0.471-0.06
			c-2.138-0.289-4.261-0.709-6.351-1.264c-22.227-5.918-38.653-26.211-38.653-50.276c0-17.311,8.576-33.44,22.943-43.146
			c2.358-1.593,4.864-3.002,7.449-4.185c3.771-1.727,5.428-6.184,3.7-9.955c-1.727-3.771-6.184-5.428-9.954-3.701
			c-3.332,1.526-6.563,3.341-9.602,5.395c-18.506,12.503-29.555,33.285-29.555,55.592c0,28.901,18.382,53.589,44.067,62.989v31.794
			v75.4c0,47.603-38.727,86.33-86.33,86.33s-86.33-38.727-86.33-86.33v-64.334c40.188-7.381,75.614-34.445,102.787-78.649
			c5.439-8.847,4.142-19.968-2.446-27.346c26.828-52.209,38.862-101.469,31.466-129.55c-5.498-20.869-24.279-37.412-54.43-48.048
			c-0.523-6.836-4.422-13.803-11.308-20.027c-6.669-6.029-15.138-10.43-22.101-11.485c-14.742-2.234-28.79,9.572-31.328,26.317
			c-1.194,7.874,0.302,15.73,4.212,22.124c4.165,6.809,10.526,11.175,17.91,12.294c1.37,0.207,2.832,0.308,4.361,0.308
			c6.248,0,13.599-1.69,20.151-4.729c5.959-2.764,10.592-6.328,13.691-10.434c18.417,6.583,39.213,18.141,44.314,37.506
			c4.875,18.507-0.257,60.34-30.066,118.414c-3.06-0.543-6.224-0.471-9.337,0.271c-5.971,1.425-11.029,5.09-14.243,10.318
			c-24.005,39.049-53.146,58.847-86.614,58.847c-33.47,0-62.611-19.8-86.616-58.849c-5.076-8.258-14.567-12.17-23.58-10.587
			c-29.81-58.074-34.941-99.907-30.065-118.414c5.093-19.335,25.813-30.895,44.313-37.508c3.1,4.105,7.733,7.671,13.693,10.435
			c6.552,3.039,13.903,4.729,20.151,4.729c1.528,0,2.992-0.101,4.361-0.308c7.385-1.119,13.745-5.486,17.91-12.294
			c3.91-6.392,5.406-14.25,4.212-22.124c-2.536-16.744-16.581-28.549-31.328-26.317c-6.963,1.055-15.432,5.456-22.101,11.485
			c-6.885,6.224-10.784,13.19-11.307,20.025C61.121,42.417,42.346,58.954,36.847,79.831c-7.398,28.08,4.636,77.339,31.463,129.547
			c-6.588,7.378-7.885,18.498-2.447,27.346c27.174,44.206,62.601,71.271,102.79,78.652v36.765c0,4.147,3.362,7.51,7.51,7.51
			c4.148,0,7.51-3.362,7.51-7.51v-43.19c0-3.777-2.805-6.965-6.549-7.449c-38.235-4.931-72.282-30.051-98.465-72.643
			c-2.286-3.719-1.136-8.596,2.554-10.909c0.028-0.015,0.058-0.024,0.086-0.039c0.108-0.057,0.207-0.124,0.311-0.186
			c3.695-2.031,8.381-0.829,10.61,2.799c26.923,43.797,60.37,66.004,99.412,66.004c39.041,0,72.487-22.206,99.41-66.002
			c1.112-1.811,2.865-3.08,4.932-3.574c1.927-0.46,3.91-0.185,5.636,0.753c0.117,0.07,0.229,0.145,0.352,0.21
			c0.03,0.016,0.061,0.026,0.09,0.041c3.687,2.315,4.835,7.189,2.55,10.907c-26.182,42.591-60.229,67.71-98.462,72.641
			c-3.745,0.484-6.549,3.672-6.549,7.449v70.76c0,55.884,45.465,101.349,101.349,101.349c55.885,0,101.349-45.465,101.349-101.349
			v-75.4v-28.211c0.21,0.025,0.421,0.043,0.631,0.066c0.293,0.032,0.587,0.064,0.881,0.092c0.915,0.088,1.833,0.159,2.752,0.21
			c0.221,0.012,0.444,0.02,0.666,0.03c0.97,0.044,1.942,0.072,2.913,0.074c0.039,0,0.077,0.003,0.116,0.003s0.077-0.003,0.116-0.003
			c0.971-0.002,1.943-0.03,2.913-0.074c0.222-0.01,0.445-0.018,0.667-0.03c0.918-0.05,1.835-0.121,2.751-0.21
			c0.295-0.028,0.589-0.06,0.883-0.092c0.21-0.023,0.421-0.041,0.63-0.066v103.609c0,30.019-11.38,58.597-32.046,80.47
			c-2.848,3.015-2.713,7.767,0.302,10.616c1.451,1.372,3.305,2.051,5.156,2.051c1.993,0,3.983-0.789,5.46-2.353
			c23.309-24.672,36.147-56.913,36.147-90.785V272.517c25.688-9.4,44.07-34.087,44.07-62.989
			C477.297,172.56,447.22,142.483,410.25,142.483z M276.977,34.122c-1.083,7.141-17.565,13.219-25.35,12.032
			c-2.927-0.444-5.536-2.319-7.349-5.282c-2.068-3.379-2.84-7.653-2.176-12.035c1.275-8.413,7.799-14.699,14.227-13.718
			c3.285,0.498,9.156,3.144,14.281,7.776C274.987,26.854,277.427,31.155,276.977,34.122z M112.654,22.897
			c5.125-4.632,10.994-7.278,14.281-7.776c0.443-0.067,0.887-0.1,1.33-0.1c5.98,0,11.71,5.986,12.898,13.818
			c0.664,4.382-0.108,8.656-2.176,12.035c-1.812,2.963-4.422,4.838-7.349,5.282c-7.79,1.188-24.268-4.891-25.35-12.032
			C105.838,31.155,108.278,26.854,112.654,22.897z"/>
	</g>
</g>
<g>
	<g>
		<path d="M378.998,477.281c-2.396-3.384-7.082-4.185-10.468-1.79c-19.86,14.058-43.231,21.489-67.589,21.489
			c-64.662,0-117.268-52.607-117.268-117.269c0-4.147-3.361-7.51-7.51-7.51c-4.147,0-7.51,3.362-7.51,7.51
			c0,72.945,59.344,132.289,132.288,132.289c27.483,0,53.856-8.386,76.266-24.249C380.593,485.353,381.395,480.666,378.998,477.281z
			"/>
	</g>
</g>
<g>
</g>
<g>
</g>
<g>
</g>
<g>
</g>
<g>
</g>
<g>
</g>
<g>
</g>
<g>
</g>
<g>
</g>
<g>
</g>
<g>
</g>
<g>
</g>
<g>
</g>
<g>
</g>
<g>
</g>
</svg>
