<?xml version="1.0" encoding="UTF-8"?>
<svg xmlns="http://www.w3.org/2000/svg" viewBox="0 0 34 48"><g fill="#5091cd" data-name="Layer 2"><path d="M21 3a3 3 0 0 0-6 0v3h6zM15 26h6v-2h5a8 8 0 0 0 0-16H11.64A4 4 0 0 0 9 7H4a4 4 0 0 0 0 8h5a4 4 0 0 0 2.64-1H26a2 2 0 0 1 0 4h-5v-2h-6v2h-3a8 8 0 0 0 0 16h10a2 2 0 0 1 0 4h-1v-2h-6v2h-2a3 3 0 0 0 0 6h2v1a2.772 2.772 0 0 0 .18 1 2.654 2.654 0 0 0 .18.42.818.818 0 0 0 .12.2 1.303 1.303 0 0 0 .1.15 2.9 2.9 0 0 0 1.36 1.03.493.493 0 0 0 .17.06.83.83 0 0 0 .21.06.857.857 0 0 0 .17.03 2.627 2.627 0 0 0 1.02 0 .857.857 0 0 0 .17-.03 2.952 2.952 0 0 0 1.74-1.15 1.303 1.303 0 0 0 .1-.15.818.818 0 0 0 .12-.2 2.654 2.654 0 0 0 .18-.42 2.772 2.772 0 0 0 .18-1v-1h1a8 8 0 0 0 0-16H12a2 2 0 0 1 0-4h3zM4 11a1 1 0 1 1 1-1 1.003 1.003 0 0 1-1 1z" style="fill: #000000;"/></g></svg>
