<?xml version="1.0" encoding="UTF-8"?>
<svg xmlns="http://www.w3.org/2000/svg" xmlns:xlink="http://www.w3.org/1999/xlink" version="1.1" id="Capa_1" x="0px" y="0px" viewBox="0 0 512 512" style="enable-background:new 0 0 512 512;" xml:space="preserve" width="512" height="512">
<g>
	
		<circle style="fill:none;stroke:currentColor;stroke-width:15;stroke-linecap:round;stroke-linejoin:round;stroke-miterlimit:10;" cx="256" cy="256" r="188.5"/>
	<path style="fill:none;stroke:currentColor;stroke-width:15;stroke-linecap:round;stroke-linejoin:round;stroke-miterlimit:10;" d="&#10;&#9;&#9;M369.5,271v-30h44.289C406.694,165.438,346.562,105.306,271,98.211V142.5h-30V98.211C165.438,105.306,105.306,165.438,98.211,241&#10;&#9;&#9;H142.5v30H98.211c7.095,75.562,67.227,135.694,142.789,142.789V369.5h30v44.289c75.562-7.095,135.694-67.227,142.789-142.789H369.5&#10;&#9;&#9;z"/>
	<path style="fill:none;stroke:currentColor;stroke-width:15;stroke-linecap:round;stroke-linejoin:round;stroke-miterlimit:10;" d="&#10;&#9;&#9;M308.034,248.585c0.02,0-38.991-68.497-38.991-68.497c-2.595-4.528-7.458-7.587-13.043-7.587c-5.571,0-10.422,3.044-13.009,7.553&#10;&#9;&#9;c-0.015,0-39.206,68.394-39.206,68.394c-5.013,8.779-7.905,18.943-7.905,29.788c0,33.137,26.863,60,60,60c33.137,0,60-26.863,60-60&#10;&#9;&#9;C315.88,267.447,313.018,257.333,308.034,248.585z"/>
	<path style="fill:none;stroke:currentColor;stroke-width:15;stroke-linecap:round;stroke-linejoin:round;stroke-miterlimit:10;" d="&#10;&#9;&#9;M91.152,441.93C135.019,480.851,192.743,504.5,256,504.5c137.243,0,248.5-111.257,248.5-248.5S393.243,7.5,256,7.5&#10;&#9;&#9;c-63.257,0-120.981,23.649-164.848,62.57"/>
	<path style="fill:none;stroke:currentColor;stroke-width:15;stroke-linecap:round;stroke-linejoin:round;stroke-miterlimit:10;" d="&#10;&#9;&#9;M69.947,91.291C31.099,135.14,7.5,192.81,7.5,256s23.599,120.86,62.447,164.709"/>
</g>















</svg>
