<svg xmlns="http://www.w3.org/2000/svg" xmlns:xlink="http://www.w3.org/1999/xlink" width="800" zoomAndPan="magnify" viewBox="0 0 600 599.999999" height="800" preserveAspectRatio="xMidYMid meet" version="1.0"><rect x="-60" width="720" fill="#ffffff" y="-60" height="719.999999" fill-opacity="1"/><rect x="-60" width="720" fill="#ffffff" y="-60" height="719.999999" fill-opacity="1"/><rect x="-60" width="720" fill="#ffffff" y="-60" height="719.999999" fill-opacity="1"/><path fill="#d1937e" d="M 548.527344 412.472656 L 558.105469 510.015625 C 558.3125 512.597656 556.273438 514.808594 553.683594 514.808594 L 550.757812 514.808594 C 548.554688 514.808594 546.683594 513.1875 546.367188 511.003906 L 529.238281 412.472656 Z M 548.527344 412.472656 " fill-opacity="1" fill-rule="nonzero"/><path fill="#bf8673" d="M 580.738281 393.964844 L 599.570312 498.640625 C 600.011719 501.339844 597.925781 503.792969 595.191406 503.792969 L 592.378906 503.792969 C 590.308594 503.792969 588.511719 502.359375 588.054688 500.339844 L 561.449219 393.964844 Z M 580.738281 393.964844 " fill-opacity="1" fill-rule="nonzero"/><path fill="#bf8673" d="M 503.636719 393.964844 L 484.804688 498.640625 C 484.363281 501.339844 486.445312 503.792969 489.183594 503.792969 L 491.992188 503.792969 C 494.0625 503.792969 495.859375 502.359375 496.320312 500.339844 L 522.921875 393.964844 Z M 503.636719 393.964844 " fill-opacity="1" fill-rule="nonzero"/><path fill="#d1937e" d="M 439.644531 407.269531 L 421.457031 509.699219 C 421.046875 512.386719 423.125 514.808594 425.84375 514.808594 L 428.660156 514.808594 C 430.753906 514.808594 432.558594 513.347656 433 511.304688 L 458.933594 407.269531 Z M 439.644531 407.269531 " fill-opacity="1" fill-rule="nonzero"/><path fill="#4a3a4a" d="M 584.59375 398.882812 C 584.59375 398.882812 582.859375 412.472656 563.472656 414.496094 C 544.089844 416.523438 467.996094 415.941406 448.324219 411.316406 C 428.648438 406.6875 432.121094 393.675781 432.121094 393.675781 Z M 584.59375 398.882812 " fill-opacity="1" fill-rule="nonzero"/><path fill="#e4e8f2" d="M 498.664062 248.21875 C 498.664062 248.21875 481.304688 246.769531 481.304688 261.519531 C 481.304688 275.398438 481.304688 343.648438 481.304688 343.648438 C 481.304688 343.648438 483.910156 353.769531 456.714844 358.972656 C 431.410156 363.816406 430.09375 374.300781 431.832031 392.230469 L 485.9375 371.410156 L 485.933594 260.941406 C 485.933594 260.941406 485.644531 249.953125 498.664062 248.21875 Z M 498.664062 248.21875 " fill-opacity="1" fill-rule="nonzero"/><path fill="#c6d1e5" d="M 587.777344 260.941406 L 587.777344 383.265625 L 485.933594 383.265625 L 485.933594 260.941406 C 485.933594 253.914062 491.632812 248.21875 498.664062 248.21875 L 575.046875 248.21875 C 582.078125 248.21875 587.777344 253.914062 587.777344 260.941406 Z M 587.777344 260.941406 " fill-opacity="1" fill-rule="nonzero"/><path fill="#b6c3db" d="M 587.777344 383.265625 C 587.777344 383.265625 588.355469 371.410156 561.449219 371.410156 C 534.542969 371.410156 485.9375 371.410156 485.9375 371.410156 L 431.832031 392.230469 C 431.832031 392.230469 428.359375 399.75 451.792969 403.796875 C 475.230469 407.847656 518.902344 409.71875 528.464844 408.714844 C 539.460938 407.558594 587.777344 383.265625 587.777344 383.265625 Z M 587.777344 383.265625 " fill-opacity="1" fill-rule="nonzero"/><path fill="#e4e8f2" d="M 575.046875 248.21875 C 575.046875 248.21875 583.726562 250.242188 583.726562 272.796875 C 583.726562 295.355469 583.726562 354.347656 583.726562 354.347656 C 583.726562 354.347656 587.039062 367.742188 555.027344 371.503906 C 522.234375 375.359375 520.722656 383.003906 520.722656 409.03125 C 520.722656 409.03125 534.542969 410.738281 547.5625 409.292969 C 560.582031 407.847656 588.644531 407.558594 591.539062 385.289062 C 594.433594 363.023438 590.960938 332.082031 591.539062 313.574219 C 591.957031 300.242188 591.773438 272.210938 591.636719 257.570312 C 591.589844 252.390625 587.375 248.21875 582.191406 248.21875 Z M 575.046875 248.21875 " fill-opacity="1" fill-rule="nonzero"/><path fill="#d1937e" d="M 51.488281 410.152344 L 41.910156 507.699219 C 41.703125 510.28125 43.742188 512.488281 46.332031 512.488281 L 49.253906 512.488281 C 51.460938 512.488281 53.332031 510.867188 53.648438 508.6875 L 70.777344 410.152344 Z M 51.488281 410.152344 " fill-opacity="1" fill-rule="nonzero"/><path fill="#bf8673" d="M 19.277344 391.648438 L 0.445312 496.324219 C 0.00390625 499.023438 2.089844 501.472656 4.824219 501.472656 L 7.636719 501.472656 C 9.707031 501.472656 11.503906 500.039062 11.960938 498.023438 L 38.566406 391.648438 Z M 19.277344 391.648438 " fill-opacity="1" fill-rule="nonzero"/><path fill="#bf8673" d="M 96.378906 391.648438 L 115.210938 496.324219 C 115.652344 499.023438 113.570312 501.472656 110.832031 501.472656 L 108.023438 501.472656 C 105.953125 501.472656 104.15625 500.039062 103.695312 498.023438 L 77.089844 391.648438 Z M 96.378906 391.648438 " fill-opacity="1" fill-rule="nonzero"/><path fill="#d1937e" d="M 160.371094 404.949219 L 178.558594 507.378906 C 178.96875 510.066406 176.890625 512.488281 174.171875 512.488281 L 171.355469 512.488281 C 169.261719 512.488281 167.457031 511.027344 167.015625 508.984375 L 141.082031 404.949219 Z M 160.371094 404.949219 " fill-opacity="1" fill-rule="nonzero"/><path fill="#4a3a4a" d="M 15.421875 396.5625 C 15.421875 396.5625 17.15625 410.152344 36.539062 412.179688 C 55.925781 414.203125 132.019531 413.625 151.691406 408.996094 C 171.367188 404.371094 167.894531 391.355469 167.894531 391.355469 Z M 15.421875 396.5625 " fill-opacity="1" fill-rule="nonzero"/><path fill="#e4e8f2" d="M 101.351562 245.898438 C 101.351562 245.898438 118.710938 244.453125 118.710938 259.199219 C 118.710938 273.082031 118.710938 341.328125 118.710938 341.328125 C 118.710938 341.328125 116.105469 351.449219 143.300781 356.65625 C 168.605469 361.5 169.917969 371.980469 168.183594 389.910156 L 114.078125 369.089844 L 114.078125 258.621094 C 114.078125 258.621094 114.371094 247.632812 101.351562 245.898438 Z M 101.351562 245.898438 " fill-opacity="1" fill-rule="nonzero"/><path fill="#c6d1e5" d="M 12.238281 258.621094 L 12.238281 380.945312 L 114.078125 380.945312 L 114.078125 258.621094 C 114.078125 251.59375 108.378906 245.898438 101.351562 245.898438 L 24.96875 245.898438 C 17.9375 245.898438 12.238281 251.59375 12.238281 258.621094 Z M 12.238281 258.621094 " fill-opacity="1" fill-rule="nonzero"/><path fill="#b6c3db" d="M 12.238281 380.945312 C 12.238281 380.945312 11.660156 369.089844 38.566406 369.089844 C 65.472656 369.089844 114.078125 369.089844 114.078125 369.089844 L 168.183594 389.910156 C 168.183594 389.910156 171.65625 397.429688 148.21875 401.480469 C 124.785156 405.527344 81.113281 407.402344 71.550781 406.394531 C 60.554688 405.238281 12.238281 380.945312 12.238281 380.945312 Z M 12.238281 380.945312 " fill-opacity="1" fill-rule="nonzero"/><path fill="#e4e8f2" d="M 24.96875 245.898438 C 24.96875 245.898438 16.289062 247.921875 16.289062 270.480469 C 16.289062 293.035156 16.289062 352.027344 16.289062 352.027344 C 16.289062 352.027344 12.976562 365.421875 44.988281 369.1875 C 77.78125 373.042969 79.292969 380.6875 79.292969 406.710938 C 79.292969 406.710938 65.472656 408.417969 52.453125 406.972656 C 39.433594 405.527344 11.371094 405.238281 8.476562 382.972656 C 5.582031 360.703125 9.054688 329.761719 8.476562 311.253906 C 8.058594 297.925781 8.242188 269.894531 8.378906 255.253906 C 8.425781 250.070312 12.640625 245.898438 17.824219 245.898438 Z M 24.96875 245.898438 " fill-opacity="1" fill-rule="nonzero"/><path fill="#d38475" d="M 171.0625 246.410156 C 171.0625 246.410156 184.460938 245.664062 189.050781 267.132812 C 192.867188 284.972656 197.457031 368.777344 196.472656 382.308594 C 195.488281 395.84375 176.902344 402.738281 166.199219 382.601562 C 151.335938 354.632812 141.53125 304.542969 140.15625 283.378906 C 138.777344 262.21875 149.234375 246.113281 171.0625 246.410156 Z M 171.0625 246.410156 " fill-opacity="1" fill-rule="nonzero"/><path fill="#d38475" d="M 140.292969 274.613281 L 179.308594 268.214844 C 179.308594 268.214844 173.691406 287.695312 170.371094 294.085938 C 167.332031 299.929688 164.746094 347.597656 160.96875 371.636719 C 148.75 342.027344 141.175781 301.570312 140.046875 284.21875 C 139.828125 280.898438 140.035156 277.660156 140.292969 274.613281 Z M 140.292969 274.613281 " fill-opacity="1" fill-rule="nonzero"/><path fill="#bf7660" d="M 165.765625 244.367188 C 165.765625 244.367188 181.703125 242.945312 185.988281 254.410156 C 189.875 264.796875 192.886719 279.816406 195.660156 318.515625 C 198.433594 357.210938 199.332031 370.503906 197.132812 381.484375 C 195.648438 388.90625 189.777344 396.769531 182.816406 397.476562 C 175.859375 398.183594 168.46875 399.226562 162.847656 383.265625 C 155.984375 363.765625 149.230469 338.746094 145.675781 323.832031 C 142.121094 308.917969 138.507812 290.292969 139.050781 275.53125 C 139.59375 260.765625 147.613281 246.203125 165.765625 244.367188 Z M 165.765625 244.367188 " fill-opacity="1" fill-rule="nonzero"/><path fill="#b06b56" d="M 168.128906 295.535156 C 168.128906 295.535156 166.484375 281.304688 161.707031 276.34375 L 141.613281 304.390625 C 142.792969 311.144531 144.238281 317.792969 145.675781 323.832031 C 149.074219 338.085938 155.394531 361.5625 161.941406 380.632812 C 163.484375 374.015625 165.308594 365.945312 166.824219 358.519531 C 170.175781 342.097656 170.679688 302.046875 170.679688 302.046875 C 170.679688 302.046875 180.226562 285.121094 179.308594 277.078125 C 179.308594 277.078125 173.96875 294.230469 168.128906 295.535156 Z M 168.128906 295.535156 " fill-opacity="1" fill-rule="nonzero"/><path fill="#de9681" d="M 196.039062 386.398438 C 196.039062 386.398438 182.742188 496.511719 180.753906 503.925781 C 178.765625 511.339844 167.171875 512.816406 166.929688 500.824219 C 166.6875 488.832031 164.597656 464.835938 162.402344 439.082031 C 160.207031 413.324219 163.695312 386.925781 166.25 376.878906 C 169.9375 362.386719 196.742188 361.378906 196.039062 386.398438 Z M 196.039062 386.398438 " fill-opacity="1" fill-rule="nonzero"/><path fill="#bf7660" d="M 185.507812 361.671875 C 185.507812 361.671875 199.296875 363.335938 197.480469 387.585938 C 195.980469 407.613281 186.148438 475.929688 186.148438 475.929688 C 186.148438 475.929688 172.148438 477.636719 164.410156 475.566406 C 164.410156 475.566406 161.066406 435.511719 160.234375 424.089844 C 158.71875 403.34375 162.578125 384.664062 164.230469 374.464844 C 165.882812 364.261719 177.894531 359.910156 185.507812 361.671875 Z M 185.507812 361.671875 " fill-opacity="1" fill-rule="nonzero"/><path fill="#de9681" d="M 177.796875 487.492188 C 177.796875 487.492188 182.277344 488.195312 181.25 496.71875 C 180.550781 502.558594 188.539062 512.0625 194.871094 517.003906 C 196.894531 518.582031 198.136719 519.578125 199.519531 520.347656 C 205.242188 523.542969 208.511719 525.457031 207.265625 528.308594 C 206.023438 531.164062 191.039062 527.902344 186.445312 526.1875 C 181.851562 524.472656 178.332031 518.828125 170.515625 517.066406 C 162.699219 515.300781 160.335938 512.390625 160.625 508.941406 C 161.078125 503.511719 167.171875 498.976562 168.710938 492.648438 C 170.253906 486.320312 174.507812 486.308594 177.796875 487.492188 Z M 177.796875 487.492188 " fill-opacity="1" fill-rule="nonzero"/><path fill="#564756" d="M 160.601562 516.773438 C 160.601562 516.773438 161.753906 520.472656 162.652344 523.601562 C 163.554688 526.726562 163.839844 531.714844 163.839844 531.714844 C 163.839844 531.714844 165.023438 532.246094 165.855469 531.601562 C 165.855469 531.601562 165.863281 526.640625 165.945312 524.300781 C 166.03125 521.964844 166.613281 518.246094 166.613281 518.246094 C 166.613281 518.246094 162.460938 515.992188 160.601562 516.773438 Z M 160.601562 516.773438 " fill-opacity="1" fill-rule="nonzero"/><path fill="#564756" d="M 160.453125 513.683594 C 160.453125 513.683594 160.484375 516.285156 160.644531 517.046875 C 160.804688 517.804688 169.390625 519.667969 172.964844 521.46875 C 176.535156 523.269531 182.042969 526.132812 183.71875 528.0625 C 185.398438 529.988281 189.546875 531.777344 192.460938 532.1875 C 195.375 532.601562 205.554688 532.605469 212.835938 529.058594 L 185.855469 524.472656 L 168.839844 515.039062 Z M 160.453125 513.683594 " fill-opacity="1" fill-rule="nonzero"/><path fill="#f0e9e9" d="M 195.667969 517.546875 C 195.667969 517.546875 193.046875 520.5 189.75 521.84375 C 186.457031 523.1875 180.660156 519.566406 176.65625 516.90625 C 172.648438 514.242188 165.136719 504.894531 164.136719 501.316406 C 164.136719 501.316406 159.335938 505.714844 160.140625 513.089844 C 160.269531 515.753906 165.785156 517.234375 169.511719 518.371094 C 173.238281 519.507812 181.945312 524.40625 183.617188 526.238281 C 185.289062 528.070312 187.941406 531.554688 203.308594 530.679688 C 208.207031 530.402344 213.277344 528.90625 213.277344 528.90625 C 213.277344 528.90625 204.769531 522.035156 195.667969 517.546875 Z M 195.667969 517.546875 " fill-opacity="1" fill-rule="nonzero"/><path fill="#de9681" d="M 187.617188 243.105469 C 187.617188 243.105469 188.433594 256.464844 188.011719 265.292969 C 187.59375 274.117188 183.179688 282.917969 176.210938 291.75 C 169.585938 300.144531 156.5 305.304688 143.464844 303.832031 C 130.429688 302.363281 114.433594 302.488281 111.703125 288.199219 C 108.96875 273.910156 116.765625 256.757812 122.652344 249.617188 C 128.539062 242.480469 130.601562 241.269531 132.933594 234.515625 C 135.265625 227.761719 186.984375 217.046875 187.617188 243.105469 Z M 187.617188 243.105469 " fill-opacity="1" fill-rule="nonzero"/><path fill="#bf7660" d="M 188.375 241.414062 C 188.375 241.414062 145.789062 243.570312 132.253906 236.351562 C 132.253906 236.351562 128.175781 241.421875 124.074219 245.941406 C 119.976562 250.457031 113.128906 260.441406 111.136719 275.046875 C 109.148438 289.648438 116.152344 298.136719 118.042969 301.078125 C 119.933594 304.019531 128.480469 306.789062 137.917969 307.125 C 146.921875 307.449219 163.390625 305.621094 173.167969 296.269531 C 182.945312 286.917969 187.882812 272.8125 188.832031 266.679688 C 189.777344 260.546875 188.375 241.414062 188.375 241.414062 Z M 188.375 241.414062 " fill-opacity="1" fill-rule="nonzero"/><path fill="#b06b56" d="M 179.308594 277.078125 C 179.308594 277.078125 173.96875 294.230469 168.128906 295.535156 C 168.128906 295.535156 166.484375 281.304688 161.707031 276.34375 L 139.628906 307.160156 C 148.890625 307.199219 163.980469 305.054688 173.167969 296.269531 C 173.488281 295.960938 173.789062 295.636719 174.097656 295.320312 C 176.738281 289.691406 179.851562 281.832031 179.308594 277.078125 Z M 179.308594 277.078125 " fill-opacity="1" fill-rule="nonzero"/><path fill="#564756" d="M 126.238281 243.511719 C 127.976562 238.820312 129.484375 234.796875 129.484375 234.796875 C 143.023438 242.015625 188.375 241.414062 188.375 241.414062 C 188.375 241.414062 188.539062 243.6875 188.71875 246.917969 C 179.609375 250.058594 155.226562 256.0625 126.238281 243.511719 Z M 126.238281 243.511719 " fill-opacity="1" fill-rule="nonzero"/><path fill="#de9681" d="M 137.375 260.125 C 137.375 260.125 159.039062 258.703125 162.894531 280.226562 C 166.753906 301.75 156.664062 372.507812 152.605469 385.027344 C 148.546875 397.550781 128.542969 403.527344 122.785156 378.179688 C 117.027344 352.832031 111.25 329.300781 112.238281 283.992188 C 112.257812 283.03125 115.269531 261.21875 137.375 260.125 Z M 137.375 260.125 " fill-opacity="1" fill-rule="nonzero"/><path fill="#bf7660" d="M 140.171875 259.238281 C 140.171875 259.238281 155.515625 258.941406 161.871094 274.320312 C 168.230469 289.695312 162.0625 342.992188 161.417969 351.070312 C 160.777344 359.148438 155.773438 384.820312 153.511719 392.230469 C 150.992188 400.472656 145.726562 400.226562 136.378906 399.8125 C 127.027344 399.402344 119.402344 399.28125 117.589844 378.308594 C 115.59375 355.222656 114.25 344.75 112.9375 332.632812 C 111.625 320.519531 110.019531 293.582031 111.195312 282.570312 C 112.371094 271.5625 121.660156 258.835938 140.171875 259.238281 Z M 140.171875 259.238281 " fill-opacity="1" fill-rule="nonzero"/><path fill="#de9681" d="M 151.355469 397.832031 C 151.355469 397.832031 118.710938 498.160156 115.472656 505.121094 C 112.238281 512.078125 100.5625 511.539062 102.394531 499.683594 C 104.222656 487.828125 104.910156 471.59375 107.1875 445.84375 C 109.46875 420.09375 117.453125 394.691406 121.703125 385.234375 C 127.835938 371.597656 156.363281 373.308594 151.355469 397.832031 Z M 151.355469 397.832031 " fill-opacity="1" fill-rule="nonzero"/><path fill="#bf7660" d="M 143.296875 373.574219 C 143.296875 373.574219 157.488281 378.410156 152.414062 397.84375 C 147.34375 417.28125 124.226562 486.234375 124.226562 486.234375 C 124.226562 486.234375 110.144531 485.5 102.875 482.128906 C 102.875 482.128906 106.488281 442.101562 107.636719 430.707031 C 109.722656 410.007812 116.746094 392.273438 120.132812 382.507812 C 123.515625 372.746094 136.101562 370.527344 143.296875 373.574219 Z M 143.296875 373.574219 " fill-opacity="1" fill-rule="nonzero"/><path fill="#de9681" d="M 113.921875 491.980469 C 113.921875 491.980469 118.304688 493.136719 116.40625 501.511719 C 115.105469 507.246094 122.078125 517.527344 127.863281 523.089844 C 129.714844 524.867188 130.847656 525.988281 132.144531 526.898438 C 137.503906 530.664062 140.5625 532.902344 139.03125 535.613281 C 137.496094 538.324219 122.929688 533.539062 118.539062 531.359375 C 114.144531 529.179688 111.226562 523.207031 103.632812 520.644531 C 96.039062 518.085938 93.988281 514.945312 94.632812 511.542969 C 95.640625 506.191406 102.167969 502.308594 104.355469 496.171875 C 106.539062 490.039062 110.773438 490.460938 113.921875 491.980469 Z M 113.921875 491.980469 " fill-opacity="1" fill-rule="nonzero"/><path fill="#564756" d="M 93.800781 519.335938 C 93.800781 519.335938 94.5625 523.132812 95.136719 526.335938 C 95.710938 529.539062 95.480469 534.53125 95.480469 534.53125 C 95.480469 534.53125 96.605469 535.179688 97.496094 534.625 C 97.496094 534.625 98.015625 529.691406 98.339844 527.375 C 98.664062 525.054688 99.628906 521.417969 99.628906 521.417969 C 99.628906 521.417969 95.730469 518.75 93.800781 519.335938 Z M 93.800781 519.335938 " fill-opacity="1" fill-rule="nonzero"/><path fill="#564756" d="M 93.972656 516.246094 C 93.972656 516.246094 93.734375 518.835938 93.816406 519.609375 C 93.898438 520.382812 102.246094 523.117188 105.613281 525.277344 C 108.980469 527.4375 114.164062 530.851562 115.632812 532.941406 C 117.101562 535.03125 121.042969 537.238281 123.902344 537.945312 C 126.757812 538.65625 136.882812 539.710938 144.492188 536.933594 L 118.125 529.59375 L 102.171875 518.457031 Z M 93.972656 516.246094 " fill-opacity="1" fill-rule="nonzero"/><path fill="#f0e9e9" d="M 128.601562 523.710938 C 128.601562 523.710938 125.6875 526.382812 122.273438 527.378906 C 118.855469 528.375 113.464844 524.179688 109.753906 521.117188 C 106.042969 518.058594 99.535156 507.988281 98.910156 504.324219 C 98.910156 504.324219 93.679688 508.203125 93.722656 515.621094 C 93.578125 518.285156 98.90625 520.328125 102.496094 521.839844 C 106.085938 523.355469 114.246094 529.125 115.71875 531.117188 C 117.191406 533.113281 119.472656 536.851562 134.847656 537.566406 C 139.75 537.792969 144.949219 536.824219 144.949219 536.824219 C 144.949219 536.824219 137.191406 529.113281 128.601562 523.710938 Z M 128.601562 523.710938 " fill-opacity="1" fill-rule="nonzero"/><path fill="#de9681" d="M 157.597656 142.457031 C 157.597656 142.457031 163.8125 131.40625 180.308594 139.453125 C 196.804688 147.496094 231.628906 187.421875 234.535156 191.722656 C 237.703125 196.40625 234.496094 207.082031 223.765625 203.417969 C 213.035156 199.757812 169.238281 164.023438 163.90625 161.15625 C 158.574219 158.292969 153.167969 151.386719 157.597656 142.457031 Z M 157.597656 142.457031 " fill-opacity="1" fill-rule="nonzero"/><path fill="#f0f2f7" d="M 179.332031 135.046875 C 179.332031 135.046875 185.066406 135.972656 188.671875 139.550781 C 191.988281 142.839844 218.835938 168.738281 227.519531 178.871094 C 236.203125 189.003906 240.683594 196.167969 235.105469 202.441406 C 229.523438 208.714844 218.257812 202.53125 215.277344 200.5625 C 212.296875 198.589844 168.320312 166.640625 161.019531 160.507812 C 153.71875 154.371094 153.472656 143.25 158.851562 138.910156 C 164.226562 134.570312 175.636719 132.878906 179.332031 135.046875 Z M 179.332031 135.046875 " fill-opacity="1" fill-rule="nonzero"/><path fill="#e4e8f2" d="M 173.484375 170.066406 C 185.476562 179.019531 202.324219 191.292969 210.542969 197.199219 C 211.503906 194.054688 212.679688 184.316406 211.257812 178.03125 C 209.554688 170.515625 202.035156 163.285156 196.75 154.851562 C 194.195312 150.777344 187.871094 144.589844 187.871094 144.589844 C 187.871094 144.589844 173.875 158.65625 173.484375 170.066406 Z M 173.484375 170.066406 " fill-opacity="1" fill-rule="nonzero"/><path fill="#de9681" d="M 226.75 203.820312 C 226.75 203.820312 231.730469 204.984375 238.136719 205.257812 C 258.714844 206.132812 291.648438 205.5625 294.535156 205.082031 C 298.320312 204.457031 305.261719 195.5625 292.859375 193.875 C 280.453125 192.183594 266.152344 188.90625 255.285156 186.800781 C 242.804688 184.386719 226.980469 181.921875 222.097656 187.585938 C 217.214844 193.246094 220.5625 203.507812 226.75 203.820312 Z M 226.75 203.820312 " fill-opacity="1" fill-rule="nonzero"/><path fill="#de9681" d="M 277.625 192.632812 C 278.898438 192.753906 280.363281 192.949219 281.5625 193.15625 C 283.136719 193.425781 284.699219 193.703125 286.246094 193.835938 C 291.667969 191.691406 295.886719 188.875 296.746094 188.632812 C 298.117188 188.246094 301.847656 188.617188 301.847656 188.617188 C 302.425781 190.046875 316.816406 196.164062 318.921875 196.675781 C 319 196.699219 319.097656 196.710938 319.183594 196.730469 C 317.800781 202.996094 315.878906 208.390625 311.46875 213.011719 C 303.457031 210.492188 288.710938 205.5625 287.328125 205.136719 C 287.320312 205.125 287.316406 205.113281 287.308594 205.097656 C 285.882812 205.117188 281.617188 205.511719 277.226562 205.230469 C 272.839844 204.953125 274.386719 192.410156 277.625 192.632812 Z M 277.625 192.632812 " fill-opacity="1" fill-rule="nonzero"/><path fill="#f0f2f7" d="M 287.382812 193.050781 C 287.382812 193.050781 283.820312 199.382812 286.199219 205.546875 C 286.199219 205.546875 282.675781 206.5 276.800781 207 C 270.929688 207.5 230.527344 207.410156 224.265625 204.449219 C 218.003906 201.492188 216.277344 190.421875 222.035156 185.660156 C 227.792969 180.894531 232.644531 182.339844 236.152344 182.722656 C 239.664062 183.109375 280.480469 191.222656 282.589844 191.582031 C 284.695312 191.941406 287.382812 193.050781 287.382812 193.050781 Z M 287.382812 193.050781 " fill-opacity="1" fill-rule="nonzero"/><path fill="#de9681" d="M 163.410156 108.652344 C 163.410156 108.652344 163.800781 127.410156 153 138.546875 C 151.742188 139.847656 162.28125 147.578125 171.148438 146.5625 C 180.015625 145.546875 183.753906 141.855469 184.050781 137.011719 C 184.347656 132.171875 183.875 126.789062 186.039062 117.976562 C 188.207031 109.164062 184 101.738281 176.3125 99.953125 C 167.199219 97.839844 163.753906 104.480469 163.410156 108.652344 Z M 163.410156 108.652344 " fill-opacity="1" fill-rule="nonzero"/><path fill="#d38475" d="M 164.339844 110.101562 C 164.714844 105.929688 167.222656 97.84375 176.3125 99.953125 C 184 101.738281 188.207031 109.164062 186.039062 117.976562 C 184.546875 124.050781 184.441406 129.515625 184.175781 133.535156 C 166.101562 128.925781 168.644531 120.839844 164.339844 110.101562 Z M 164.339844 110.101562 " fill-opacity="1" fill-rule="nonzero"/><path fill="#de9681" d="M 182.90625 134.898438 C 182.90625 134.898438 187.976562 139.441406 190.632812 146.105469 C 193.246094 152.65625 198.3125 164.628906 202.144531 173.113281 C 205.976562 181.597656 208.175781 196.074219 197.382812 202.691406 C 196.457031 203.890625 196.046875 206.253906 195.363281 209.996094 C 194.679688 213.742188 193.351562 218.734375 191.605469 221.457031 C 191.457031 223.554688 187.753906 231.628906 187.167969 240.011719 C 186.578125 248.398438 135.554688 248.074219 132.347656 233.738281 C 132.492188 231.640625 135.882812 222.398438 134.082031 209 C 132.28125 195.601562 129.539062 171.605469 131.214844 159.71875 C 132.894531 147.828125 145.910156 138.050781 153.527344 135.160156 C 161.140625 132.265625 171.679688 129.691406 182.90625 134.898438 Z M 182.90625 134.898438 " fill-opacity="1" fill-rule="nonzero"/><path fill="#f0f2f7" d="M 206.402344 182.363281 C 202.757812 167.890625 199.945312 163.597656 195.984375 154.699219 C 190.804688 143.074219 187.382812 138.113281 184.097656 136.089844 C 184.097656 136.089844 187.296875 140.980469 186.15625 145.078125 L 188.132812 168.429688 L 175.144531 146.65625 C 157.519531 139.085938 156.511719 134.105469 156.511719 134.105469 L 139.539062 138.414062 C 139.539062 138.414062 134.226562 144.003906 132.582031 147.902344 C 132.582031 147.902344 126.078125 164.242188 130.328125 191.53125 C 134.574219 218.820312 132.144531 222.453125 130.957031 225.84375 C 129.769531 229.238281 124.007812 234.90625 128.796875 238.683594 C 133.585938 242.460938 169.136719 250.746094 186.601562 244.488281 C 191.332031 243.066406 191.066406 241.425781 191.996094 233.59375 C 192.925781 225.761719 198.007812 211.898438 198.472656 205.296875 C 198.472656 205.296875 210.046875 196.839844 206.402344 182.363281 Z M 206.402344 182.363281 " fill-opacity="1" fill-rule="nonzero"/><path fill="#e4e8f2" d="M 184.089844 206.199219 C 183.933594 207.738281 178.335938 240.148438 177.253906 246.429688 C 178.527344 246.304688 179.757812 246.136719 180.953125 245.929688 C 181.898438 238.664062 185.902344 208.234375 186.652344 206.199219 C 187.511719 203.886719 190.132812 197.8125 191.390625 193.195312 C 192.644531 188.574219 193.414062 181.164062 190.417969 170.609375 L 187.695312 145.890625 C 187.695312 145.890625 190.582031 147.003906 191.828125 149.054688 C 191.828125 149.054688 191.871094 146.875 190.535156 143.714844 C 188.101562 139.503906 186.074219 137.308594 184.097656 136.085938 C 184.097656 136.085938 187.296875 140.980469 186.15625 145.078125 L 188.132812 168.429688 L 175.144531 146.65625 C 157.519531 139.085938 156.511719 134.105469 156.511719 134.105469 L 152.015625 135.246094 C 153.238281 138.953125 158.007812 150.808594 170.566406 156.875 C 170.566406 156.875 169.710938 150.851562 173.988281 148.199219 C 173.988281 148.199219 186.425781 169.328125 187.695312 171.636719 C 188.964844 173.945312 190.761719 186.5625 188.964844 192.617188 C 187.167969 198.667969 184.261719 204.492188 184.089844 206.199219 Z M 184.089844 206.199219 " fill-opacity="1" fill-rule="nonzero"/><path fill="#e4e8f2" d="M 152.898438 185.585938 C 148.355469 196.222656 141.980469 222.324219 145.320312 225.527344 C 152.363281 232.289062 162.28125 245.132812 191.351562 238.886719 C 190.816406 242.335938 189.992188 243.46875 186.601562 244.488281 C 169.136719 250.746094 133.585938 242.460938 128.796875 238.683594 C 124.007812 234.902344 129.769531 229.238281 130.957031 225.84375 C 132.144531 222.453125 134.574219 218.820312 130.324219 191.53125 C 128.046875 176.878906 129.027344 166.402344 130.421875 159.835938 C 146.984375 157.320312 156.007812 156.875 156.007812 156.875 C 156.007812 156.875 157.4375 174.949219 152.898438 185.585938 Z M 152.898438 185.585938 " fill-opacity="1" fill-rule="nonzero"/><path fill="#e4e8f2" d="M 198.457031 205.257812 C 196.117188 205.910156 193.597656 205.902344 191.390625 206.972656 C 193.371094 207.640625 196.75 206.117188 198.457031 205.257812 Z M 198.457031 205.257812 " fill-opacity="1" fill-rule="nonzero"/><path fill="#e4e8f2" d="M 179.210938 206.160156 C 179.210938 206.160156 166.777344 212.871094 151.429688 203.105469 C 151.429688 203.105469 166.804688 208.449219 179.210938 206.160156 Z M 179.210938 206.160156 " fill-opacity="1" fill-rule="nonzero"/><path fill="#de9681" d="M 172.265625 59.21875 C 172.265625 59.21875 149.074219 61.335938 151.066406 88.777344 C 152.976562 115.140625 176.3125 135.539062 195.011719 128.980469 C 200.933594 126.507812 204.171875 112.546875 203.273438 91.878906 C 202.375 71.207031 192.730469 57.394531 172.265625 59.21875 Z M 172.265625 59.21875 " fill-opacity="1" fill-rule="nonzero"/><path fill="#d38475" d="M 190.230469 106.664062 C 190.230469 106.664062 189.164062 104.746094 184.320312 105.25 C 180.378906 105.660156 177.460938 106.503906 177.699219 108.960938 C 177.703125 112.171875 192.71875 111.40625 190.230469 106.664062 Z M 190.230469 106.664062 " fill-opacity="1" fill-rule="nonzero"/><path fill="#d38475" d="M 197.339844 107.046875 C 197.339844 108.183594 200.230469 108.945312 202.945312 109.171875 C 203.121094 107.359375 203.246094 105.441406 203.328125 103.425781 C 199.847656 103.875 197.117188 104.78125 197.339844 107.046875 Z M 197.339844 107.046875 " fill-opacity="1" fill-rule="nonzero"/><path fill="#192b4f" d="M 182.914062 100.996094 C 183.03125 102.421875 183.996094 103.503906 185.066406 103.414062 C 186.136719 103.324219 186.90625 102.097656 186.789062 100.671875 C 186.667969 99.246094 185.703125 98.164062 184.632812 98.253906 C 183.5625 98.339844 182.792969 99.570312 182.914062 100.996094 Z M 182.914062 100.996094 " fill-opacity="1" fill-rule="nonzero"/><path fill="#192b4f" d="M 196.605469 99.507812 C 196.71875 100.878906 197.648438 101.921875 198.679688 101.835938 C 199.710938 101.75 200.453125 100.566406 200.339844 99.195312 C 200.222656 97.820312 199.292969 96.777344 198.261719 96.863281 C 197.230469 96.949219 196.488281 98.132812 196.605469 99.507812 Z M 196.605469 99.507812 " fill-opacity="1" fill-rule="nonzero"/><path fill="#c97565" d="M 193.226562 111.097656 C 194.015625 111.054688 195.441406 110.914062 196.246094 110.441406 C 197.332031 109.796875 196.871094 108.828125 196.332031 107.707031 L 196.265625 107.566406 C 193.039062 100.792969 193.203125 97.816406 193.203125 97.785156 C 193.226562 97.449219 192.972656 97.152344 192.636719 97.128906 C 192.296875 97.101562 192.003906 97.351562 191.976562 97.6875 C 191.964844 97.816406 191.75 100.949219 195.152344 108.097656 L 195.222656 108.238281 C 195.429688 108.675781 195.664062 109.167969 195.671875 109.34375 C 195.664062 109.351562 195.644531 109.363281 195.617188 109.378906 C 195.015625 109.738281 193.492188 109.878906 192.675781 109.886719 C 192.339844 109.890625 192.0625 110.164062 192.066406 110.507812 C 192.070312 110.847656 192.347656 111.121094 192.6875 111.117188 C 192.75 111.117188 192.949219 111.113281 193.226562 111.097656 Z M 193.226562 111.097656 " fill-opacity="1" fill-rule="nonzero"/><path fill="#192b4f" d="M 187.726562 93.105469 C 187.726562 93.105469 188.628906 92.996094 188.671875 93.601562 C 188.714844 94.203125 188.644531 95.546875 188.265625 95.730469 C 187.890625 95.914062 183.207031 96.007812 181.398438 96.140625 C 179.59375 96.277344 176.730469 96.886719 176.578125 96.6875 C 176.425781 96.484375 177.492188 95.308594 179.515625 94.640625 C 181.234375 94.074219 185.328125 93.074219 187.726562 93.105469 Z M 187.726562 93.105469 " fill-opacity="1" fill-rule="nonzero"/><path fill="#192b4f" d="M 202.941406 93.976562 C 202.941406 93.976562 203.816406 93.964844 203.839844 93.421875 C 203.875 92.71875 200.953125 91.789062 196.007812 92.34375 C 194.566406 92.578125 194.8125 94.289062 195.222656 95.058594 C 195.601562 95.765625 197.644531 94.25 202.941406 93.976562 Z M 202.941406 93.976562 " fill-opacity="1" fill-rule="nonzero"/><path fill="#d38475" d="M 194.125 119.078125 C 192.746094 119.0625 191.722656 119.515625 191.667969 119.539062 C 191.390625 119.664062 191.269531 119.988281 191.394531 120.265625 C 191.519531 120.539062 191.839844 120.660156 192.117188 120.539062 C 192.144531 120.527344 193.617188 119.890625 195.257812 120.324219 C 195.546875 120.402344 195.847656 120.226562 195.925781 119.9375 C 196.003906 119.644531 195.828125 119.34375 195.539062 119.269531 C 195.042969 119.136719 194.566406 119.082031 194.125 119.078125 Z M 194.125 119.078125 " fill-opacity="1" fill-rule="nonzero"/><path fill="#ffffff" d="M 198.105469 113.96875 C 195.160156 114.421875 189.640625 114.808594 187.527344 114.945312 C 187.140625 114.972656 186.949219 115.429688 187.207031 115.714844 C 188.058594 116.664062 190.007812 118.195312 193.605469 118.011719 C 196.671875 117.859375 198.058594 115.789062 198.597656 114.621094 C 198.753906 114.285156 198.472656 113.914062 198.105469 113.96875 Z M 198.105469 113.96875 " fill-opacity="1" fill-rule="nonzero"/><path fill="#192b4f" d="M 146.007812 100.195312 C 146.007812 100.195312 140.660156 99.359375 140.019531 106.089844 C 139.738281 109.0625 138.027344 108.65625 138.511719 111.582031 C 138.996094 114.507812 139.125 113.84375 139.738281 116.105469 C 140.351562 118.371094 140.511719 121.3125 143.171875 121.988281 C 145.835938 122.667969 146.550781 123.777344 148.402344 124.660156 C 150.253906 125.542969 153.027344 125.230469 154.128906 124.351562 C 155.230469 123.472656 156.761719 124.3125 157.621094 122.082031 C 157.621094 122.082031 153.851562 103.457031 146.007812 100.195312 Z M 146.007812 100.195312 " fill-opacity="1" fill-rule="nonzero"/><path fill="#152545" d="M 148.621094 113.511719 C 145.640625 111.355469 144.890625 106.007812 145.398438 100.207031 Z M 148.621094 113.511719 " fill-opacity="1" fill-rule="nonzero"/><path fill="#192b4f" d="M 190.292969 71.582031 C 190.292969 71.582031 198.28125 76.730469 200.507812 81.527344 C 202.734375 86.328125 202.304688 93.566406 202.824219 97.148438 C 203.347656 100.726562 203.949219 102.191406 204.714844 104.515625 C 205.480469 106.84375 205.050781 108.015625 204.234375 111.171875 C 203.421875 114.332031 204.761719 117.867188 207.285156 119.042969 C 207.285156 119.042969 204.644531 115.742188 205.960938 112.71875 C 207.273438 109.699219 208.785156 107.320312 207.84375 105.074219 C 206.90625 102.832031 204.765625 99.664062 206.054688 96.152344 C 207.339844 92.640625 207.789062 79.660156 203.542969 70.871094 C 199.296875 62.078125 185.410156 57.085938 178.894531 57.929688 C 178.894531 57.929688 164.320312 55.433594 155.867188 62.9375 C 147.410156 70.445312 144.484375 80.113281 144.800781 92.066406 C 145.117188 104.019531 147.351562 113.574219 151.15625 118.421875 C 154.335938 122.464844 160.945312 124.550781 161.082031 124.050781 C 161.21875 123.550781 163.167969 120.832031 164.613281 113.570312 C 165.832031 107.4375 165.046875 100.089844 166.003906 99.546875 C 166.957031 99 169.941406 104.980469 169.710938 106.796875 C 169.480469 108.613281 167.703125 112.152344 169.308594 114.527344 C 170.910156 116.902344 173.410156 117.585938 172.929688 120.890625 C 172.453125 124.195312 172.335938 128.140625 174.34375 128.851562 C 174.34375 128.851562 173.394531 126.441406 174.425781 124.253906 C 175.457031 122.066406 175.960938 119.253906 174.890625 117.671875 C 173.820312 116.089844 169.527344 112.546875 170.886719 110.34375 C 172.246094 108.136719 174.199219 107.867188 174.433594 103.101562 C 174.671875 98.332031 173.148438 94.480469 173.855469 92.308594 C 174.558594 90.140625 177.058594 87.871094 181.234375 86.171875 C 185.410156 84.472656 188.382812 78.738281 190.292969 71.582031 Z M 190.292969 71.582031 " fill-opacity="1" fill-rule="nonzero"/><path fill="#152545" d="M 190.292969 71.582031 C 189.5625 65.417969 185.101562 59.378906 178.894531 57.929688 C 184.449219 60.683594 188.1875 65.863281 190.292969 71.582031 Z M 190.292969 71.582031 " fill-opacity="1" fill-rule="nonzero"/><path fill="#152545" d="M 186.132812 70.496094 C 178.558594 73.945312 180.121094 77.652344 176.019531 83.265625 C 174.644531 85.394531 172.242188 86.03125 170.167969 87.179688 C 167.546875 89.011719 165.882812 92.3125 166.152344 95.511719 C 166.3125 92.804688 167.726562 90.144531 169.800781 88.445312 C 172.28125 86.652344 174.832031 86.75 176.792969 83.867188 C 180.960938 78.15625 178.96875 74.914062 186.132812 70.496094 Z M 186.132812 70.496094 " fill-opacity="1" fill-rule="nonzero"/><path fill="#152545" d="M 181.050781 67.488281 C 176.835938 68.445312 172.738281 70.792969 170.628906 74.6875 C 166.746094 80.296875 160.21875 85.960938 161.445312 93.46875 C 161.21875 86.03125 167.640625 80.964844 171.402344 75.199219 C 173.332031 71.359375 177.132812 68.988281 181.050781 67.488281 Z M 181.050781 67.488281 " fill-opacity="1" fill-rule="nonzero"/><path fill="#152545" d="M 180.777344 62.421875 C 173.527344 61.941406 165.71875 64.027344 160.902344 69.757812 C 158.523438 72.359375 156.511719 75.386719 155.429688 78.761719 C 154.949219 80.324219 154.636719 81.980469 154.730469 83.617188 C 154.808594 84.542969 154.847656 85.679688 154.796875 86.613281 C 154.601562 91.757812 153.679688 97.152344 155.351562 102.160156 C 153.824219 95.988281 155.980469 89.605469 155.605469 83.375 C 155.746094 77.289062 159.707031 71.976562 164.003906 67.960938 C 168.570312 63.988281 174.855469 62.617188 180.777344 62.421875 Z M 180.777344 62.421875 " fill-opacity="1" fill-rule="nonzero"/><path fill="#de9681" d="M 161.8125 97.871094 C 161.8125 97.871094 158.921875 98.628906 159.691406 103.257812 C 160.425781 107.703125 164.007812 112.332031 167.082031 110.929688 C 168.046875 110.417969 168.242188 106.378906 167.765625 102.882812 C 167.289062 99.390625 165.261719 97.242188 161.8125 97.871094 Z M 161.8125 97.871094 " fill-opacity="1" fill-rule="nonzero"/><path fill="#c97565" d="M 165.964844 107.714844 C 166.1875 101.488281 162.804688 100.335938 162.660156 100.289062 C 162.488281 100.230469 162.304688 100.328125 162.246094 100.5 C 162.191406 100.675781 162.285156 100.859375 162.457031 100.917969 C 162.554688 100.949219 164.355469 101.589844 165.046875 104.578125 C 163.949219 103.675781 162.472656 103.746094 162.390625 103.75 C 162.210938 103.761719 162.070312 103.917969 162.082031 104.101562 C 162.089844 104.28125 162.246094 104.421875 162.429688 104.414062 C 162.515625 104.40625 164.5 104.320312 165.253906 105.894531 C 165.304688 106.4375 165.328125 107.03125 165.304688 107.691406 C 165.296875 107.859375 165.417969 108.003906 165.578125 108.03125 C 165.589844 108.035156 165.605469 108.035156 165.621094 108.035156 C 165.804688 108.042969 165.957031 107.898438 165.964844 107.714844 Z M 165.964844 107.714844 " fill-opacity="1" fill-rule="nonzero"/><path fill="#de9681" d="M 144.523438 141.128906 C 144.523438 141.128906 161.148438 144.296875 153.96875 168.378906 C 146.789062 192.457031 124.871094 232.378906 115.703125 233.984375 C 105.503906 235.769531 105.242188 227.109375 107.925781 218.054688 C 110.609375 209 125.285156 157.074219 128.085938 152.539062 C 130.890625 148 135.402344 139.773438 144.523438 141.128906 Z M 144.523438 141.128906 " fill-opacity="1" fill-rule="nonzero"/><path fill="#f0f2f7" d="M 140.707031 138.132812 C 140.707031 138.132812 134.375 138.285156 129.121094 148.574219 C 123.867188 158.863281 105.40625 217.316406 105.019531 224.371094 C 104.636719 231.429688 107.898438 235.496094 112.878906 236.351562 C 117.855469 237.203125 123.890625 233.039062 128.769531 226.492188 C 133.648438 219.949219 145.996094 191.273438 152.652344 175.742188 C 160.347656 157.78125 159.320312 138.003906 140.707031 138.132812 Z M 140.707031 138.132812 " fill-opacity="1" fill-rule="nonzero"/><path fill="#de9681" d="M 120.625 307.382812 C 121.90625 306.421875 121.230469 312.9375 122.222656 316.5625 C 123.210938 320.1875 124.558594 321.4375 125.476562 320.59375 C 126.398438 319.746094 125.640625 315.421875 125.46875 311.832031 C 125.300781 308.246094 126.703125 301.277344 126.328125 297.128906 C 125.953125 292.992188 121.792969 285.925781 121.785156 285.886719 C 120.972656 281.484375 116.394531 282.5625 116.324219 282.570312 C 114.570312 283.117188 112.617188 282.542969 112.617188 287.832031 C 112.609375 292.898438 110.410156 297.839844 110.144531 298.804688 C 109.460938 301.28125 105.355469 309.59375 105.65625 311.160156 C 105.953125 312.726562 110.226562 322.871094 111.070312 323.726562 C 111.917969 324.585938 116.160156 327.359375 117.0625 327.960938 C 117.960938 328.566406 120.804688 330.875 121.59375 331.480469 C 122.382812 332.089844 123.496094 332.15625 123.761719 330.445312 C 124.023438 328.734375 118.449219 319.875 117.941406 317.792969 C 117.828125 317.328125 118.046875 315.449219 118.414062 313.011719 C 118.910156 309.742188 119.34375 308.34375 120.625 307.382812 Z M 120.625 307.382812 " fill-opacity="1" fill-rule="nonzero"/><path fill="#de9681" d="M 121.011719 330.355469 C 121.011719 330.355469 119.054688 332.660156 115.78125 329.386719 C 115.78125 329.386719 113.726562 330.886719 111.164062 326.261719 C 111.164062 326.261719 109.039062 326.078125 108.082031 323.710938 C 107.449219 322.148438 104.515625 314.664062 104.234375 312.914062 C 103.953125 311.160156 109.472656 300.667969 109.472656 300.667969 L 115.460938 319.566406 Z M 121.011719 330.355469 " fill-opacity="1" fill-rule="nonzero"/><path fill="#c97565" d="M 120.601562 330.699219 C 118.945312 327.691406 117.234375 324.515625 115.527344 321.527344 C 114.171875 318.765625 113.828125 315.683594 113.316406 312.664062 L 113.230469 312.664062 C 112.898438 315.996094 113.289062 319.605469 115.246094 322.417969 C 116.980469 325.144531 118.59375 327.695312 120.367188 330.382812 Z M 120.601562 330.699219 " fill-opacity="1" fill-rule="nonzero"/><path fill="#c97565" d="M 111.164062 326.261719 C 109.777344 321.851562 107.902344 317.523438 106.867188 313.003906 L 106.785156 313.015625 C 106.414062 315.367188 107.183594 317.796875 108.265625 319.875 C 109.097656 321.761719 110.117188 324.058594 110.96875 325.90625 Z M 111.164062 326.261719 " fill-opacity="1" fill-rule="nonzero"/><path fill="#c97565" d="M 115.78125 329.386719 C 112.925781 324.335938 110.957031 318.902344 109.523438 313.285156 L 109.441406 313.292969 C 109.347656 319.269531 112.328125 324.113281 115.453125 328.96875 Z M 115.78125 329.386719 " fill-opacity="1" fill-rule="nonzero"/><path fill="#de9681" d="M 116.769531 218.828125 C 116.769531 218.828125 122.273438 218.789062 124.792969 226.535156 C 126.667969 232.304688 128.066406 249.84375 126.078125 263.324219 C 124.089844 276.804688 123.703125 291.828125 122.882812 297.40625 C 122.058594 302.984375 115.011719 303.085938 112.925781 294.039062 C 110.835938 284.992188 105.390625 234.101562 105.898438 228.410156 C 106.402344 222.71875 110.320312 218.730469 116.769531 218.828125 Z M 116.769531 218.828125 " fill-opacity="1" fill-rule="nonzero"/><path fill="#f0f2f7" d="M 111.898438 288.175781 C 111.898438 288.175781 119.066406 283.359375 123.65625 288.796875 C 123.65625 288.796875 125.136719 285.824219 125.589844 281.042969 C 125.832031 278.519531 128.292969 247.882812 128.457031 241.328125 C 128.980469 220.324219 127.410156 216.855469 120.007812 213.890625 C 112.609375 210.929688 106.257812 221.839844 105.292969 225.53125 C 104.332031 229.222656 105.859375 256.722656 106.90625 264.808594 C 108.589844 277.816406 111.898438 288.175781 111.898438 288.175781 Z M 111.898438 288.175781 " fill-opacity="1" fill-rule="nonzero"/><path fill="#9e5959" d="M 447.699219 237.988281 C 447.699219 237.988281 427.882812 233.472656 418.90625 249.371094 C 409.929688 265.269531 406.84375 374.773438 408.019531 386.195312 C 409.195312 397.617188 431.824219 402.152344 439.402344 384.839844 C 446.984375 367.523438 468.875 286.035156 469.828125 274.082031 C 470.78125 262.128906 467.242188 244.402344 447.699219 237.988281 Z M 447.699219 237.988281 " fill-opacity="1" fill-rule="nonzero"/><path fill="#914d4d" d="M 464.902344 251.105469 L 424.480469 267.285156 C 424.480469 267.285156 433.777344 286.203125 435.015625 288.578125 C 435.941406 290.351562 443.90625 336.554688 447.871094 359.773438 C 457.1875 328.949219 469.128906 282.84375 469.828125 274.082031 C 470.375 267.246094 469.449219 258.523438 464.902344 251.105469 Z M 464.902344 251.105469 " fill-opacity="1" fill-rule="nonzero"/><path fill="#69948a" d="M 406.578125 393.746094 C 407.726562 416.066406 431.753906 412.5625 442.652344 384.6875 C 453.542969 356.820312 461.660156 299.3125 465.371094 273.820312 C 469.085938 248.328125 467.503906 235.039062 447.222656 230.980469 C 447.222656 230.980469 433.261719 230.859375 422.609375 239.863281 C 417.277344 244.363281 412.777344 251.136719 411.246094 261.34375 C 411.207031 261.589844 411.171875 261.839844 411.132812 262.105469 C 410.574219 265.957031 410.074219 270.53125 409.617188 275.632812 C 409.546875 276.371094 409.488281 277.117188 409.417969 277.878906 C 406.339844 314.324219 405.601562 374.746094 406.578125 393.746094 Z M 406.578125 393.746094 " fill-opacity="1" fill-rule="nonzero"/><path fill="#558579" d="M 446.882812 372.019531 C 453.492188 349.339844 458.824219 317.542969 462.425781 293.816406 L 438.957031 268.789062 L 436.632812 281.796875 C 436.632812 281.796875 427.105469 275.0625 423.386719 268.558594 C 423.386719 268.558594 431.753906 291.550781 432.917969 296.429688 C 433.855469 300.371094 443.296875 352.265625 446.882812 372.019531 Z M 446.882812 372.019531 " fill-opacity="1" fill-rule="nonzero"/><path fill="#9e5959" d="M 407.820312 381.738281 C 407.820312 381.738281 410.5625 501.234375 411.320312 507.890625 C 412.074219 514.546875 425.152344 520.191406 428.222656 507.75 C 431.296875 495.304688 435.5625 467.625 438.132812 454.179688 C 440.699219 440.738281 443.441406 400.132812 440.625 384.625 C 437.808594 369.117188 410.515625 362.058594 407.820312 381.738281 Z M 407.820312 381.738281 " fill-opacity="1" fill-rule="nonzero"/><path fill="#9e5959" d="M 411.6875 503.816406 C 411.6875 503.816406 411.820312 510.523438 404.9375 512.917969 C 398.054688 515.316406 377.625 516.664062 375.3125 523.132812 C 373 529.601562 384.449219 530.855469 390.765625 531.300781 C 397.082031 531.746094 404.480469 529.730469 412.585938 530.527344 C 420.691406 531.320312 430.421875 531.839844 432.179688 526.910156 C 433.9375 521.984375 427.683594 511.972656 428.984375 500.753906 C 430.285156 489.539062 412.332031 490.164062 411.6875 503.816406 Z M 411.6875 503.816406 " fill-opacity="1" fill-rule="nonzero"/><path fill="#e5e5e5" d="M 435.710938 526.296875 C 435.710938 526.296875 436.097656 529.410156 435.828125 530.023438 C 435.554688 530.640625 430.132812 533.246094 423.015625 533.039062 C 415.894531 532.835938 408.648438 531.25 402.101562 531.742188 C 395.558594 532.230469 386.160156 533.519531 380.90625 532.082031 C 375.65625 530.644531 372.742188 528.914062 372.414062 528.328125 C 372.085938 527.742188 372.148438 525.269531 372.148438 525.269531 Z M 435.710938 526.296875 " fill-opacity="1" fill-rule="nonzero"/><path fill="#bf7660" d="M 388.445312 529.675781 C 382.554688 529.773438 375.855469 527.261719 373.359375 526.234375 C 372.632812 525.933594 372.070312 525.332031 371.828125 524.585938 C 371.296875 522.9375 370.882812 520.097656 372.722656 518.316406 C 376.582031 514.578125 386.257812 514 396.695312 511.699219 C 407.128906 509.398438 411.375 506.125 411.410156 503.054688 C 411.441406 500.421875 409.710938 488.613281 409.210938 485.261719 C 409.089844 484.433594 409.425781 483.597656 410.101562 483.101562 C 411.59375 482.007812 412.71875 481.75 414.542969 482.667969 C 415.742188 483.273438 416.871094 486.050781 416.871094 486.050781 C 422.886719 485.535156 430.320312 482.371094 432.71875 480.984375 C 433.210938 480.699219 433.820312 481.0625 433.804688 481.628906 C 433.753906 483.40625 433.628906 486.953125 433.308594 492.136719 C 432.832031 499.871094 432.441406 503.082031 433.601562 508.445312 C 434.757812 513.8125 436.601562 520.953125 435.710938 526.296875 C 434.523438 527.976562 427.3125 529.644531 421.21875 529.449219 C 415.121094 529.257812 402.164062 527.945312 398.285156 528.730469 C 394.40625 529.515625 390.375 529.644531 388.445312 529.675781 Z M 388.445312 529.675781 " fill-opacity="1" fill-rule="nonzero"/><path fill="#cfb4b4" d="M 410.585938 523.207031 C 410.226562 524.023438 410.59375 524.976562 411.410156 525.335938 C 412.226562 525.699219 413.179688 525.328125 413.542969 524.515625 C 413.902344 523.699219 413.535156 522.746094 412.71875 522.386719 C 411.902344 522.023438 410.949219 522.394531 410.585938 523.207031 Z M 410.585938 523.207031 " fill-opacity="1" fill-rule="nonzero"/><path fill="#cfb4b4" d="M 401.910156 523.199219 C 401.546875 524.011719 401.917969 524.964844 402.734375 525.328125 C 403.550781 525.6875 404.503906 525.320312 404.863281 524.503906 C 405.222656 523.6875 404.855469 522.734375 404.039062 522.375 C 403.222656 522.011719 402.269531 522.382812 401.910156 523.199219 Z M 401.910156 523.199219 " fill-opacity="1" fill-rule="nonzero"/><path fill="#cfb4b4" d="M 416.871094 486.050781 C 416.871094 486.050781 416.925781 501.226562 416.375 506.128906 C 415.824219 511.035156 412.753906 513.648438 409.492188 514.707031 C 406.226562 515.765625 389.832031 518.226562 389.832031 518.226562 C 389.832031 518.226562 408.097656 514.53125 410.71875 512.601562 C 413.335938 510.671875 415.011719 507.882812 415.199219 505.464844 C 415.386719 503.046875 416.871094 486.050781 416.871094 486.050781 Z M 416.871094 486.050781 " fill-opacity="1" fill-rule="nonzero"/><path fill="#ededed" d="M 373.410156 526.453125 C 372.480469 526.015625 372.070312 525.332031 371.828125 524.585938 C 371.296875 522.9375 370.882812 520.097656 372.722656 518.316406 C 375.128906 515.988281 379.789062 514.886719 385.488281 513.828125 C 388.785156 519.511719 388.308594 527.34375 388.078125 529.679688 C 382.328125 529.886719 375.800781 527.578125 373.410156 526.453125 Z M 373.410156 526.453125 " fill-opacity="1" fill-rule="nonzero"/><path fill="#69948a" d="M 436.566406 506.074219 C 436.78125 504.1875 442.796875 449.117188 443.960938 428.214844 C 445.121094 407.3125 445.230469 377.257812 445.230469 377.257812 C 445.230469 377.257812 441.667969 365.644531 421.21875 366.339844 C 421.21875 366.339844 407.042969 366.339844 406.347656 381.4375 C 405.710938 395.222656 405.925781 490.101562 406.191406 505.28125 C 410.582031 506.457031 425.847656 507.34375 436.566406 506.074219 Z M 436.566406 506.074219 " fill-opacity="1" fill-rule="nonzero"/><path fill="#9e5959" d="M 407.75 216.367188 C 407.75 216.367188 410.183594 231.832031 411.433594 241.113281 C 412.6875 250.398438 412.730469 273.246094 438.753906 284.851562 C 462.214844 295.316406 482.980469 281.449219 486.703125 274.984375 C 492.40625 265.085938 491.957031 251.664062 487.917969 238.308594 C 483.878906 224.953125 476.417969 212.050781 475.976562 189.410156 C 475.535156 166.773438 400.65625 175.539062 407.75 216.367188 Z M 407.75 216.367188 " fill-opacity="1" fill-rule="nonzero"/><path fill="#69948a" d="M 407.78125 230.15625 C 407.78125 230.15625 412.292969 246.777344 413.839844 264.945312 C 414.175781 268.949219 416.070312 272.46875 418.972656 275.511719 C 419.875 276.453125 420.871094 277.355469 421.957031 278.195312 C 430.792969 285.191406 445.144531 289.199219 456.433594 290.453125 C 473.566406 292.355469 490 288.351562 494.847656 265.003906 C 495.003906 264.308594 495.132812 263.59375 495.242188 262.882812 C 495.28125 262.621094 495.320312 262.363281 495.347656 262.097656 C 495.402344 261.722656 495.445312 261.34375 495.484375 260.972656 C 496.78125 247.890625 483.726562 223.683594 483.726562 223.683594 C 483.726562 223.683594 409.261719 230.394531 407.78125 230.15625 Z M 407.78125 230.15625 " fill-opacity="1" fill-rule="nonzero"/><path fill="#558579" d="M 459.53125 290.730469 L 438.957031 268.789062 L 436.632812 281.796875 C 436.632812 281.796875 427.105469 275.0625 423.386719 268.558594 C 423.386719 268.558594 425.84375 275.3125 428.28125 282.273438 C 436.78125 286.777344 447.554688 289.46875 456.4375 290.453125 C 457.472656 290.566406 458.503906 290.660156 459.53125 290.730469 Z M 459.53125 290.730469 " fill-opacity="1" fill-rule="nonzero"/><path fill="#9e5959" d="M 463.71875 238.414062 C 463.71875 238.414062 440.226562 238.164062 442.089844 267.023438 C 443.953125 295.882812 461.339844 387.738281 466.308594 397.667969 C 471.277344 407.601562 494.25 405.738281 496.734375 384.015625 C 499.21875 362.292969 499.609375 295.789062 496.734375 268.917969 C 493.675781 240.335938 481.417969 236.550781 463.71875 238.414062 Z M 463.71875 238.414062 " fill-opacity="1" fill-rule="nonzero"/><path fill="#69948a" d="M 438.257812 269.953125 C 440.917969 291.890625 451.265625 351.425781 456.117188 371.355469 C 460.964844 391.277344 464.796875 408.324219 480.367188 407.816406 C 495.9375 407.300781 502.332031 400.871094 501.839844 388.753906 C 501.402344 377.871094 502.28125 307.703125 499.554688 272.101562 C 499.355469 269.410156 499.242188 266.949219 498.867188 264.386719 C 494.421875 234.042969 472.25 235.6875 467.746094 237.273438 C 447.792969 239.667969 435.214844 247.304688 438.257812 269.953125 Z M 438.257812 269.953125 " fill-opacity="1" fill-rule="nonzero"/><path fill="#9e5959" d="M 464.042969 390.847656 C 464.042969 390.847656 487.800781 506.597656 490.617188 513.246094 C 493.433594 519.890625 504.222656 521.917969 505.695312 509.558594 C 507.171875 497.195312 505.277344 451.101562 505.445312 437.136719 C 505.792969 407.953125 501.15625 390.378906 496.265625 381.464844 C 490.304688 370.589844 460.902344 362.457031 464.042969 390.847656 Z M 464.042969 390.847656 " fill-opacity="1" fill-rule="nonzero"/><path fill="#9e5959" d="M 488.851562 507.101562 C 488.851562 507.101562 489.90625 516.011719 482.195312 517.847656 C 474.484375 519.683594 454.996094 524.730469 452.335938 528.652344 C 449.679688 532.574219 456.71875 535.988281 463.492188 536.90625 C 470.269531 537.824219 485.265625 535.996094 495.53125 535.824219 C 505.792969 535.652344 508.796875 533.816406 509.714844 531.109375 C 511.320312 526.363281 505.234375 517.304688 505.695312 509.558594 C 506.449219 496.855469 488.976562 493.273438 488.851562 507.101562 Z M 488.851562 507.101562 " fill-opacity="1" fill-rule="nonzero"/><path fill="#e5e5e5" d="M 512.234375 530.386719 C 512.234375 530.386719 512.757812 533.480469 512.511719 534.105469 C 512.265625 534.734375 506.960938 537.570312 499.839844 537.671875 C 492.71875 537.773438 486.121094 537.757812 478.746094 538.242188 C 472.199219 538.671875 462.511719 538.949219 457.203125 537.738281 C 451.894531 536.527344 449.4375 535.714844 449.085938 535.140625 C 448.730469 534.570312 448.6875 532.097656 448.6875 532.097656 Z M 512.234375 530.386719 " fill-opacity="1" fill-rule="nonzero"/><path fill="#bf7660" d="M 465.160156 535.800781 C 459.277344 536.148438 452.476562 533.929688 449.9375 533.007812 C 449.199219 532.738281 448.613281 532.164062 448.339844 531.429688 C 447.734375 529.804688 447.199219 526.984375 448.960938 525.125 C 452.65625 521.226562 462.296875 520.230469 472.625 517.484375 C 482.953125 514.734375 487.050781 511.285156 486.953125 508.210938 C 486.871094 505.582031 484.632812 493.855469 483.992188 490.53125 C 483.832031 489.707031 484.132812 488.859375 484.785156 488.335938 C 486.230469 487.179688 487.34375 486.871094 489.203125 487.710938 C 490.429688 488.261719 491.675781 490.988281 491.675781 490.988281 C 497.664062 490.214844 504.957031 486.734375 507.292969 485.246094 C 507.769531 484.941406 508.394531 485.277344 508.402344 485.84375 C 508.433594 487.621094 508.457031 491.171875 508.363281 496.363281 C 508.21875 504.109375 507.96875 507.335938 509.355469 512.644531 C 510.742188 517.957031 512.894531 525.011719 512.234375 530.386719 C 511.121094 532.117188 503.988281 534.09375 497.890625 534.164062 C 491.792969 534.230469 480.269531 535.046875 475.269531 535.433594 C 471.320312 535.742188 467.082031 535.6875 465.160156 535.800781 Z M 465.160156 535.800781 " fill-opacity="1" fill-rule="nonzero"/><path fill="#cfb4b4" d="M 487 528.382812 C 486.675781 529.214844 487.085938 530.152344 487.914062 530.476562 C 488.746094 530.800781 489.683594 530.390625 490.007812 529.5625 C 490.332031 528.730469 489.925781 527.792969 489.09375 527.46875 C 488.261719 527.144531 487.324219 527.554688 487 528.382812 Z M 487 528.382812 " fill-opacity="1" fill-rule="nonzero"/><path fill="#cfb4b4" d="M 478.332031 528.746094 C 478.003906 529.578125 478.414062 530.511719 479.246094 530.839844 C 480.074219 531.164062 481.011719 530.753906 481.339844 529.925781 C 481.664062 529.09375 481.253906 528.15625 480.421875 527.832031 C 479.59375 527.507812 478.65625 527.917969 478.332031 528.746094 Z M 478.332031 528.746094 " fill-opacity="1" fill-rule="nonzero"/><path fill="#cfb4b4" d="M 491.675781 490.988281 C 491.675781 490.988281 492.386719 506.148438 492.046875 511.074219 C 491.710938 515.996094 488.753906 518.742188 485.539062 519.9375 C 482.324219 521.136719 466.050781 524.300781 466.050781 524.300781 C 466.050781 524.300781 484.140625 519.824219 486.671875 517.78125 C 489.207031 515.738281 490.761719 512.878906 490.84375 510.457031 C 490.925781 508.03125 491.675781 490.988281 491.675781 490.988281 Z M 491.675781 490.988281 " fill-opacity="1" fill-rule="nonzero"/><path fill="#ededed" d="M 449.996094 533.226562 C 449.050781 532.828125 448.613281 532.164062 448.339844 531.429688 C 447.734375 529.804688 447.199219 526.984375 448.960938 525.125 C 451.265625 522.695312 455.875 521.394531 461.519531 520.09375 C 465.0625 525.628906 464.921875 533.476562 464.789062 535.816406 C 459.054688 536.273438 452.433594 534.246094 449.996094 533.226562 Z M 449.996094 533.226562 " fill-opacity="1" fill-rule="nonzero"/><path fill="#69948a" d="M 483.273438 508.917969 C 488.871094 509.414062 499.621094 511.511719 510.515625 508.582031 C 510.511719 490.800781 509.925781 451.605469 508.90625 436.484375 C 507.511719 415.8125 500.375 388.082031 498.746094 379.953125 C 497.121094 371.824219 460.105469 351.242188 459.40625 382.136719 C 459.40625 382.136719 483.683594 507.34375 483.273438 508.917969 Z M 483.273438 508.917969 " fill-opacity="1" fill-rule="nonzero"/><path fill="#9e5959" d="M 418.234375 122.085938 C 418.234375 122.085938 401.617188 116.4375 395.960938 137.582031 C 390.308594 158.726562 389.285156 192.371094 389.097656 204.464844 C 388.910156 216.5625 403.910156 222.289062 409.523438 211.488281 C 415.140625 200.6875 423.148438 158.453125 425 147.660156 C 426.855469 136.871094 426.609375 125.480469 418.234375 122.085938 Z M 418.234375 122.085938 " fill-opacity="1" fill-rule="nonzero"/><path fill="#564756" d="M 399.265625 127.027344 C 399.265625 127.027344 396.636719 128.523438 394.039062 137.082031 C 391.441406 145.644531 388.765625 180.34375 388.425781 201.203125 C 388.085938 222.066406 400.160156 217.875 403.324219 217.3125 C 406.484375 216.753906 410.847656 218.097656 413.78125 209.75 C 416.714844 201.402344 423.6875 156.257812 425.773438 142.976562 C 428.140625 127.894531 418.789062 109.089844 399.265625 127.027344 Z M 399.265625 127.027344 " fill-opacity="1" fill-rule="nonzero"/><path fill="#4a3a4a" d="M 393.664062 165.464844 C 393.289062 170.113281 391.535156 172.308594 389.714844 173.320312 C 389.03125 183.148438 388.554688 193.195312 388.425781 201.203125 C 388.335938 206.722656 389.121094 210.476562 390.371094 213.019531 C 392.027344 213.277344 393.300781 213.640625 393.832031 214.148438 C 394.207031 214.507812 394.59375 215.707031 394.984375 217.457031 C 398.246094 218.679688 401.804688 217.582031 403.324219 217.3125 C 406.484375 216.753906 410.847656 218.097656 413.78125 209.75 C 416.714844 201.402344 423.6875 156.257812 425.773438 142.976562 C 426.316406 139.519531 426.234375 135.875 425.566406 132.515625 C 410.503906 134.855469 397.304688 138.484375 397.304688 138.484375 C 397.304688 138.484375 394.5 155.074219 393.664062 165.464844 Z M 393.664062 165.464844 " fill-opacity="1" fill-rule="nonzero"/><path fill="#4a3a4a" d="M 381.300781 279.875 C 381.300781 279.875 368.023438 278.449219 357.125 267.667969 L 362.730469 260.203125 L 378.757812 267.953125 Z M 381.300781 279.875 " fill-opacity="1" fill-rule="nonzero"/><path fill="#9e5959" d="M 404.171875 215.480469 C 406.703125 218.976562 406.8125 223.671875 404.585938 227.371094 C 398.550781 237.40625 380.945312 268.207031 373.238281 276.113281 C 364.125 285.460938 360.140625 278 364.695312 268.5625 C 369.25 259.121094 373.316406 246.269531 376.351562 239.207031 C 381.289062 227.710938 384.328125 217.035156 389.300781 212.402344 C 392.777344 209.15625 400.382812 210.246094 404.171875 215.480469 Z M 404.171875 215.480469 " fill-opacity="1" fill-rule="nonzero"/><path fill="#9e5959" d="M 363.988281 266.71875 C 363.988281 266.71875 360.71875 275.015625 355.5625 279.789062 C 352.625 282.515625 352.921875 286.199219 352.921875 287.457031 C 352.921875 288.710938 353.175781 302.789062 353.550781 304.296875 C 353.929688 305.804688 358.832031 304.925781 359.964844 303.667969 C 361.097656 302.410156 362.738281 301.910156 364.367188 299.394531 C 366 296.882812 365.890625 295 366.753906 294.390625 C 367.621094 293.777344 369.898438 285.445312 370.777344 282.050781 C 371.660156 278.660156 375.519531 275.910156 376.25 273.632812 C 376.976562 271.351562 366.886719 262.25 363.988281 266.71875 Z M 363.988281 266.71875 " fill-opacity="1" fill-rule="nonzero"/><path fill="#914d4d" d="M 353.191406 298.75 L 365.167969 297.929688 C 365.984375 296.164062 366.070312 294.871094 366.753906 294.390625 C 366.976562 294.230469 367.292969 293.554688 367.65625 292.589844 C 366.257812 292.371094 364.597656 292.050781 363.957031 291.695312 C 362.761719 291.039062 364.050781 289.84375 364.867188 288.964844 C 365.6875 288.085938 366.785156 284.691406 366.535156 282.300781 C 366.285156 279.914062 357.769531 282.140625 357.769531 282.140625 C 357.769531 282.140625 356.945312 288.148438 356.570312 289.339844 C 356.191406 290.535156 353.929688 288.335938 353.929688 288.335938 L 352.941406 288.796875 C 352.976562 290.972656 353.0625 295.226562 353.191406 298.75 Z M 353.191406 298.75 " fill-opacity="1" fill-rule="nonzero"/><path fill="#9e5959" d="M 357.785156 281.667969 C 357.785156 281.667969 357.636719 286.769531 357.03125 290.113281 C 356.320312 294.054688 352.683594 294.667969 352.921875 295.8125 C 353.164062 296.960938 354.054688 296.875 356.570312 296.347656 C 360.367188 295.550781 360.5 291.894531 361.855469 290.78125 C 363.210938 289.664062 366.480469 287.5625 366.867188 281.703125 C 367.253906 275.847656 358.839844 277.136719 357.785156 281.667969 Z M 357.785156 281.667969 " fill-opacity="1" fill-rule="nonzero"/><path fill="#564756" d="M 392.53125 198.476562 C 397.503906 195.855469 414.230469 201.171875 413.027344 210.839844 C 411.878906 220.058594 381.300781 279.875 381.300781 279.875 C 381.300781 279.875 369.917969 266.296875 357.125 267.667969 C 357.125 267.667969 378.855469 221.121094 382.15625 215.28125 C 387.011719 206.695312 388.617188 200.539062 392.53125 198.476562 Z M 392.53125 198.476562 " fill-opacity="1" fill-rule="nonzero"/><path fill="#4a3a4a" d="M 392.53125 198.476562 C 389.058594 200.308594 387.398438 205.367188 383.675781 212.484375 C 388.09375 212.628906 392.6875 213.050781 393.832031 214.148438 C 395.5625 215.8125 397.566406 235.125 398.5 245.144531 C 405.679688 230.167969 412.496094 215.101562 413.027344 210.839844 C 414.230469 201.171875 397.503906 195.855469 392.53125 198.476562 Z M 392.53125 198.476562 " fill-opacity="1" fill-rule="nonzero"/><path fill="#9e5959" d="M 444.503906 113.605469 C 431.15625 113.433594 423.1875 116.398438 411.496094 121.875 C 403.671875 125.539062 402.054688 125.457031 398.945312 131.613281 C 393.484375 142.421875 396.628906 168.296875 400.128906 179.148438 C 403.628906 190 405.519531 214.480469 407.417969 220.304688 C 409.316406 226.128906 437.296875 231.414062 453.160156 226.464844 C 465.324219 222.667969 475.773438 214.808594 475.632812 203.160156 C 475.464844 189.421875 474.074219 170.535156 474.386719 158.089844 C 474.917969 136.992188 467.964844 119.421875 454.941406 115.863281 C 451.207031 114.84375 448.019531 113.652344 444.503906 113.605469 Z M 444.503906 113.605469 " fill-opacity="1" fill-rule="nonzero"/><path fill="#9e5959" d="M 429.554688 130.738281 C 435.59375 130.230469 444.625 126.144531 445.160156 118.785156 C 445.695312 111.421875 441.441406 114.507812 440.789062 94.664062 C 440.6875 91.464844 439.5 89.363281 437.710938 88.179688 C 429.230469 83.441406 414.984375 93.738281 417.183594 104.597656 C 417.183594 104.597656 418.34375 115.109375 416.6875 121.273438 C 413.082031 128.09375 422.628906 131.234375 429.554688 130.738281 Z M 429.554688 130.738281 " fill-opacity="1" fill-rule="nonzero"/><path fill="#914d4d" d="M 416.6875 121.273438 C 439.714844 113.816406 431.050781 104.34375 437.710938 88.179688 C 441.410156 79.199219 414.984375 93.738281 417.183594 104.597656 C 417.183594 104.597656 418.34375 115.109375 416.6875 121.273438 Z M 416.6875 121.273438 " fill-opacity="1" fill-rule="nonzero"/><path fill="#ffffff" d="M 401.148438 188.738281 C 403.199219 195.949219 407.519531 249.679688 407.78125 256.457031 C 407.910156 259.738281 411.726562 259.492188 429.171875 258.632812 C 459.851562 257.125 493.667969 245.621094 493.25 243.160156 C 491.097656 230.542969 482.644531 193.855469 481.765625 188.253906 C 479.941406 176.65625 477.929688 156.847656 477.070312 145.269531 C 475.226562 120.472656 460.988281 116.277344 460.988281 116.277344 C 454.253906 114.605469 443.28125 111.058594 443.28125 111.058594 C 441.78125 114.941406 435.8125 121.894531 418.21875 121.765625 C 416.15625 121.753906 417.097656 119.339844 417.097656 119.339844 C 400.660156 125.222656 401.425781 125.617188 400.242188 127.472656 C 394.148438 143.453125 399.09375 181.539062 401.148438 188.738281 Z M 401.148438 188.738281 " fill-opacity="1" fill-rule="nonzero"/><path fill="#564756" d="M 417.371094 117.207031 C 417.371094 117.207031 417.328125 117.691406 417.25 118.308594 C 417.167969 118.925781 417.097656 119.339844 417.097656 119.339844 C 417.097656 119.339844 410.410156 124.578125 408.15625 134.796875 C 405.902344 145.019531 401.710938 166.03125 403.050781 180.410156 C 404.394531 194.789062 411.0625 242.644531 412.703125 254.972656 C 414.339844 267.304688 408.421875 291.710938 408.421875 291.710938 L 405.0625 291.710938 C 405.0625 291.710938 406.40625 260.476562 404.226562 238.691406 C 402.046875 216.910156 397.515625 181.691406 395.992188 166.238281 C 393.578125 141.753906 398.117188 129.585938 399.574219 127.027344 C 402.273438 122.28125 417.371094 117.207031 417.371094 117.207031 Z M 417.371094 117.207031 " fill-opacity="1" fill-rule="nonzero"/><path fill="#4a3a4a" d="M 403.050781 180.410156 C 402.542969 174.964844 402.832031 168.570312 403.503906 162.167969 L 396.121094 167.511719 C 397.207031 178.15625 399.484375 196.671875 401.515625 214.128906 C 403.351562 214.226562 405.304688 214.195312 407.160156 213.910156 C 405.339844 200.15625 403.65625 186.886719 403.050781 180.410156 Z M 403.050781 180.410156 " fill-opacity="1" fill-rule="nonzero"/><path fill="#564756" d="M 443.28125 111.058594 C 443.28125 111.058594 443.816406 111.773438 443.84375 114.398438 C 443.875 117.417969 434.585938 132.050781 431.890625 138.6875 C 426.769531 151.296875 428.367188 162.617188 430.554688 180.410156 C 431.933594 191.644531 447.160156 251.050781 451.679688 294.390625 C 451.679688 294.390625 485.703125 297.527344 504.816406 288.636719 C 504.816406 288.636719 499.789062 259.964844 493.417969 230.980469 C 487.046875 201.996094 480.339844 153.0625 477.992188 137.648438 C 475.644531 122.230469 465.25 116.867188 462.066406 115.695312 C 458.878906 114.523438 442.65625 109.257812 442.65625 109.257812 C 442.65625 109.257812 442.765625 109.816406 442.929688 110.242188 C 443.09375 110.667969 443.28125 111.058594 443.28125 111.058594 Z M 443.28125 111.058594 " fill-opacity="1" fill-rule="nonzero"/><path fill="#4a3a4a" d="M 467.726562 153.464844 C 467.726562 153.464844 448.484375 129.101562 442.546875 130.789062 C 440.421875 131.394531 436.59375 134.035156 432.550781 137.171875 C 432.304688 137.710938 432.078125 138.222656 431.890625 138.6875 C 426.769531 151.296875 428.367188 162.617188 430.554688 180.410156 C 430.917969 183.382812 432.253906 189.730469 434.101562 198.253906 C 438.175781 194.570312 445.894531 187.332031 451.679688 180.378906 C 459.902344 170.492188 467.726562 153.464844 467.726562 153.464844 Z M 467.726562 153.464844 " fill-opacity="1" fill-rule="nonzero"/><path fill="#17254d" d="M 391.238281 61.414062 C 391.238281 61.414062 389.796875 70.695312 393.066406 81.324219 L 397.949219 60.695312 Z M 391.238281 61.414062 " fill-opacity="1" fill-rule="nonzero"/><path fill="#9e5959" d="M 414.824219 42.480469 C 414.824219 42.480469 395.558594 44.640625 393.347656 61.984375 C 391.136719 79.332031 394.738281 110.304688 406.144531 113.113281 C 416.550781 115.675781 431.796875 104.238281 437.886719 93.246094 C 444.292969 81.675781 446.023438 67.269531 441.332031 56.691406 C 437.222656 47.433594 429.972656 40.855469 414.824219 42.480469 Z M 414.824219 42.480469 " fill-opacity="1" fill-rule="nonzero"/><path fill="#17254d" d="M 430.839844 77.429688 C 430.839844 77.429688 429.320312 84.253906 429.535156 88.324219 C 429.75 92.390625 433.328125 97.691406 432.078125 102.226562 C 431.351562 104.855469 419.289062 117.101562 405.390625 115.488281 C 400.019531 114.828125 396.457031 103.855469 395.738281 97.710938 C 395.738281 97.710938 397.367188 97.121094 399.4375 96.425781 C 402.210938 95.496094 404.835938 94.28125 412.796875 96.371094 C 417.019531 97.480469 422.914062 98.164062 424.824219 95.710938 C 426.734375 93.253906 426.589844 74.988281 427.742188 70.417969 C 428.890625 65.84375 431.109375 75.140625 430.839844 77.429688 Z M 430.839844 77.429688 " fill-opacity="1" fill-rule="nonzero"/><path fill="#121d3f" d="M 411.269531 80.816406 C 411.230469 82.191406 412.035156 83.328125 413.070312 83.359375 C 414.101562 83.386719 414.96875 82.292969 415.007812 80.917969 C 415.046875 79.542969 414.238281 78.402344 413.207031 78.375 C 412.175781 78.347656 411.304688 79.4375 411.269531 80.816406 Z M 411.269531 80.816406 " fill-opacity="1" fill-rule="nonzero"/><path fill="#121d3f" d="M 396.730469 81.203125 C 396.691406 82.582031 397.5 83.71875 398.53125 83.746094 C 399.5625 83.777344 400.433594 82.683594 400.46875 81.308594 C 400.507812 79.933594 399.703125 78.792969 398.667969 78.765625 C 397.636719 78.738281 396.769531 79.828125 396.730469 81.203125 Z M 396.730469 81.203125 " fill-opacity="1" fill-rule="nonzero"/><path fill="#9e5959" d="M 404.183594 96.851562 C 404.183594 96.851562 407.214844 96.722656 409.753906 97.214844 C 411.210938 97.5 413.976562 98.324219 414.480469 98.925781 C 414.980469 99.527344 413.660156 102.265625 411.242188 103.019531 C 407.355469 104.226562 406.539062 103.109375 406.457031 101.546875 L 405.351562 101.449219 C 405.351562 101.449219 405.273438 103.429688 404.339844 103.316406 C 402.179688 103.054688 399.695312 101.277344 399.585938 99.242188 C 399.476562 97.210938 404.183594 96.851562 404.183594 96.851562 Z M 404.183594 96.851562 " fill-opacity="1" fill-rule="nonzero"/><path fill="#ffffff" d="M 412.558594 98.742188 C 413.105469 98.742188 413.320312 99.453125 412.867188 99.753906 C 411.554688 100.625 409.394531 101.769531 406.925781 101.917969 C 403.792969 102.109375 401.773438 100.671875 400.757812 99.660156 C 400.40625 99.3125 400.660156 98.714844 401.152344 98.714844 Z M 412.558594 98.742188 " fill-opacity="1" fill-rule="nonzero"/><path fill="#723333" d="M 405.511719 92.828125 C 405.976562 92.804688 406.324219 92.761719 406.414062 92.75 C 406.777344 92.707031 407.035156 92.378906 406.988281 92.019531 C 406.945312 91.65625 406.617188 91.398438 406.257812 91.445312 C 405.386719 91.550781 403.753906 91.605469 403.066406 91.308594 C 403.039062 91.296875 403.015625 91.285156 403.003906 91.277344 C 402.988281 91.089844 403.171875 90.535156 403.332031 90.042969 L 403.382812 89.882812 C 406.019531 81.839844 405.078125 79.433594 405.046875 79.296875 C 404.972656 78.941406 404.621094 78.714844 404.265625 78.792969 C 403.910156 78.867188 403.683594 79.214844 403.757812 79.570312 C 403.769531 79.625 404.621094 81.878906 402.132812 89.472656 L 402.078125 89.632812 C 401.664062 90.894531 401.304688 91.988281 402.546875 92.519531 C 403.355469 92.867188 404.640625 92.875 405.511719 92.828125 Z M 405.511719 92.828125 " fill-opacity="1" fill-rule="nonzero"/><path fill="#17254d" d="M 409.175781 72.9375 C 409.175781 72.9375 408.203125 72.945312 408.242188 73.589844 C 408.277344 74.234375 408.535156 75.648438 408.960938 75.792969 C 409.386719 75.9375 414.371094 75.398438 416.304688 75.292969 C 418.238281 75.1875 421.359375 75.445312 421.496094 75.210938 C 421.628906 74.976562 420.335938 73.875 418.097656 73.441406 C 416.195312 73.078125 411.714844 72.574219 409.175781 72.9375 Z M 409.175781 72.9375 " fill-opacity="1" fill-rule="nonzero"/><path fill="#17254d" d="M 393.65625 75.902344 C 393.65625 75.902344 392.515625 76.203125 392.414062 75.511719 C 392.28125 74.652344 395.46875 73.308594 400.789062 73.222656 C 402.347656 73.273438 402.324219 75.121094 401.992188 75.992188 C 401.6875 76.796875 399.3125 75.464844 393.65625 75.902344 Z M 393.65625 75.902344 " fill-opacity="1" fill-rule="nonzero"/><path fill="#914d4d" d="M 410.222656 88.800781 C 410.222656 88.800781 411.089844 86.617188 416.300781 86.492188 C 420.535156 86.390625 423.75 86.886719 423.832031 89.523438 C 424.265625 92.933594 408.230469 94.171875 410.222656 88.800781 Z M 410.222656 88.800781 " fill-opacity="1" fill-rule="nonzero"/><path fill="#914d4d" d="M 401.234375 90.53125 C 401.042969 92.195312 397.46875 92.835938 394.675781 93.1875 C 394.277344 91.210938 393.941406 89.164062 393.667969 87.089844 C 397.210938 87.144531 401.402344 87.648438 401.234375 90.53125 Z M 401.234375 90.53125 " fill-opacity="1" fill-rule="nonzero"/><path fill="#17254d" d="M 428.425781 58.574219 C 428.425781 58.574219 427.261719 63.257812 427.417969 66.160156 C 427.570312 69.058594 427.453125 73.246094 430.675781 77.28125 C 433.894531 81.316406 433.214844 81.597656 434.339844 86.171875 C 435.46875 90.746094 440.71875 101.636719 441.117188 102.457031 C 441.40625 103.042969 442.246094 102.261719 443.988281 95.847656 C 445.730469 89.433594 448.300781 75.148438 448.085938 63.910156 C 447.867188 52.671875 436.925781 41.875 426.269531 41.300781 C 426.269531 41.300781 415.941406 37.296875 406.441406 41.847656 C 396.945312 46.394531 390.117188 52.914062 391.066406 62.992188 L 393.1875 62.953125 C 393.1875 62.953125 393.59375 59.632812 394.09375 59.296875 C 396.367188 57.761719 399.070312 57.324219 401.277344 58.601562 C 401.277344 58.601562 410.09375 63.015625 414.484375 62.277344 C 414.484375 62.277344 423.453125 62.445312 428.425781 58.574219 Z M 428.425781 58.574219 " fill-opacity="1" fill-rule="nonzero"/><path fill="#9e5959" d="M 430.15625 82.777344 C 430.15625 82.777344 429.71875 73.722656 435.113281 73.375 C 440.511719 73.027344 440.886719 80.605469 437.664062 85.707031 C 435.859375 88.5625 430.640625 92.3125 430.15625 82.777344 Z M 430.15625 82.777344 " fill-opacity="1" fill-rule="nonzero"/><path fill="#723333" d="M 437.003906 79.609375 C 435.945312 79.480469 435.015625 79.90625 434.335938 80.386719 C 434.667969 79.386719 435.269531 78.472656 436.347656 78.035156 C 436.625 77.921875 436.761719 77.605469 436.648438 77.324219 C 436.535156 77.046875 436.21875 76.914062 435.9375 77.027344 C 432.085938 78.59375 432.921875 84.277344 432.957031 84.515625 C 433.003906 84.8125 433.28125 85.015625 433.578125 84.972656 C 433.882812 84.914062 434.078125 84.640625 434.035156 84.351562 C 434.03125 84.328125 433.890625 83.359375 433.984375 82.171875 C 433.992188 82.160156 434.007812 82.15625 434.015625 82.144531 C 434.027344 82.128906 435.335938 80.503906 436.871094 80.691406 C 437.167969 80.726562 437.441406 80.515625 437.476562 80.21875 C 437.511719 79.917969 437.300781 79.648438 437.003906 79.609375 Z M 437.003906 79.609375 " fill-opacity="1" fill-rule="nonzero"/><path fill="#9e5959" d="M 468.09375 135.621094 C 468.09375 135.621094 458.042969 120.796875 440.414062 134.53125 C 422.785156 148.265625 398.742188 175.851562 391.136719 185.582031 C 383.53125 195.3125 395.136719 207.839844 406.359375 202.503906 C 417.585938 197.164062 449.691406 168.253906 457.847656 160.609375 C 466.003906 152.964844 472.820312 143.542969 468.09375 135.621094 Z M 468.09375 135.621094 " fill-opacity="1" fill-rule="nonzero"/><path fill="#564756" d="M 388.699219 181.761719 C 383.5 187.527344 383.328125 196.28125 390.519531 203.125 C 392.6875 205.203125 401.195312 208.375 408.253906 203.777344 C 413.046875 200.636719 429.519531 188.210938 446.347656 175.351562 C 469.714844 157.496094 472.109375 148.050781 469.648438 136.390625 C 469.648438 136.390625 463.363281 120.363281 445.207031 128.695312 C 432.78125 134.414062 390.148438 180.152344 388.699219 181.761719 Z M 388.699219 181.761719 " fill-opacity="1" fill-rule="nonzero"/><path fill="#4a3a4a" d="M 326.769531 213.011719 C 325.152344 210.902344 321.726562 193.113281 325.25 186.917969 L 335.28125 187.21875 L 338.386719 205.859375 Z M 326.769531 213.011719 " fill-opacity="1" fill-rule="nonzero"/><path fill="#9e5959" d="M 286.835938 203.488281 C 288.441406 202.835938 296.824219 199.589844 297.496094 199.464844 C 298.644531 199.25 301.300781 194.167969 306.023438 193.773438 C 306.996094 193.691406 307.050781 191.773438 306.96875 190.832031 C 303.863281 190.347656 302.6875 190.40625 297.699219 188.492188 C 297.699219 188.492188 303.066406 185.746094 305.441406 185.519531 C 307.820312 185.292969 310.039062 185.148438 315.230469 187.460938 C 320.167969 189.644531 332.171875 190.054688 332.175781 190.054688 C 336.136719 190.382812 331.382812 191.273438 334.046875 192.0625 C 344.332031 195.109375 343.9375 208.234375 331.019531 206.472656 C 331.019531 206.472656 325.089844 205.089844 322.066406 204.410156 C 319.34375 206.511719 310.996094 215.382812 309.214844 216.074219 C 307.914062 216.582031 305.691406 216.765625 303.21875 216.777344 C 300.421875 217 296.367188 217.320312 296 217.328125 C 295.019531 217.347656 293.515625 215.464844 293.515625 215.464844 C 293.515625 215.464844 290.640625 215.753906 289.808594 215.71875 C 287.679688 215.632812 287.269531 212.699219 287.269531 212.699219 C 287.269531 212.699219 283.503906 212.074219 284.976562 208.40625 C 284.976562 208.40625 282.371094 207.589844 283.316406 205.265625 C 283.503906 204.933594 283.878906 204.695312 286.835938 203.488281 Z M 286.835938 203.488281 " fill-opacity="1" fill-rule="nonzero"/><path fill="#723333" d="M 284.960938 208.320312 C 292.921875 208.296875 300.511719 206.132812 302.570312 203.402344 C 296.136719 205.988281 291.292969 206.785156 284.960938 208.320312 Z M 284.960938 208.320312 " fill-opacity="1" fill-rule="nonzero"/><path fill="#723333" d="M 287.136719 212.492188 C 299.582031 210.902344 303.707031 212.199219 306.390625 207.007812 C 302.015625 210.261719 298.320312 210.335938 287.136719 212.492188 Z M 287.136719 212.492188 " fill-opacity="1" fill-rule="nonzero"/><path fill="#723333" d="M 293.730469 215.371094 C 304.441406 214.898438 307.804688 213.3125 308.871094 211.421875 C 303.523438 213.824219 299.023438 213.921875 293.730469 215.371094 Z M 293.730469 215.371094 " fill-opacity="1" fill-rule="nonzero"/><path fill="#de9681" d="M 289.007812 198.222656 C 295.851562 202.816406 301.042969 196.441406 302.183594 195.367188 C 303.320312 194.292969 306.628906 194.109375 309.042969 194.605469 C 313.222656 195.675781 317.074219 193.539062 315.214844 192.195312 C 313.523438 191.058594 311.152344 190.464844 307.429688 189.667969 C 303.710938 188.875 299.339844 187.78125 296.082031 189.058594 C 289.066406 191.660156 287.839844 197.097656 289.007812 198.222656 Z M 289.007812 198.222656 " fill-opacity="1" fill-rule="nonzero"/><path fill="#d38475" d="M 290.660156 199.378906 C 296.113281 200.449219 300.078125 199.472656 302.871094 194.527344 C 299.347656 198.3125 295.792969 199.28125 290.660156 199.378906 Z M 290.660156 199.378906 " fill-opacity="1" fill-rule="nonzero"/><path fill="#de9681" d="M 309.785156 211.027344 C 309.488281 210.335938 308.714844 207.835938 309.867188 206.734375 C 310.472656 206.148438 312.789062 206.722656 312.789062 206.722656 C 312.789062 206.722656 311.546875 203.421875 312.578125 202.816406 C 313.605469 202.226562 316.097656 203.621094 316.097656 203.621094 C 316.097656 203.621094 316.558594 201.152344 317.851562 201.738281 C 318.246094 201.921875 318.972656 202.363281 319.808594 202.90625 C 320.410156 203.304688 321.082031 203.765625 321.710938 204.210938 C 321.847656 204.335938 321.953125 204.425781 322.046875 204.511719 C 322.152344 204.609375 322.234375 204.695312 322.289062 204.765625 C 322.433594 204.941406 322.316406 206.539062 321.847656 207.03125 C 320.816406 208.132812 319.644531 207.753906 319.449219 207.742188 C 319.453125 207.980469 318.988281 209.605469 318.59375 209.984375 C 317.660156 210.792969 316.09375 210.988281 315.921875 210.96875 C 315.917969 211.207031 315.445312 213.589844 314.398438 214.421875 C 313.710938 214.949219 312.117188 214.335938 311.835938 214.3125 C 311.328125 214.742188 311.582031 215.84375 310.4375 216.222656 C 310.011719 216.367188 308.796875 215.957031 308.15625 215.125 C 307.519531 214.292969 307.792969 213.03125 307.867188 212.851562 C 308.132812 212.136719 309.632812 211.167969 309.785156 211.027344 Z M 309.785156 211.027344 " fill-opacity="1" fill-rule="nonzero"/><path fill="#c97565" d="M 316.128906 203.574219 C 316.464844 204.253906 317.089844 205.140625 317.515625 205.773438 C 317.980469 206.535156 318.527344 207.214844 319.382812 207.589844 C 319.382812 207.589844 319.433594 207.539062 319.433594 207.539062 C 319.152344 206.660156 318.609375 206.019531 317.957031 205.417969 C 317.367188 204.789062 316.761719 204.175781 316.1875 203.535156 Z M 316.128906 203.574219 " fill-opacity="1" fill-rule="nonzero"/><path fill="#c97565" d="M 312.765625 206.789062 C 313.207031 207.605469 313.660156 208.316406 314.050781 208.871094 C 314.441406 209.429688 314.996094 210.25 315.78125 210.839844 C 315.78125 210.839844 315.839844 210.804688 315.839844 210.804688 C 315.714844 209.820312 314.9375 209.019531 314.640625 208.605469 C 314.339844 208.191406 313.46875 207.414062 312.84375 206.71875 Z M 312.765625 206.789062 " fill-opacity="1" fill-rule="nonzero"/><path fill="#c97565" d="M 309.882812 211.214844 C 310.339844 212.132812 310.351562 212.636719 310.910156 213.476562 C 311.136719 213.734375 311.386719 213.972656 311.738281 214.148438 L 311.796875 214.109375 C 311.75 213.351562 311.371094 212.796875 310.878906 212.28125 C 310.449219 211.75 310.40625 211.679688 309.941406 211.175781 Z M 309.882812 211.214844 " fill-opacity="1" fill-rule="nonzero"/><path fill="#9e5959" d="M 357.09375 186.800781 C 374.820312 183.929688 382.023438 183.617188 389.242188 183.613281 C 390.203125 183.503906 391.160156 183.519531 392.085938 183.65625 C 396.375 184.28125 400.085938 187.386719 401.257812 191.839844 C 402.824219 197.785156 399.273438 203.875 393.324219 205.441406 C 392.15625 205.75 390.984375 205.855469 389.839844 205.789062 C 389.839844 205.792969 325.675781 205.15625 325.675781 205.15625 C 325.445312 205.164062 325.214844 205.15625 324.984375 205.136719 C 322.441406 204.914062 318.792969 203.089844 318.109375 200.488281 C 317.234375 197.179688 319.640625 192.945312 322.953125 192.074219 C 323.546875 191.914062 341.816406 189.269531 357.09375 186.800781 Z M 357.09375 186.800781 " fill-opacity="1" fill-rule="nonzero"/><path fill="#564756" d="M 409.363281 183.542969 C 409.363281 183.542969 414.023438 200.503906 404.898438 205.386719 C 396.199219 210.042969 326.769531 213.011719 326.769531 213.011719 C 326.769531 213.011719 334.363281 197.160156 325.332031 186.917969 C 325.332031 186.917969 386.351562 176.898438 393.472656 176.664062 C 400.59375 176.429688 406.175781 177.203125 409.363281 183.542969 Z M 409.363281 183.542969 " fill-opacity="1" fill-rule="nonzero"/><path fill="#d1937e" d="M 278.472656 393.066406 L 246.699219 523.992188 L 253.402344 523.992188 L 290.363281 393.066406 Z M 278.472656 393.066406 " fill-opacity="1" fill-rule="nonzero"/><path fill="#d1937e" d="M 296.34375 393.066406 L 300.113281 535.15625 L 306.8125 535.15625 L 310.375 393.066406 Z M 296.34375 393.066406 " fill-opacity="1" fill-rule="nonzero"/><path fill="#d1937e" d="M 328.246094 393.066406 L 360.019531 523.992188 L 353.320312 523.992188 L 316.359375 393.066406 Z M 328.246094 393.066406 " fill-opacity="1" fill-rule="nonzero"/><path fill="#bf8673" d="M 333.621094 389.007812 L 273.101562 389.007812 C 273.101562 389.007812 273.101562 394.351562 273.101562 394.386719 C 273.101562 395.847656 286.648438 397.035156 303.359375 397.035156 C 320.074219 397.035156 333.621094 395.847656 333.621094 394.386719 C 333.621094 394.351562 333.621094 389.007812 333.621094 389.007812 Z M 333.621094 389.007812 " fill-opacity="1" fill-rule="nonzero"/><path fill="#d1937e" d="M 333.621094 389.109375 C 333.621094 390.570312 320.074219 391.757812 303.359375 391.757812 C 286.648438 391.757812 273.101562 390.570312 273.101562 389.109375 C 273.101562 387.648438 286.648438 386.460938 303.359375 386.460938 C 320.074219 386.460938 333.621094 387.644531 333.621094 389.109375 Z M 333.621094 389.109375 " fill-opacity="1" fill-rule="nonzero"/><path fill="#bf8673" d="M 308.421875 389.007812 L 298.296875 389.007812 C 297.167969 389.007812 296.253906 388.089844 296.253906 386.960938 L 296.253906 340.496094 L 310.46875 340.496094 L 310.46875 386.960938 C 310.46875 388.089844 309.554688 389.007812 308.421875 389.007812 Z M 308.421875 389.007812 " fill-opacity="1" fill-rule="nonzero"/><path fill="#dba086" d="M 468.402344 333.019531 L 138.320312 333.019531 L 210.125 294.230469 L 402.371094 294.230469 Z M 468.402344 333.019531 " fill-opacity="1" fill-rule="nonzero"/><path fill="#ce8a72" d="M 138.320312 333.019531 L 468.402344 333.019531 L 468.402344 344.972656 L 138.320312 344.972656 Z M 138.320312 333.019531 " fill-opacity="1" fill-rule="nonzero"/><path fill="#c6d1e5" d="M 373.3125 329.96875 L 431.335938 323.191406 C 432.570312 323.046875 433.503906 322 433.503906 320.753906 L 433.503906 320.082031 L 368.144531 295.742188 L 305.757812 295.574219 L 305.757812 296.523438 C 305.757812 297.6875 306.425781 298.75 307.472656 299.257812 L 369.984375 329.410156 C 371.019531 329.910156 372.171875 330.101562 373.3125 329.96875 Z M 373.3125 329.96875 " fill-opacity="1" fill-rule="nonzero"/><path fill="#dae1f2" d="M 371.566406 327.320312 L 433.503906 320.082031 L 368.363281 292.980469 C 368.21875 292.917969 368.0625 292.890625 367.90625 292.898438 L 305.757812 295.574219 Z M 371.566406 327.320312 " fill-opacity="1" fill-rule="nonzero"/><path fill="#c6d1e5" d="M 369.867188 323.585938 L 420.132812 318.199219 C 420.464844 318.164062 420.535156 317.707031 420.226562 317.578125 L 367.753906 295.144531 C 367.546875 295.058594 367.324219 295.019531 367.097656 295.027344 L 320.78125 297.023438 C 319.214844 297.089844 318.78125 299.203125 320.191406 299.886719 L 369.035156 323.445312 C 369.292969 323.570312 369.582031 323.617188 369.867188 323.585938 Z M 369.867188 323.585938 " fill-opacity="1" fill-rule="nonzero"/><path fill="#ecf0fa" d="M 281.582031 243.949219 L 280.746094 244.347656 L 307.757812 294.625 L 371.566406 327.320312 L 373.734375 327.066406 L 344.113281 268.070312 C 343.789062 267.429688 343.238281 266.929688 342.570312 266.667969 L 283.945312 243.863281 C 283.179688 243.566406 282.324219 243.597656 281.582031 243.949219 Z M 281.582031 243.949219 " fill-opacity="1" fill-rule="nonzero"/><path fill="#e4e8f2" d="M 280.746094 244.347656 L 305.757812 295.574219 L 371.566406 327.316406 L 342.359375 269.507812 C 341.878906 268.550781 341.058594 267.808594 340.0625 267.421875 Z M 280.746094 244.347656 " fill-opacity="1" fill-rule="nonzero"/></svg>