<svg id="Layer_1" height="512" viewBox="0 0 68 68" width="512" xmlns="http://www.w3.org/2000/svg">
    <g>
        <path style="fill:currentColor" d="m51.1 31.6h-3.8c-.6 0-1 .4-1 1s.4 1 1 1h3.8c.6 0 1-.4 1-1s-.4-1-1-1z" />
        <path style="fill:currentColor" d="m59.1 31.6h-3.8c-.6 0-1 .4-1 1s.4 1 1 1h3.8c.6 0 1-.4 1-1s-.4-1-1-1z" />
        <path style="fill:currentColor"
            d="m13.4 43.1c-2.2 0-4 1.8-4 4s1.8 4 4 4 4-1.8 4-4-1.8-4-4-4zm0 6c-1.1 0-2-.9-2-2s.9-2 2-2 2 .9 2 2-.9 2-2 2z" />
        <path style="fill:currentColor"
            d="m23.6 43.1c-2.2 0-4 1.8-4 4s1.8 4 4 4 4-1.8 4-4c-.1-2.2-1.9-4-4-4zm0 6c-1.1 0-2-.9-2-2s.9-2 2-2 2 .9 2 2c-.1 1.1-1 2-2 2z" />
        <path style="fill:currentColor"
            d="m33.7 43.1c-2.2 0-4 1.8-4 4s1.8 4 4 4 4-1.8 4-4-1.8-4-4-4zm0 6c-1.1 0-2-.9-2-2s.9-2 2-2 2 .9 2 2-.9 2-2 2z" />
        <path style="fill:currentColor"
            d="m43.9 43.1c-2.2 0-4 1.8-4 4s1.8 4 4 4 4-1.8 4-4c-.1-2.2-1.9-4-4-4zm0 6c-1.1 0-2-.9-2-2s.9-2 2-2 2 .9 2 2c-.1 1.1-1 2-2 2z" />
        <path style="fill:currentColor"
            d="m54 43.1c-2.2 0-4 1.8-4 4s1.8 4 4 4 4-1.8 4-4-1.8-4-4-4zm0 6c-1.1 0-2-.9-2-2s.9-2 2-2 2 .9 2 2-.9 2-2 2z" />
        <path style="fill:currentColor"
            d="m66 59.7c-2 0-3.3-.4-4.4-1l4.8-19.3c.1-.3 0-.6-.2-.9-.2-.2-.5-.4-.8-.4h-1.4v-11.5c0-.6-.4-1-1-1h-14.7v-9.4c0-.6-.4-1-1-1h-5.4v-5.7l7.6-3.2c.4-.2.6-.5.6-.9s-.2-.8-.6-.9l-8.2-3.5c-.6-.3-1.4.2-1.4.9v13.2h-5.6c-.6 0-1 .4-1 1v22h-4.4v-6c0-.6-.4-1-1-1h-2.6v-7.5c0-.6-.4-1-1-1h-2.7v-7.2c0-.6-.4-1-1-1h-9.9c-.6 0-1 .4-1 1v7.2h-2.7c-.6 0-1 .4-1 1v7.5h-2.6c-.6 0-1 .4-1 1v6h-.4c-.3 0-.6.1-.8.4s-.2.6-.2.9l4.1 16.6c-.7-.1-1.6-.2-2.5-.2-.6 0-1 .4-1 1s.4 1 1 1c2.9 0 4.3.9 5.8 1.8 4.5 2.8 9 2.9 13.7 0 3.9-2.4 7.6-2.5 11.6 0 4.5 2.8 9 2.9 13.7 0 4.8-3 8.2-2.1 12.4.4 1.4.9 3.2 1.7 6.1 1.7.6 0 1-.4 1-1s-.3-1-.9-1zm-24.1-56.2 4.6 1.9-4.6 1.9zm-6.6 13.7h11v9.4c0 .6.4 1 1 1h14.7v10.6h-26.7zm-8.4 20.8h-10.3v-4.9h10.3zm-15.2-21.5h7.9v6.2h-7.9zm-3.7 8.1h15.3v6.2h-15.3zm-3.6 8.6h10.3v4.8h-10.3zm42 24.7c-4 2.5-7.6 2.5-11.6 0-4.5-2.8-9-2.9-13.7 0-3.9 2.4-7.6 2.5-11.6 0-.6-.4-1.3-.8-2.1-1.2l-4.1-16.5h60.9l-4.3 17.5c-4.1-2.5-8.6-2.8-13.5.2z" />
        <path style="fill:currentColor"
            d="m66 65c-2.9 0-4.3-.9-5.8-1.8-4.6-2.9-9.1-2.9-13.7 0-4 2.5-7.6 2.5-11.6 0-4.5-2.8-9-2.9-13.7 0-3.9 2.4-7.6 2.5-11.6 0-1.7-1-3.6-2.2-7-2.2-.6 0-1 .4-1 1s.4 1 1 1c2.9 0 4.3.9 5.8 1.8 4.5 2.8 9 2.9 13.7 0 3.9-2.4 7.6-2.5 11.6 0 4.5 2.8 9 2.9 13.7 0 3.9-2.4 7.6-2.5 11.6 0 1.6 1 3.4 2.1 6.9 2.1.6 0 1-.4 1-1 .1-.5-.3-.9-.9-.9z" />
        <path style="fill:currentColor" d="m43.1 19.4h-4.5c-.6 0-1 .4-1 1s.4 1 1 1h4.5c.6 0 1-.4 1-1s-.4-1-1-1z" />
    </g>
</svg>