<?xml version="1.0" encoding="UTF-8"?>
<svg xmlns="http://www.w3.org/2000/svg" viewBox="0 0 48 48"><g fill="#418fde" data-name="Layer 2"><path d="M6.62 31.24a4.598 4.598 0 0 0 2.38.75c.1.01.21.01.33.01a4.685 4.685 0 0 0 2.71-.76 10.658 10.658 0 0 1 1.27-.62 8.356 8.356 0 0 1 3.35-.62 8.67 8.67 0 0 1 4.63 1.24A4.638 4.638 0 0 0 24 32a4.627 4.627 0 0 0 2.7-.76A8.641 8.641 0 0 1 31.33 30a8.546 8.546 0 0 1 3.36.62 11.267 11.267 0 0 1 1.26.62 4.685 4.685 0 0 0 2.71.76 4.948 4.948 0 0 0 1.34-.15 5.794 5.794 0 0 0 1.38-.61c.23-.13.47-.26.74-.39A19.69 19.69 0 0 0 44 22.41V14a1.003 1.003 0 0 0-1-1H5a1.003 1.003 0 0 0-1 1v8.41a19.69 19.69 0 0 0 1.88 8.44c.27.13.51.26.74.39zM10 17h28v4.59A13.864 13.864 0 0 1 37 27H11a13.864 13.864 0 0 1-1-5.41zM20 4h8a2 2 0 0 0 0-4h-8a2 2 0 0 0 0 4zM11.5 11h25a2.5 2.5 0 0 0 0-5h-25a2.5 2.5 0 0 0 0 5zM46 42a8.585 8.585 0 0 0-4.625 1.244 5.241 5.241 0 0 1-5.423 0A8.586 8.586 0 0 0 31.326 42a8.577 8.577 0 0 0-4.623 1.244 4.692 4.692 0 0 1-2.708.756 4.696 4.696 0 0 1-2.709-.756A8.585 8.585 0 0 0 16.661 42a8.584 8.584 0 0 0-4.624 1.244A4.692 4.692 0 0 1 9.33 44a4.69 4.69 0 0 1-2.706-.756A8.586 8.586 0 0 0 2 42a2 2 0 0 0 0 4 4.691 4.691 0 0 1 2.707.756A8.585 8.585 0 0 0 9.329 48a8.584 8.584 0 0 0 4.624-1.244A4.692 4.692 0 0 1 16.661 46a4.696 4.696 0 0 1 2.71.756A8.585 8.585 0 0 0 23.994 48a8.593 8.593 0 0 0 4.624-1.244 5.234 5.234 0 0 1 5.42 0 9.22 9.22 0 0 0 9.25 0A4.702 4.702 0 0 1 46 46a2 2 0 0 0 0-4zM2 38a4.691 4.691 0 0 1 2.707.756A8.585 8.585 0 0 0 9.329 40a8.584 8.584 0 0 0 4.624-1.244A4.692 4.692 0 0 1 16.661 38a4.696 4.696 0 0 1 2.71.756A8.585 8.585 0 0 0 23.994 40a8.593 8.593 0 0 0 4.624-1.244 5.234 5.234 0 0 1 5.42 0 9.22 9.22 0 0 0 9.25 0A4.702 4.702 0 0 1 46 38a2 2 0 0 0 0-4 8.585 8.585 0 0 0-4.625 1.244 5.241 5.241 0 0 1-5.423 0A8.586 8.586 0 0 0 31.326 34a8.577 8.577 0 0 0-4.623 1.244 4.692 4.692 0 0 1-2.708.756 4.696 4.696 0 0 1-2.709-.756A8.585 8.585 0 0 0 16.661 34a8.584 8.584 0 0 0-4.624 1.244A4.692 4.692 0 0 1 9.33 36a4.69 4.69 0 0 1-2.706-.756A8.586 8.586 0 0 0 2 34a2 2 0 0 0 0 4z" style="fill: #000000;"/></g></svg>
