<?xml version="1.0" encoding="UTF-8"?>
<svg xmlns="http://www.w3.org/2000/svg" viewBox="0 0 36 48"><path fill="#418fde" d="M34.5 41a1.5 1.5 0 0 0 0-3H31v-2h3.5a1.5 1.5 0 0 0 0-3H31v-2h2a2.006 2.006 0 0 0 2-2V2a2.006 2.006 0 0 0-2-2H3a2.006 2.006 0 0 0-2 2v27a2.006 2.006 0 0 0 2 2h2v2H1.5a1.5 1.5 0 0 0 0 3H5v2H1.5a1.5 1.5 0 0 0 0 3H5v2H1.5a1.5 1.5 0 0 0 0 3H5v.5a1.5 1.5 0 0 0 3 0V46h20v.5a1.5 1.5 0 0 0 3 0V46h3.5a1.5 1.5 0 0 0 0-3H31v-2zM28 31v2H8v-2zm0 5v2H8v-2zm0 5v2H8v-2zm2-13a2 2 0 1 1 2-2 2.006 2.006 0 0 1-2 2zM4 7a1.003 1.003 0 0 1 1-1h26a1.003 1.003 0 0 1 1 1v12a1.003 1.003 0 0 1-1 1H5a1.003 1.003 0 0 1-1-1zm0 19a2 2 0 1 1 2 2 2.006 2.006 0 0 1-2-2z" data-name="Layer 2" style="fill: #000000;"/></svg>
