<?xml version="1.0" encoding="UTF-8"?>
<svg xmlns="http://www.w3.org/2000/svg" viewBox="0 0 48 48"><g fill="#418fde" data-name="Layer 2"><path d="M47.9 19.48l-7.76-5.37a.28.28 0 0 0-.28 0l-7.76 5.37a.204.204 0 0 0-.1.16v6.45c-.21-.01-.44-.02-.67-.02a8.674 8.674 0 0 0-4.63 1.24 4.637 4.637 0 0 1-2.703.76 6.237 6.237 0 0 1-5.997-6 5.714 5.714 0 0 1 5.5-5.895 5.142 5.142 0 0 1 2.527.658 2 2 0 1 0 1.946-3.495 9.223 9.223 0 0 0-4.473-1.163A9.714 9.714 0 0 0 14 22.07a10.262 10.262 0 0 0 9.979 9.999H24.006a8.674 8.674 0 0 0 4.614-1.24 4.638 4.638 0 0 1 2.71-.76 4.702 4.702 0 0 1 2.7.75A8.391 8.391 0 0 0 38 32.05c.21.01.43.02.66.02a8.673 8.673 0 0 0 4.63-1.24 4.907 4.907 0 0 1 1.71-.68 2.905 2.905 0 0 1 .328-.049c.154-.009.307-.018.472-.02a1.272 1.272 0 0 1 .2-.01 9.43 9.43 0 0 1 2 .2V19.64a.204.204 0 0 0-.1-.16zM46 42a8.59 8.59 0 0 0-4.625 1.244 5.241 5.241 0 0 1-5.423 0A8.59 8.59 0 0 0 31.326 42a8.581 8.581 0 0 0-4.623 1.244 4.692 4.692 0 0 1-2.708.756 4.696 4.696 0 0 1-2.709-.756A8.59 8.59 0 0 0 16.661 42a8.588 8.588 0 0 0-4.624 1.244A4.692 4.692 0 0 1 9.33 44a4.69 4.69 0 0 1-2.706-.755A8.577 8.577 0 0 0 2 42a2 2 0 0 0 0 4 4.691 4.691 0 0 1 2.707.756A8.58 8.58 0 0 0 9.329 48a8.588 8.588 0 0 0 4.624-1.244A4.692 4.692 0 0 1 16.661 46a4.696 4.696 0 0 1 2.71.756A8.59 8.59 0 0 0 23.994 48a8.583 8.583 0 0 0 4.624-1.245 5.236 5.236 0 0 1 5.42 0 9.22 9.22 0 0 0 9.25 0A4.702 4.702 0 0 1 46 46a2 2 0 0 0 0-4zM46 34a8.59 8.59 0 0 0-4.625 1.244 5.241 5.241 0 0 1-5.423 0A8.59 8.59 0 0 0 31.326 34a8.581 8.581 0 0 0-4.623 1.244 4.692 4.692 0 0 1-2.708.756 4.696 4.696 0 0 1-2.709-.756A8.59 8.59 0 0 0 16.661 34a8.588 8.588 0 0 0-4.624 1.244A4.692 4.692 0 0 1 9.33 36a4.69 4.69 0 0 1-2.706-.755A8.577 8.577 0 0 0 2 34a2 2 0 0 0 0 4 4.691 4.691 0 0 1 2.707.756A8.58 8.58 0 0 0 9.329 40a8.588 8.588 0 0 0 4.624-1.244A4.692 4.692 0 0 1 16.661 38a4.696 4.696 0 0 1 2.71.756A8.59 8.59 0 0 0 23.994 40a8.583 8.583 0 0 0 4.624-1.245 5.236 5.236 0 0 1 5.42 0 9.22 9.22 0 0 0 9.25 0A4.702 4.702 0 0 1 46 38a2 2 0 0 0 0-4z" style="fill: #000000;"/><path d="M4.102 31.07a2 2 0 0 0 1.77-2.927A16.507 16.507 0 0 1 20.5 4a16.585 16.585 0 0 1 11.148 4.544 2 2 0 1 0 2.704-2.948A20.57 20.57 0 0 0 20.5 0 20.508 20.508 0 0 0 2.327 29.997a2.001 2.001 0 0 0 1.775 1.073z" style="fill: #000000;"/></g></svg>
