<svg id="Layer_5" enable-background="new 0 0 64 64" height="512" viewBox="0 0 64 64" width="512"
    xmlns="http://www.w3.org/2000/svg">
    <g>
        <path style="fill:currentColor"
            d="m32 53c4.963 0 9-4.037 9-9s-4.037-9-9-9-9 4.037-9 9 4.037 9 9 9zm1.589-12c.17.61.297 1.28.362 2h-3.901c.065-.72.192-1.39.362-2zm-2.407-2c.28-.564.567-1.032.818-1.394.251.363.538.831.818 1.394zm2.769 6c-.065.72-.192 1.39-.362 2h-3.177c-.17-.61-.297-1.28-.362-2zm-1.133 4c-.28.564-.567 1.032-.818 1.395-.251-.363-.539-.831-.819-1.395zm2.203 0h1.868c-.747.731-1.657 1.293-2.67 1.633.273-.471.549-1.014.802-1.633zm.632-2c.145-.623.256-1.288.309-2h2.958c-.102.706-.308 1.378-.605 2zm.309-4c-.053-.712-.164-1.377-.309-2h2.662c.297.622.503 1.294.605 2zm-.941-4c-.252-.619-.529-1.162-.801-1.633 1.012.34 1.922.902 2.67 1.633zm-6.042 0h-1.868c.747-.731 1.657-1.293 2.67-1.633-.273.471-.549 1.014-.802 1.633zm-.632 2c-.145.623-.256 1.288-.309 2h-2.958c.102-.706.308-1.378.605-2zm-.309 4c.053.712.164 1.377.309 2h-2.662c-.297-.622-.503-1.294-.605-2zm.941 4c.252.619.529 1.162.801 1.633-1.012-.34-1.922-.902-2.67-1.633z" />
        <path style="fill:currentColor"
            d="m12 17c2.757 0 5-2.243 5-5s-2.243-5-5-5-5 2.243-5 5 2.243 5 5 5zm0-8c1.654 0 3 1.346 3 3s-1.346 3-3 3-3-1.346-3-3 1.346-3 3-3z" />
        <path style="fill:currentColor" d="m11 1h2v4h-2z" />
        <path style="fill:currentColor" d="m4.636 3.636h2v4h-2z" transform="matrix(.707 -.707 .707 .707 -2.334 5.636)" />
        <path style="fill:currentColor" d="m1 11h4v2h-4z" />
        <path style="fill:currentColor" d="m3.636 17.364h4v2h-4z" transform="matrix(.707 -.707 .707 .707 -11.335 9.364)" />
        <path style="fill:currentColor" d="m11 19h2v4h-2z" />
        <path style="fill:currentColor" d="m17.364 16.364h2v4h-2z" transform="matrix(.707 -.707 .707 .707 -7.607 18.364)" />
        <path style="fill:currentColor" d="m19 11h4v2h-4z" />
        <path style="fill:currentColor" d="m16.364 4.636h4v2h-4z" transform="matrix(.707 -.707 .707 .707 1.394 14.636)" />
        <path style="fill:currentColor"
            d="m31.467 56.989c.18.008.36.011.539.011 3.377 0 6.555-1.275 9-3.624 2.575-2.475 3.994-5.805 3.994-9.376 0-4.594-2.471-8.892-6.448-11.216-.972-.567-1.552-1.548-1.552-2.622v-18.162c0-2.757-2.243-5-5-5s-5 2.243-5 5v18.162c0 1.073-.583 2.055-1.559 2.627-4.229 2.474-6.688 7.048-6.421 11.938.361 6.611 5.828 11.998 12.447 12.262zm-5.015-22.474c1.571-.921 2.548-2.589 2.548-4.353v-18.162c0-1.654 1.346-3 3-3s3 1.346 3 3v1h-4v2h4v2h-2v2h2v2h-4v2h4v2h-2v2h2v2h-4v2h4.082c.254 1.442 1.144 2.742 2.461 3.511 3.366 1.968 5.457 5.603 5.457 9.489 0 3.021-1.2 5.84-3.38 7.934-2.179 2.093-5.064 3.168-8.073 3.058-5.6-.225-10.225-4.781-10.53-10.374-.226-4.139 1.856-8.01 5.435-10.103z" />
        <path style="fill:currentColor"
            d="m61.758 53.97.484-1.939-2.287-.572 1.752-1.752-1.414-1.414-1.752 1.752-.572-2.287-1.939.484.863 3.451-.608.608c-.391-.188-.823-.301-1.285-.301s-.894.113-1.285.301l-.608-.608.863-3.451-1.939-.484-.572 2.287-1.752-1.752-1.414 1.414 1.752 1.752-2.287.572.484 1.939 3.451-.863.608.608c-.188.391-.301.823-.301 1.285s.113.894.301 1.285l-.608.608-3.451-.863-.484 1.939 2.287.572-1.752 1.752 1.414 1.414 1.752-1.752.572 2.287 1.939-.484-.863-3.451.608-.608c.391.188.823.301 1.285.301s.894-.113 1.285-.301l.608.608-.863 3.451 1.939.484.572-2.287 1.752 1.752 1.414-1.414-1.752-1.752 2.287-.572-.484-1.939-3.451.863-.608-.608c.188-.391.301-.823.301-1.285s-.113-.894-.301-1.285l.608-.608zm-7.758 1.03c0-.552.448-1 1-1s1 .448 1 1-.448 1-1 1-1-.448-1-1z" />
        <path style="fill:currentColor"
            d="m10 51c-1.654 0-3 1.346-3 3s1.346 3 3 3 3-1.346 3-3-1.346-3-3-3zm0 4c-.552 0-1-.448-1-1s.448-1 1-1 1 .448 1 1-.448 1-1 1z" />
        <path style="fill:currentColor"
            d="m17.794 49.5c-.792-1.373-2.207-2.279-3.78-2.453-.937-1.275-2.429-2.047-4.014-2.047s-3.077.772-4.014 2.047c-1.573.174-2.988 1.08-3.78 2.453-.793 1.373-.87 3.051-.233 4.5-.637 1.449-.56 3.127.233 4.5.792 1.373 2.207 2.279 3.78 2.453.937 1.275 2.429 2.047 4.014 2.047s3.077-.772 4.014-2.047c1.573-.174 2.988-1.08 3.78-2.453.793-1.373.87-3.051.233-4.5.637-1.448.559-3.127-.233-4.5zm-1.751 5.001c.549.948.556 2.068.019 2.999-.536.93-1.508 1.483-2.602 1.483-.001 0-.003 0-.005 0l-.579-.001-.288.502c-.547.95-1.514 1.516-2.588 1.516s-2.041-.566-2.588-1.516l-.288-.502-.579.001c-.002 0-.004 0-.005 0-1.094 0-2.065-.554-2.602-1.483-.537-.931-.53-2.051.019-2.999l.29-.501-.29-.501c-.549-.948-.556-2.068-.019-2.999.536-.93 1.508-1.483 2.602-1.483h.005l.579.001.288-.502c.547-.95 1.514-1.516 2.588-1.516s2.041.566 2.588 1.516l.288.502.579-.001h.005c1.094 0 2.065.554 2.602 1.483.537.931.53 2.051-.019 2.999l-.29.501z" />
        <path style="fill:currentColor"
            d="m51 11h8c2.206 0 4-1.794 4-4s-1.794-4-4-4c-.007 0-.015 0-.021 0-.939-1.248-2.411-2-3.979-2s-3.04.752-3.979 2c-.006 0-.014 0-.021 0-2.206 0-4 1.794-4 4s1.794 4 4 4zm0-6c.12 0 .237.018.353.037l.698.123.348-.618c.534-.951 1.531-1.542 2.601-1.542s2.067.591 2.602 1.542l.348.618.698-.123c.115-.019.232-.037.352-.037 1.103 0 2 .897 2 2s-.897 2-2 2h-8c-1.103 0-2-.897-2-2s.897-2 2-2z" />
        <path style="fill:currentColor" d="m50 13h2v6h-2z" />
        <path style="fill:currentColor" d="m50 21h2v2h-2z" />
        <path style="fill:currentColor" d="m58 13h2v6h-2z" />
        <path style="fill:currentColor" d="m58 21h2v2h-2z" />
        <path style="fill:currentColor" d="m54 15h2v6h-2z" />
        <path style="fill:currentColor" d="m54 23h2v2h-2z" />
        <path style="fill:currentColor"
            d="m32 61c-4.033 0-7.936-.812-11.6-2.412l-.8 1.832c3.918 1.712 8.089 2.58 12.4 2.58 4.75 0 9.309-1.046 13.548-3.109l-.875-1.799c-3.965 1.929-8.229 2.908-12.673 2.908z" />
        <path style="fill:currentColor"
            d="m60.206 25.232c.526 2.204.794 4.48.794 6.768 0 4.438-.976 8.694-2.898 12.652l1.799.875c2.056-4.233 3.099-8.784 3.099-13.527 0-2.444-.285-4.878-.849-7.232z" />
        <path style="fill:currentColor"
            d="m32 3c4.436 0 8.693.976 12.654 2.898l.873-1.798c-4.235-2.057-8.787-3.1-13.527-3.1-3.561 0-7.053.599-10.38 1.78l.67 1.885c3.111-1.104 6.378-1.665 9.71-1.665z" />
        <path style="fill:currentColor"
            d="m5.844 44.541c-1.887-3.93-2.844-8.149-2.844-12.541 0-3.316.555-6.569 1.649-9.667l-1.885-.666c-1.17 3.312-1.764 6.789-1.764 10.333 0 4.694 1.023 9.205 3.041 13.406z" />
    </g>
</svg>