<svg xmlns="http://www.w3.org/2000/svg" xmlns:xlink="http://www.w3.org/1999/xlink" width="28" height="18" viewBox="0 0 28 18">
  <defs>
    <clipPath id="clip-path">
      <rect id="Rectangle_434" data-name="Rectangle 434" width="28" height="18" transform="translate(-0.456 0.311)" fill="#747373"/>
    </clipPath>
  </defs>
  <g id="Group_1557" data-name="Group 1557" transform="translate(23.368 -1807.953)">
    <g id="Mask_Group_79" data-name="Mask Group 79" transform="translate(-22.912 1807.641)" clip-path="url(#clip-path)">
      <g id="placeholder-for-map" transform="translate(6.637 0.505)">
        <path id="Path_5999" data-name="Path 5999" d="M195.108,0a6.3,6.3,0,0,0-6.517,6.3c0,4.03,3.868,6.955,6.036,11.162a.3.3,0,0,0,.528,0c1.961-3.785,5.313-6.323,5.934-9.969A6.39,6.39,0,0,0,195.108,0Zm-.218,9.6a3.3,3.3,0,1,1,3.3-3.3A3.3,3.3,0,0,1,194.89,9.6Z" transform="translate(-188.591 0)" fill="#747373"/>
      </g>
    </g>
  </g>
</svg>
