<svg xmlns="http://www.w3.org/2000/svg" width="18.766" height="18.764" viewBox="0 0 18.766 18.764">
  <g id="cancel" transform="translate(0 -0.016)">
    <g id="Group_1092" data-name="Group 1092" transform="translate(0 0.016)">
      <path id="Path_5372" data-name="Path 5372" d="M11.45,9.4l7.016-7.017a1.028,1.028,0,0,0,0-1.451L17.851.316a1.029,1.029,0,0,0-1.452,0L9.383,7.332,2.367.316a1.028,1.028,0,0,0-1.451,0L.3.93a1.027,1.027,0,0,0,0,1.451L7.317,9.4.3,16.414a1.029,1.029,0,0,0,0,1.452l.615.615a1.028,1.028,0,0,0,1.451,0l7.017-7.016L16.4,18.481a1.018,1.018,0,0,0,.726.3h0a1.018,1.018,0,0,0,.726-.3l.615-.615a1.029,1.029,0,0,0,0-1.452Z" transform="translate(0 -0.016)" fill="#aaa"/>
    </g>
  </g>
</svg>
