<svg id="drought_2_" data-name="drought (2)" xmlns="http://www.w3.org/2000/svg" width="38.306" height="38.305"
     viewBox="0 0 38.306 38.305">
    <path id="Path_2247" data-name="Path 2247"
          d="M20.66,487.551h4.35l4.41-4.41L24.6,481,20,482.726v4.165A.66.66,0,0,0,20.66,487.551Zm0,0"
          transform="translate(-18.679 -449.246)" fill="currentColor"/>
    <path id="Path_2248" data-name="Path 2248" d="M551.654,531.316h.78a.66.66,0,0,0,.66-.661v-2.8l-1.9,1.145Zm0,0"
          transform="translate(-514.789 -493.011)" fill="currentColor"/>
    <path id="Path_2249" data-name="Path 2249" d="M214.141,410.2l1.925,1.924,3.908-.783L219.4,410.2Zm0,0"
          transform="translate(-199.998 -383.121)" fill="currentColor"/>
    <path id="Path_2250" data-name="Path 2250" d="M20,415.19l4.258-1.6,1.686-1.686V410.2H20.66a.66.66,0,0,0-.66.66Zm0,0"
          transform="translate(-18.679 -383.121)" fill="currentColor"/>
    <path id="Path_2251" data-name="Path 2251"
          d="M438.939,413.087l-1.154-2.887h-1.3l-3.65,3.042-1.1,2.743,1.509,1.51,5.492.61,2.791-1.674v-2.413l-2.141-.536A.661.661,0,0,1,438.939,413.087Zm0,0"
          transform="translate(-403.228 -383.121)" fill="currentColor"/>
    <path id="Path_2252" data-name="Path 2252"
          d="M130.273,533.089l-2.148-1.432a.662.662,0,0,1-.274-.389l-.378-1.511-3.333,3.331Zm0,0"
          transform="translate(-115.942 -494.784)" fill="currentColor"/>
    <path id="Path_2253" data-name="Path 2253"
          d="M246.084,446.02l-4.176.837-.466,2.331,2.582,1.033,3.64-1.04-.965-1.931Zm0,0"
          transform="translate(-225.496 -416.576)" fill="currentColor"/>
    <path id="Path_2254" data-name="Path 2254"
          d="M546.436,410.2H544.77l.833,2.083,1.494.373v-1.8A.66.66,0,0,0,546.436,410.2Zm0,0"
          transform="translate(-508.791 -383.121)" fill="currentColor"/>
    <path id="Path_2255" data-name="Path 2255"
          d="M114.9,415.582l.505-2.524-2.859-2.859h-3.689v1.981a.66.66,0,0,1-.193.467l-1.3,1.3,4.873,2.165Zm0,0"
          transform="translate(-100.269 -383.121)" fill="currentColor"/>
    <path id="Path_2256" data-name="Path 2256"
          d="M198.179,511.859a.639.639,0,0,1-.181.026.665.665,0,0,1-.245-.047l-3.123-1.248-2.43.486.431,1.722,3.585,2.389h7.193c-.361-.473-.836-1.046-1.279-1.541a.658.658,0,0,1-.168-.44v-2.427Zm0,0"
          transform="translate(-179.506 -476.882)" fill="currentColor"/>
    <path id="Path_2257" data-name="Path 2257"
          d="M421.36,541.251l-5.141-.571c-1.135,1.181-2,2.019-2.656,2.61h8.205Zm0,0"
          transform="translate(-386.249 -504.984)" fill="currentColor"/>
    <path id="Path_2258" data-name="Path 2258" d="M344.328,451.6l.783,1.565h3.768l.874-2.185-1.736-.434Zm0,0"
          transform="translate(-321.587 -420.808)" fill="currentColor"/>
    <path id="Path_2259" data-name="Path 2259"
          d="M326.5,410.2H316.18l1.258,2.517,4.095-1.17a.655.655,0,0,1,.341-.006l2.317.579Zm0,0"
          transform="translate(-295.298 -383.121)" fill="currentColor"/>
    <path id="Path_2260" data-name="Path 2260"
          d="M360,510.2v2.391a19.654,19.654,0,0,1,1.646,2.1,38.78,38.78,0,0,0,3.373-3.162l-1.33-1.329Zm0,0"
          transform="translate(-336.224 -476.517)" fill="currentColor"/>
    <path id="Path_2261" data-name="Path 2261"
          d="M100.567,95.483A5.284,5.284,0,1,1,95.283,90.2,5.283,5.283,0,0,1,100.567,95.483Zm0,0"
          transform="translate(-84.056 -84.255)" fill="currentColor"/>
    <path id="Path_2262" data-name="Path 2262"
          d="M160.66,3.5a.66.66,0,0,0,.66-.66V.86A.66.66,0,1,0,160,.86V2.841A.66.66,0,0,0,160.66,3.5Zm0,0"
          transform="translate(-149.433 -0.199)" fill="currentColor"/>
    <path id="Path_2263" data-name="Path 2263"
          d="M81.049,24.274a.66.66,0,0,0,1.144-.66L81.2,21.9a.66.66,0,1,0-1.144.66Zm0,0"
          transform="translate(-74.686 -20.152)" fill="currentColor"/>
    <path id="Path_2264" data-name="Path 2264"
          d="M21.717,81.4l1.717.991a.66.66,0,0,0,.66-1.144l-1.717-.991a.66.66,0,1,0-.66,1.144Zm0,0"
          transform="translate(-19.971 -74.884)" fill="currentColor"/>
    <path id="Path_2265" data-name="Path 2265"
          d="M3.3,160.86a.66.66,0,0,0-.66-.66H.66a.66.66,0,0,0,0,1.321H2.642A.66.66,0,0,0,3.3,160.86Zm0,0"
          transform="translate(0 -149.632)" fill="currentColor"/>
    <path id="Path_2266" data-name="Path 2266"
          d="M22.108,227.481a.659.659,0,0,0,.33-.088l1.717-.991a.66.66,0,1,0-.66-1.144l-1.717.991a.66.66,0,0,0,.33,1.232Zm0,0"
          transform="translate(-20.031 -210.309)" fill="currentColor"/>
    <path id="Path_2267" data-name="Path 2267"
          d="M80.326,275.76a.661.661,0,0,0,.9-.242l.991-1.717a.66.66,0,0,0-1.144-.66l-.991,1.717a.661.661,0,0,0,.242.9Zm0,0"
          transform="translate(-74.712 -254.809)" fill="currentColor"/>
    <path id="Path_2268" data-name="Path 2268"
          d="M160,290.86v1.981a.66.66,0,1,0,1.321,0V290.86a.66.66,0,1,0-1.321,0Zm0,0"
          transform="translate(-149.433 -271.047)" fill="currentColor"/>
    <path id="Path_2269" data-name="Path 2269"
          d="M226.263,273.163a.66.66,0,0,0-1.144.66l.991,1.717a.66.66,0,1,0,1.144-.66Zm0,0"
          transform="translate(-210.171 -254.83)" fill="currentColor"/>
    <path id="Path_2270" data-name="Path 2270"
          d="M272.972,226.462l1.717.991a.66.66,0,1,0,.66-1.144l-1.717-.991a.66.66,0,0,0-.66,1.144Zm0,0"
          transform="translate(-254.639 -210.37)" fill="currentColor"/>
    <path id="Path_2271" data-name="Path 2271"
          d="M290,160.86a.66.66,0,0,0,.66.66h1.981a.66.66,0,1,0,0-1.321H290.66A.66.66,0,0,0,290,160.86Zm0,0"
          transform="translate(-270.847 -149.632)" fill="currentColor"/>
    <path id="Path_2272" data-name="Path 2272"
          d="M273.26,82.481a.655.655,0,0,0,.33-.088l1.717-.991a.66.66,0,1,0-.66-1.144l-1.717.991a.66.66,0,0,0,.33,1.232Zm0,0"
          transform="translate(-254.596 -74.886)" fill="currentColor"/>
    <path id="Path_2273" data-name="Path 2273"
          d="M225.329,24.516a.66.66,0,0,0,.9-.241l.991-1.717a.66.66,0,1,0-1.144-.66l-.991,1.717A.66.66,0,0,0,225.329,24.516Zm0,0"
          transform="translate(-210.139 -20.152)" fill="currentColor"/>
</svg>
