<svg xmlns="http://www.w3.org/2000/svg" xmlns:xlink="http://www.w3.org/1999/xlink" width="250" zoomAndPan="magnify" viewBox="0 0 187.5 44.999999" height="60" preserveAspectRatio="xMidYMid meet" version="1.0"><defs><g/></defs><g fill="#f3f6f9" fill-opacity="1"><g transform="translate(-2.184992, 37.773413)"><g><path d="M 29.734375 0 L 21.8125 0 L 9.046875 -22.203125 L 8.875 -22.203125 C 9.125 -18.273438 9.25 -15.476562 9.25 -13.8125 L 9.25 0 L 3.6875 0 L 3.6875 -29.34375 L 11.546875 -29.34375 L 24.28125 -7.359375 L 24.421875 -7.359375 C 24.222656 -11.179688 24.125 -13.878906 24.125 -15.453125 L 24.125 -29.34375 L 29.734375 -29.34375 Z M 29.734375 0 "/></g></g></g><g fill="#f3f6f9" fill-opacity="1"><g transform="translate(52.274827, 37.773413)"><g><path d="M 16.125 0 L 9.046875 -23.03125 L 8.875 -23.03125 C 9.125 -18.34375 9.25 -15.21875 9.25 -13.65625 L 9.25 0 L 3.6875 0 L 3.6875 -29.34375 L 12.171875 -29.34375 L 19.109375 -6.90625 L 19.234375 -6.90625 L 26.59375 -29.34375 L 35.0625 -29.34375 L 35.0625 0 L 29.265625 0 L 29.265625 -13.890625 C 29.265625 -14.546875 29.273438 -15.300781 29.296875 -16.15625 C 29.316406 -17.007812 29.40625 -19.285156 29.5625 -22.984375 L 29.390625 -22.984375 L 21.8125 0 Z M 16.125 0 "/></g></g></g><g fill="#f3f6f9" fill-opacity="1"><g transform="translate(112.072465, 37.773413)"><g><path d="M 27.734375 0 L 21.53125 0 L 21.53125 -12.671875 L 9.921875 -12.671875 L 9.921875 0 L 3.6875 0 L 3.6875 -29.34375 L 9.921875 -29.34375 L 9.921875 -17.84375 L 21.53125 -17.84375 L 21.53125 -29.34375 L 27.734375 -29.34375 Z M 27.734375 0 "/></g></g></g><g fill="#f3f6f9" fill-opacity="1"><g transform="translate(164.565718, 37.773413)"><g><path d="M 21.015625 -8.15625 C 21.015625 -5.5 20.0625 -3.40625 18.15625 -1.875 C 16.25 -0.351562 13.597656 0.40625 10.203125 0.40625 C 7.066406 0.40625 4.296875 -0.179688 1.890625 -1.359375 L 1.890625 -7.140625 C 3.867188 -6.265625 5.539062 -5.644531 6.90625 -5.28125 C 8.28125 -4.914062 9.535156 -4.734375 10.671875 -4.734375 C 12.035156 -4.734375 13.082031 -4.992188 13.8125 -5.515625 C 14.550781 -6.035156 14.921875 -6.8125 14.921875 -7.84375 C 14.921875 -8.425781 14.757812 -8.941406 14.4375 -9.390625 C 14.113281 -9.835938 13.640625 -10.265625 13.015625 -10.671875 C 12.390625 -11.085938 11.125 -11.753906 9.21875 -12.671875 C 7.425781 -13.515625 6.078125 -14.320312 5.171875 -15.09375 C 4.273438 -15.875 3.5625 -16.773438 3.03125 -17.796875 C 2.5 -18.828125 2.234375 -20.035156 2.234375 -21.421875 C 2.234375 -24.015625 3.109375 -26.050781 4.859375 -27.53125 C 6.617188 -29.019531 9.054688 -29.765625 12.171875 -29.765625 C 13.691406 -29.765625 15.144531 -29.582031 16.53125 -29.21875 C 17.914062 -28.863281 19.363281 -28.359375 20.875 -27.703125 L 18.875 -22.859375 C 17.300781 -23.503906 16.003906 -23.953125 14.984375 -24.203125 C 13.960938 -24.460938 12.957031 -24.59375 11.96875 -24.59375 C 10.789062 -24.59375 9.882812 -24.316406 9.25 -23.765625 C 8.625 -23.210938 8.3125 -22.5 8.3125 -21.625 C 8.3125 -21.070312 8.4375 -20.59375 8.6875 -20.1875 C 8.945312 -19.78125 9.351562 -19.382812 9.90625 -19 C 10.457031 -18.613281 11.769531 -17.925781 13.84375 -16.9375 C 16.59375 -15.625 18.472656 -14.304688 19.484375 -12.984375 C 20.503906 -11.671875 21.015625 -10.0625 21.015625 -8.15625 Z M 21.015625 -8.15625 "/></g></g></g></svg>