<svg xmlns="http://www.w3.org/2000/svg" width="16.935" height="16.935" viewBox="0 0 16.935 16.935">
  <path id="Path_1" data-name="Path 1" d="M8.467,0a8.467,8.467,0,1,0,8.467,8.467A8.468,8.468,0,0,0,8.467,0Zm7.323,11.434-2.408.416a12.636,12.636,0,0,0,.443-3.1h2.538A7.851,7.851,0,0,1,15.791,11.434ZM.572,8.75H3.109a12.636,12.636,0,0,0,.443,3.1l-2.408-.416A7.851,7.851,0,0,1,.572,8.75ZM1.144,5.5l2.408-.416a12.636,12.636,0,0,0-.443,3.1H.572A7.851,7.851,0,0,1,1.144,5.5ZM8.75,4.532a19.417,19.417,0,0,1,3.026.276l1,.172a12.115,12.115,0,0,1,.49,3.205H8.75Zm3.122-.28A20.007,20.007,0,0,0,8.75,3.967V.58c1.618.155,3.024,1.637,3.82,3.793ZM8.185,3.967a20,20,0,0,0-3.122.284l-.7.121c.8-2.157,2.2-3.639,3.82-3.794ZM5.16,4.808a19.412,19.412,0,0,1,3.025-.276V8.185H3.674a12.115,12.115,0,0,1,.49-3.205ZM3.674,8.75H8.185V12.4a19.417,19.417,0,0,1-3.026-.276l-1-.172A12.115,12.115,0,0,1,3.674,8.75Zm1.39,3.933a20.074,20.074,0,0,0,3.122.286v3.387c-1.618-.156-3.024-1.637-3.82-3.793Zm3.686.286a20.072,20.072,0,0,0,3.122-.286l.7-.121c-.8,2.157-2.2,3.639-3.82,3.794Zm3.025-.842A19.412,19.412,0,0,1,8.75,12.4V8.75h4.512a12.115,12.115,0,0,1-.49,3.205Zm2.05-3.942a12.636,12.636,0,0,0-.443-3.1l2.408.416a7.851,7.851,0,0,1,.573,2.684Zm1.679-3.306-2.308-.4A7.783,7.783,0,0,0,10.951.967,7.94,7.94,0,0,1,15.505,4.879ZM5.984.967A7.783,7.783,0,0,0,3.738,4.481l-2.308.4A7.94,7.94,0,0,1,5.984.967ZM1.43,12.056l2.308.4a7.783,7.783,0,0,0,2.246,3.514A7.94,7.94,0,0,1,1.43,12.056Zm9.521,3.912A7.783,7.783,0,0,0,13.2,12.454l2.308-.4A7.94,7.94,0,0,1,10.951,15.968Zm0,0" fill="#fff"/>
</svg>
