<svg id="icon-cap-response" xmlns="http://www.w3.org/2000/svg" viewBox="0 0 48 48">
    <g>
        <path d="M2.5 26A2.5 2.5 0 0 0 5 23.5 11.577 11.577 0 0 1 16.893 12h22.576l-2.741 2.741a2.5 2.5 0 1 0 3.535 3.535l7.005-7.004a2.5 2.5 0 0 0 0-3.535L40.263.732a2.5 2.5 0 0 0-3.535 3.536L39.459 7H16.893A16.522 16.522 0 0 0 0 23.5 2.5 2.5 0 0 0 2.5 26zM40.263 22.732a2.5 2.5 0 0 0-3.535 3.536L39.459 29H16.893A16.522 16.522 0 0 0 0 45.5a2.5 2.5 0 0 0 5 0A11.577 11.577 0 0 1 16.893 34h22.576l-2.741 2.741a2.5 2.5 0 1 0 3.535 3.535l7.005-7.004a2.5 2.5 0 0 0 0-3.535z"></path>
    </g>
</svg>